<?xml version="1.0" encoding="UTF-8" standalone="no"?><!-- Generator: Gravit.io --><svg xmlns="http://www.w3.org/2000/svg" xmlns:xlink="http://www.w3.org/1999/xlink" style="isolation:isolate" viewBox="0 0 1920 1280" width="1920pt" height="1280pt"><defs><clipPath id="_clipPath_9tGKBSJ9U3EqZmRnNzzcSVKjfIhg52Up"><rect width="1920" height="1280"/></clipPath></defs><g clip-path="url(#_clipPath_9tGKBSJ9U3EqZmRnNzzcSVKjfIhg52Up)"><linearGradient id="_lgradient_1" x1="0" y1="0.5" x2="1" y2="0.5"><stop offset="0%" style="stop-color:#349DED"/><stop offset="51.24999999999999%" style="stop-color:#7176FD"/><stop offset="100%" style="stop-color:#8453EF"/></linearGradient><rect width="1920" height="1280" style="fill:url(#_lgradient_1);"/><path d=" M 2007.688 972 Q 1854.688 924.75 1753.438 924.75 C 1652.188 924.75 1492.438 985.5 1373.188 1039.5 C 1253.938 1093.5 1148.188 1116 1035.688 1116 C 923.188 1116 720.688 1035 596.938 940.5 C 473.188 846 333.688 814.5 284.188 812.25 C 234.688 810 115.438 834.75 -17.312 938.25 Q -150.062 1041.75 -183.812 933.75 L -260.312 1334.25 L 2264.188 1426.5 L 2007.688 972 Z " fill="rgb(186,239,255)" fill-opacity="0.2"/><path d=" M 1948.688 1169 Q 1548.188 993.5 1264.688 1000.25 C 981.188 1007 823.688 1196 499.688 1184.75 C 175.688 1173.5 105.938 991.25 -33.562 1029.5 C -173.062 1067.75 -204.562 1133 -290.062 1108.25 Q -375.562 1083.5 -353.062 1382.75 L 2070.188 1436.75 L 1948.688 1169 Z " fill="rgb(186,239,255)" fill-opacity="0.2"/></g></svg>