<?xml version="1.0" encoding="UTF-8" standalone="no"?><!-- Generator: Gravit.io --><svg xmlns="http://www.w3.org/2000/svg" xmlns:xlink="http://www.w3.org/1999/xlink" style="isolation:isolate" viewBox="0 0 96 96" width="96pt" height="96pt"><g><g><g><mask id="_mask_OEnwudhUD3ozNIfLdHcxXP4fGTBaDOel" x="-200%" y="-200%" width="400%" height="400%"><rect x="-200%" y="-200%" width="400%" height="400%" style="fill:white;"/><path d=" M 58.475 25.3 L 58.475 20.666 C 58.475 18.959 57.092 17.576 55.386 17.576 L 39.938 17.576 C 38.232 17.576 36.849 18.959 36.849 20.666 L 36.849 25.3" fill="black" stroke="none"/></mask><path d=" M 58.475 25.3 L 58.475 20.666 C 58.475 18.959 57.092 17.576 55.386 17.576 L 39.938 17.576 C 38.232 17.576 36.849 18.959 36.849 20.666 L 36.849 25.3" fill="none"/><path d=" M 58.475 25.3 L 58.475 20.666 C 58.475 18.959 57.092 17.576 55.386 17.576 L 39.938 17.576 C 38.232 17.576 36.849 18.959 36.849 20.666 L 36.849 25.3" fill="none" mask="url(#_mask_OEnwudhUD3ozNIfLdHcxXP4fGTBaDOel)" vector-effect="non-scaling-stroke" stroke-width="10" stroke="rgb(44,45,77)" stroke-linejoin="miter" stroke-linecap="round" stroke-miterlimit="10"/><path d=" M 81.646 57.739 L 13.678 57.739 C 11.123 57.739 9.043 55.66 9.043 53.105 L 9.043 79.366 C 9.043 81.921 11.123 84 13.678 84 L 81.646 84 C 84.201 84 86.28 81.921 86.28 79.366 L 86.28 53.105 C 86.28 55.66 84.201 57.739 81.646 57.739 Z " fill="rgb(44,45,77)"/><path d=" M 81.646 25.3 L 13.678 25.3 C 11.123 25.3 9.043 27.379 9.043 29.934 L 9.043 50.016 C 9.043 52.571 11.123 54.65 13.678 54.65 L 81.646 54.65 C 84.201 54.65 86.28 52.571 86.28 50.016 L 86.28 29.934 C 86.28 27.379 84.201 25.3 81.646 25.3 Z  M 47.662 51.56 C 45.955 51.56 44.572 50.176 44.572 48.469 C 44.573 46.763 45.957 45.38 47.663 45.38 C 49.37 45.38 50.753 46.764 50.753 48.471 C 50.752 50.178 49.369 51.561 47.662 51.56 L 47.662 51.56 Z " fill="rgb(44,45,77)"/></g></g></g></svg>