<?xml version="1.0" encoding="UTF-8" standalone="no"?><!-- Generator: Gravit.io --><svg xmlns="http://www.w3.org/2000/svg" xmlns:xlink="http://www.w3.org/1999/xlink" style="isolation:isolate" viewBox="0 0 256 256" width="256pt" height="256pt"><rect x="19" y="-99.5" width="81.5" height="71" transform="matrix(1,0,0,1,0,0)" fill="rgb(132,84,239)"/><rect x="157.5" y="-99" width="81.5" height="71" transform="matrix(1,0,0,1,0,0)" fill="rgb(53,157,237)"/><linearGradient id="_lgradient_1" x1="0.4999999999999999" y1="0" x2="0.5000000000000002" y2="1" gradientTransform="matrix(256,0,0,256,0,0)" gradientUnits="userSpaceOnUse"><stop offset="0%" stop-opacity="1" style="stop-color:rgb(53,157,237)"/><stop offset="100%" stop-opacity="1" style="stop-color:rgb(132,84,239)"/></linearGradient><circle vector-effect="non-scaling-stroke" cx="128" cy="128" r="128" fill="url(#_lgradient_1)"/><g><path d=" M 198.519 137.007 L 57.483 137.007 C 52.181 137.007 47.865 132.693 47.865 127.392 L 47.865 181.884 C 47.865 187.186 52.181 191.5 57.483 191.5 L 198.519 191.5 C 203.821 191.5 208.135 187.186 208.135 181.884 L 208.135 127.392 C 208.135 132.693 203.821 137.007 198.519 137.007 Z " fill="rgb(255,255,255)"/><path d=" M 198.519 69.695 L 57.483 69.695 C 52.181 69.695 47.865 74.009 47.865 79.311 L 47.865 120.982 C 47.865 126.284 52.181 130.598 57.483 130.598 L 198.519 130.598 C 203.821 130.598 208.135 126.284 208.135 120.982 L 208.135 79.311 C 208.135 74.009 203.821 69.695 198.519 69.695 Z  M 128.001 124.186 C 124.459 124.186 121.589 121.314 121.589 117.772 C 121.591 114.232 124.463 111.362 128.003 111.362 C 131.545 111.362 134.415 114.234 134.415 117.776 C 134.413 121.318 131.543 124.188 128.001 124.186 L 128.001 124.186 Z " fill="rgb(255,255,255)"/><path d=" M 110.075 56.5 L 145.925 56.5 C 148.123 56.5 149.907 58.284 149.907 60.482 L 149.907 75.753 C 149.907 77.951 148.123 79.735 145.925 79.735 L 110.075 79.735 C 107.877 79.735 106.093 77.951 106.093 75.753 L 106.093 60.482 C 106.093 58.284 107.877 56.5 110.075 56.5 Z  M 117.951 64.896 L 138.049 64.896 C 138.916 64.896 139.62 65.599 139.62 66.466 L 139.62 70.141 C 139.62 71.008 138.916 71.712 138.049 71.712 L 117.951 71.712 C 117.084 71.712 116.38 71.008 116.38 70.141 L 116.38 66.466 C 116.38 65.599 117.084 64.896 117.951 64.896 Z " fill-rule="evenodd" fill="rgb(255,255,255)"/></g></svg>