<?xml version="1.0" encoding="UTF-8" standalone="no"?><!-- Generator: Gravit.io --><svg xmlns="http://www.w3.org/2000/svg" xmlns:xlink="http://www.w3.org/1999/xlink" style="isolation:isolate" viewBox="0 0 348 96" width="348pt" height="96pt"><g><path d="M 14.72 0 L 333.28 0 C 341.404 0 348 6.596 348 14.72 L 348 81.28 C 348 89.404 341.404 96 333.28 96 L 14.72 96 C 6.596 96 0 89.404 0 81.28 L 0 14.72 C 0 6.596 6.596 0 14.72 0 Z" style="stroke:none;fill:#FFFFFF;stroke-miterlimit:10;"/><g><g><mask id="_mask_AUMdmyeJxmdbs27G51zR1LlgH4dy3483" x="-200%" y="-200%" width="400%" height="400%"><rect x="-200%" y="-200%" width="400%" height="400%" style="fill:white;"/><path d=" M 56.741 29.388 L 56.741 25.497 C 56.741 24.064 55.579 22.903 54.147 22.903 L 41.177 22.903 C 39.744 22.903 38.583 24.064 38.583 25.497 L 38.583 29.388" fill="black" stroke="none"/></mask><path d=" M 56.741 29.388 L 56.741 25.497 C 56.741 24.064 55.579 22.903 54.147 22.903 L 41.177 22.903 C 39.744 22.903 38.583 24.064 38.583 25.497 L 38.583 29.388" fill="none"/><path d=" M 56.741 29.388 L 56.741 25.497 C 56.741 24.064 55.579 22.903 54.147 22.903 L 41.177 22.903 C 39.744 22.903 38.583 24.064 38.583 25.497 L 38.583 29.388" fill="none" mask="url(#_mask_AUMdmyeJxmdbs27G51zR1LlgH4dy3483)" vector-effect="non-scaling-stroke" stroke-width="10" stroke="rgb(132,84,239)" stroke-linejoin="miter" stroke-linecap="round" stroke-miterlimit="10"/><path d=" M 76.196 56.625 L 19.128 56.625 C 16.983 56.625 15.237 54.879 15.237 52.734 L 15.237 74.782 C 15.237 76.928 16.983 78.673 19.128 78.673 L 76.196 78.673 C 78.341 78.673 80.086 76.928 80.086 74.782 L 80.086 52.734 C 80.086 54.879 78.341 56.625 76.196 56.625 Z " fill="rgb(132,84,239)"/><path d=" M 76.196 29.388 L 19.128 29.388 C 16.983 29.388 15.237 31.134 15.237 33.279 L 15.237 50.14 C 15.237 52.285 16.983 54.031 19.128 54.031 L 76.196 54.031 C 78.341 54.031 80.086 52.285 80.086 50.14 L 80.086 33.279 C 80.086 31.134 78.341 29.388 76.196 29.388 Z  M 47.662 51.437 C 46.229 51.436 45.067 50.274 45.068 48.841 C 45.068 47.408 46.23 46.247 47.663 46.247 C 49.096 46.248 50.257 47.41 50.257 48.843 C 50.257 50.276 49.095 51.437 47.662 51.437 L 47.662 51.437 Z " fill="rgb(132,84,239)"/></g><path d=" M 110.3 53.248 L 110.3 53.248 L 110.3 53.248 Q 107.29 53.248 105.291 51.958 L 105.291 51.958 L 105.291 51.958 Q 103.291 50.668 102.259 48.389 L 102.259 48.389 L 102.259 48.389 Q 101.227 46.11 101.055 43.1 L 101.055 43.1 L 105.355 41.939 L 105.355 41.939 Q 105.484 43.788 105.936 45.508 L 105.936 45.508 L 105.936 45.508 Q 106.387 47.228 107.419 48.325 L 107.419 48.325 L 107.419 48.325 Q 108.451 49.421 110.3 49.421 L 110.3 49.421 L 110.3 49.421 Q 112.192 49.421 113.16 48.368 L 113.16 48.368 L 113.16 48.368 Q 114.127 47.314 114.127 45.336 L 114.127 45.336 L 114.127 45.336 Q 114.127 42.971 113.052 41.531 L 113.052 41.531 L 113.052 41.531 Q 111.977 40.09 110.343 38.628 L 110.343 38.628 L 104.495 33.468 L 104.495 33.468 Q 102.775 31.963 101.958 30.179 L 101.958 30.179 L 101.958 30.179 Q 101.141 28.394 101.141 25.771 L 101.141 25.771 L 101.141 25.771 Q 101.141 21.944 103.334 19.837 L 103.334 19.837 L 103.334 19.837 Q 105.527 17.73 109.311 17.73 L 109.311 17.73 L 109.311 17.73 Q 111.375 17.73 112.945 18.268 L 112.945 18.268 L 112.945 18.268 Q 114.514 18.805 115.568 19.923 L 115.568 19.923 L 115.568 19.923 Q 116.621 21.041 117.245 22.74 L 117.245 22.74 L 117.245 22.74 Q 117.868 24.438 118.083 26.717 L 118.083 26.717 L 113.955 27.835 L 113.955 27.835 Q 113.826 26.115 113.439 24.675 L 113.439 24.675 L 113.439 24.675 Q 113.052 23.234 112.085 22.353 L 112.085 22.353 L 112.085 22.353 Q 111.117 21.471 109.311 21.471 L 109.311 21.471 L 109.311 21.471 Q 107.505 21.471 106.495 22.439 L 106.495 22.439 L 106.495 22.439 Q 105.484 23.406 105.484 25.298 L 105.484 25.298 L 105.484 25.298 Q 105.484 26.889 106.022 27.921 L 106.022 27.921 L 106.022 27.921 Q 106.559 28.953 107.763 30.028 L 107.763 30.028 L 113.654 35.188 L 113.654 35.188 Q 115.632 36.908 117.137 39.295 L 117.137 39.295 L 117.137 39.295 Q 118.642 41.681 118.642 44.949 L 118.642 44.949 L 118.642 44.949 Q 118.642 47.529 117.567 49.4 L 117.567 49.4 L 117.567 49.4 Q 116.492 51.27 114.622 52.259 L 114.622 52.259 L 114.622 52.259 Q 112.751 53.248 110.3 53.248 Z  M 128.661 53.205 L 128.661 53.205 L 128.661 53.205 Q 126.726 53.205 125.544 52.474 L 125.544 52.474 L 125.544 52.474 Q 124.361 51.743 123.824 50.41 L 123.824 50.41 L 123.824 50.41 Q 123.286 49.077 123.286 47.271 L 123.286 47.271 L 123.286 31.06 L 120.663 31.06 L 120.663 28.007 L 123.286 28.007 L 123.286 20.74 L 127.887 20.74 L 127.887 28.007 L 131.886 28.007 L 131.886 31.06 L 127.887 31.06 L 127.887 46.97 L 127.887 46.97 Q 127.887 48.432 128.36 49.056 L 128.36 49.056 L 128.36 49.056 Q 128.833 49.679 130.166 49.679 L 130.166 49.679 L 130.166 49.679 Q 130.51 49.679 130.962 49.636 L 130.962 49.636 L 130.962 49.636 Q 131.413 49.593 131.843 49.55 L 131.843 49.55 L 131.843 52.947 L 131.843 52.947 Q 130.983 53.076 130.252 53.141 L 130.252 53.141 L 130.252 53.141 Q 129.521 53.205 128.661 53.205 Z  M 140.013 52.861 L 135.412 52.861 L 135.412 28.007 L 140.013 28.007 L 140.013 31.533 L 140.013 31.533 Q 141.389 29.254 142.765 28.48 L 142.765 28.48 L 142.765 28.48 Q 144.141 27.706 145.517 27.706 L 145.517 27.706 L 145.517 27.706 Q 145.689 27.706 145.84 27.706 L 145.84 27.706 L 145.84 27.706 Q 145.99 27.706 146.248 27.749 L 146.248 27.749 L 146.248 32.823 L 146.248 32.823 Q 145.732 32.608 145.066 32.458 L 145.066 32.458 L 145.066 32.458 Q 144.399 32.307 143.711 32.307 L 143.711 32.307 L 143.711 32.307 Q 142.636 32.307 141.755 32.802 L 141.755 32.802 L 141.755 32.802 Q 140.873 33.296 140.013 34.715 L 140.013 34.715 L 140.013 52.861 L 140.013 52.861 Z  M 155.923 53.205 L 155.923 53.205 L 155.923 53.205 Q 153.171 53.205 151.58 52.087 L 151.58 52.087 L 151.58 52.087 Q 149.989 50.969 149.323 48.905 L 149.323 48.905 L 149.323 48.905 Q 148.656 46.841 148.656 44.046 L 148.656 44.046 L 148.656 36.822 L 148.656 36.822 Q 148.656 34.027 149.323 31.963 L 149.323 31.963 L 149.323 31.963 Q 149.989 29.899 151.58 28.781 L 151.58 28.781 L 151.58 28.781 Q 153.171 27.663 155.923 27.663 L 155.923 27.663 L 155.923 27.663 Q 158.675 27.663 160.245 28.781 L 160.245 28.781 L 160.245 28.781 Q 161.814 29.899 162.481 31.963 L 162.481 31.963 L 162.481 31.963 Q 163.147 34.027 163.147 36.822 L 163.147 36.822 L 163.147 44.046 L 163.147 44.046 Q 163.147 46.841 162.481 48.905 L 162.481 48.905 L 162.481 48.905 Q 161.814 50.969 160.245 52.087 L 160.245 52.087 L 160.245 52.087 Q 158.675 53.205 155.923 53.205 Z  M 155.923 49.808 L 155.923 49.808 L 155.923 49.808 Q 157.256 49.808 157.794 49.034 L 157.794 49.034 L 157.794 49.034 Q 158.331 48.26 158.439 46.992 L 158.439 46.992 L 158.439 46.992 Q 158.546 45.723 158.546 44.347 L 158.546 44.347 L 158.546 36.564 L 158.546 36.564 Q 158.546 35.145 158.439 33.898 L 158.439 33.898 L 158.439 33.898 Q 158.331 32.651 157.794 31.856 L 157.794 31.856 L 157.794 31.856 Q 157.256 31.06 155.923 31.06 L 155.923 31.06 L 155.923 31.06 Q 154.59 31.06 154.031 31.856 L 154.031 31.856 L 154.031 31.856 Q 153.472 32.651 153.365 33.898 L 153.365 33.898 L 153.365 33.898 Q 153.257 35.145 153.257 36.564 L 153.257 36.564 L 153.257 44.347 L 153.257 44.347 Q 153.257 45.723 153.365 46.992 L 153.365 46.992 L 153.365 46.992 Q 153.472 48.26 154.031 49.034 L 154.031 49.034 L 154.031 49.034 Q 154.59 49.808 155.923 49.808 Z  M 171.962 52.861 L 167.361 52.861 L 167.361 28.007 L 171.962 28.007 L 171.962 30.458 L 171.962 30.458 Q 173.209 29.297 174.714 28.48 L 174.714 28.48 L 174.714 28.48 Q 176.219 27.663 178.025 27.663 L 178.025 27.663 L 178.025 27.663 Q 179.53 27.663 180.326 28.437 L 180.326 28.437 L 180.326 28.437 Q 181.121 29.211 181.444 30.372 L 181.444 30.372 L 181.444 30.372 Q 181.766 31.533 181.766 32.737 L 181.766 32.737 L 181.766 52.861 L 177.165 52.861 L 177.165 34.07 L 177.165 34.07 Q 177.165 32.737 176.778 32.006 L 176.778 32.006 L 176.778 32.006 Q 176.391 31.275 175.187 31.275 L 175.187 31.275 L 175.187 31.275 Q 174.413 31.275 173.575 31.727 L 173.575 31.727 L 173.575 31.727 Q 172.736 32.178 171.962 32.823 L 171.962 32.823 L 171.962 52.861 L 171.962 52.861 Z  M 190.71 53.205 L 190.71 53.205 L 190.71 53.205 Q 189.248 53.205 188.13 52.367 L 188.13 52.367 L 188.13 52.367 Q 187.012 51.528 186.367 50.217 L 186.367 50.217 L 186.367 50.217 Q 185.722 48.905 185.722 47.443 L 185.722 47.443 L 185.722 47.443 Q 185.722 45.121 186.496 43.53 L 186.496 43.53 L 186.496 43.53 Q 187.27 41.939 188.625 40.843 L 188.625 40.843 L 188.625 40.843 Q 189.979 39.746 191.764 38.929 L 191.764 38.929 L 191.764 38.929 Q 193.548 38.112 195.526 37.338 L 195.526 37.338 L 195.526 35.575 L 195.526 35.575 Q 195.526 34.07 195.354 33.081 L 195.354 33.081 L 195.354 33.081 Q 195.182 32.092 194.645 31.598 L 194.645 31.598 L 194.645 31.598 Q 194.107 31.103 193.032 31.103 L 193.032 31.103 L 193.032 31.103 Q 192.086 31.103 191.506 31.533 L 191.506 31.533 L 191.506 31.533 Q 190.925 31.963 190.667 32.759 L 190.667 32.759 L 190.667 32.759 Q 190.409 33.554 190.409 34.629 L 190.409 34.629 L 190.409 35.876 L 185.851 35.704 L 185.851 35.704 Q 185.937 31.576 187.743 29.62 L 187.743 29.62 L 187.743 29.62 Q 189.549 27.663 193.333 27.663 L 193.333 27.663 L 193.333 27.663 Q 197.031 27.663 198.579 29.684 L 198.579 29.684 L 198.579 29.684 Q 200.127 31.705 200.127 35.532 L 200.127 35.532 L 200.127 46.884 L 200.127 46.884 Q 200.127 48.045 200.192 49.12 L 200.192 49.12 L 200.192 49.12 Q 200.256 50.195 200.364 51.12 L 200.364 51.12 L 200.364 51.12 Q 200.471 52.044 200.557 52.861 L 200.557 52.861 L 196.343 52.861 L 196.343 52.861 Q 196.214 52.173 196.021 51.12 L 196.021 51.12 L 196.021 51.12 Q 195.827 50.066 195.741 49.206 L 195.741 49.206 L 195.741 49.206 Q 195.311 50.668 194.086 51.937 L 194.086 51.937 L 194.086 51.937 Q 192.86 53.205 190.71 53.205 Z  M 192.516 49.249 L 192.516 49.249 L 192.516 49.249 Q 193.204 49.249 193.806 48.862 L 193.806 48.862 L 193.806 48.862 Q 194.408 48.475 194.881 47.981 L 194.881 47.981 L 194.881 47.981 Q 195.354 47.486 195.526 47.185 L 195.526 47.185 L 195.526 40.133 L 195.526 40.133 Q 194.451 40.735 193.505 41.337 L 193.505 41.337 L 193.505 41.337 Q 192.559 41.939 191.85 42.606 L 191.85 42.606 L 191.85 42.606 Q 191.14 43.272 190.732 44.111 L 190.732 44.111 L 190.732 44.111 Q 190.323 44.949 190.323 46.024 L 190.323 46.024 L 190.323 46.024 Q 190.323 47.529 190.882 48.389 L 190.882 48.389 L 190.882 48.389 Q 191.441 49.249 192.516 49.249 Z  M 209.802 52.861 L 204.943 52.861 L 204.943 18.031 L 218.402 18.031 L 218.402 21.514 L 209.802 21.514 L 209.802 33.124 L 216.467 33.124 L 216.467 36.564 L 209.802 36.564 L 209.802 52.861 L 209.802 52.861 Z  M 226.271 52.861 L 221.67 52.861 L 221.67 28.007 L 226.271 28.007 L 226.271 52.861 L 226.271 52.861 Z  M 226.271 24.309 L 221.67 24.309 L 221.67 19.493 L 226.271 19.493 L 226.271 24.309 L 226.271 24.309 Z  M 235.946 52.861 L 231.345 52.861 L 231.345 28.007 L 235.946 28.007 L 235.946 31.533 L 235.946 31.533 Q 237.322 29.254 238.698 28.48 L 238.698 28.48 L 238.698 28.48 Q 240.074 27.706 241.45 27.706 L 241.45 27.706 L 241.45 27.706 Q 241.622 27.706 241.773 27.706 L 241.773 27.706 L 241.773 27.706 Q 241.923 27.706 242.181 27.749 L 242.181 27.749 L 242.181 32.823 L 242.181 32.823 Q 241.665 32.608 240.999 32.458 L 240.999 32.458 L 240.999 32.458 Q 240.332 32.307 239.644 32.307 L 239.644 32.307 L 239.644 32.307 Q 238.569 32.307 237.688 32.802 L 237.688 32.802 L 237.688 32.802 Q 236.806 33.296 235.946 34.715 L 235.946 34.715 L 235.946 52.861 L 235.946 52.861 Z  M 249.276 52.861 L 245.019 52.861 L 245.019 28.007 L 249.276 28.007 L 249.276 30.372 L 249.276 30.372 Q 250.523 28.953 252.028 28.265 L 252.028 28.265 L 252.028 28.265 Q 253.533 27.577 255.124 27.577 L 255.124 27.577 L 255.124 27.577 Q 256.5 27.577 257.597 28.265 L 257.597 28.265 L 257.597 28.265 Q 258.693 28.953 259.166 30.716 L 259.166 30.716 L 259.166 30.716 Q 260.499 29.082 262.069 28.33 L 262.069 28.33 L 262.069 28.33 Q 263.638 27.577 265.358 27.577 L 265.358 27.577 L 265.358 27.577 Q 266.562 27.577 267.551 28.158 L 267.551 28.158 L 267.551 28.158 Q 268.54 28.738 269.142 30.007 L 269.142 30.007 L 269.142 30.007 Q 269.744 31.275 269.744 33.339 L 269.744 33.339 L 269.744 52.861 L 265.53 52.861 L 265.53 33.64 L 265.53 33.64 Q 265.53 31.834 264.95 31.211 L 264.95 31.211 L 264.95 31.211 Q 264.369 30.587 263.38 30.587 L 263.38 30.587 L 263.38 30.587 Q 262.434 30.587 261.402 31.125 L 261.402 31.125 L 261.402 31.125 Q 260.37 31.662 259.51 32.608 L 259.51 32.608 L 259.51 32.608 Q 259.51 32.78 259.51 32.952 L 259.51 32.952 L 259.51 32.952 Q 259.51 33.124 259.51 33.339 L 259.51 33.339 L 259.51 52.861 L 255.296 52.861 L 255.296 33.64 L 255.296 33.64 Q 255.296 31.834 254.716 31.211 L 254.716 31.211 L 254.716 31.211 Q 254.135 30.587 253.146 30.587 L 253.146 30.587 L 253.146 30.587 Q 252.2 30.587 251.19 31.125 L 251.19 31.125 L 251.19 31.125 Q 250.179 31.662 249.276 32.608 L 249.276 32.608 L 249.276 52.861 L 249.276 52.861 Z  M 281.096 53.205 L 281.096 53.205 L 281.096 53.205 Q 278.344 53.205 276.753 52.087 L 276.753 52.087 L 276.753 52.087 Q 275.162 50.969 274.496 48.905 L 274.496 48.905 L 274.496 48.905 Q 273.829 46.841 273.829 44.046 L 273.829 44.046 L 273.829 36.822 L 273.829 36.822 Q 273.829 34.027 274.496 31.963 L 274.496 31.963 L 274.496 31.963 Q 275.162 29.899 276.753 28.781 L 276.753 28.781 L 276.753 28.781 Q 278.344 27.663 281.096 27.663 L 281.096 27.663 L 281.096 27.663 Q 283.848 27.663 285.418 28.781 L 285.418 28.781 L 285.418 28.781 Q 286.987 29.899 287.654 31.963 L 287.654 31.963 L 287.654 31.963 Q 288.32 34.027 288.32 36.822 L 288.32 36.822 L 288.32 44.046 L 288.32 44.046 Q 288.32 46.841 287.654 48.905 L 287.654 48.905 L 287.654 48.905 Q 286.987 50.969 285.418 52.087 L 285.418 52.087 L 285.418 52.087 Q 283.848 53.205 281.096 53.205 Z  M 281.096 49.808 L 281.096 49.808 L 281.096 49.808 Q 282.429 49.808 282.967 49.034 L 282.967 49.034 L 282.967 49.034 Q 283.504 48.26 283.612 46.992 L 283.612 46.992 L 283.612 46.992 Q 283.719 45.723 283.719 44.347 L 283.719 44.347 L 283.719 36.564 L 283.719 36.564 Q 283.719 35.145 283.612 33.898 L 283.612 33.898 L 283.612 33.898 Q 283.504 32.651 282.967 31.856 L 282.967 31.856 L 282.967 31.856 Q 282.429 31.06 281.096 31.06 L 281.096 31.06 L 281.096 31.06 Q 279.763 31.06 279.204 31.856 L 279.204 31.856 L 279.204 31.856 Q 278.645 32.651 278.538 33.898 L 278.538 33.898 L 278.538 33.898 Q 278.43 35.145 278.43 36.564 L 278.43 36.564 L 278.43 44.347 L 278.43 44.347 Q 278.43 45.723 278.538 46.992 L 278.538 46.992 L 278.538 46.992 Q 278.645 48.26 279.204 49.034 L 279.204 49.034 L 279.204 49.034 Q 279.763 49.808 281.096 49.808 Z  M 299.199 52.861 L 295.071 52.861 L 291.072 28.007 L 294.856 28.007 L 297.436 46.325 L 300.747 28.007 L 304.273 28.007 L 307.584 46.239 L 310.164 28.007 L 313.948 28.007 L 309.82 52.861 L 305.95 52.861 L 302.553 35.317 L 299.199 52.861 L 299.199 52.861 Z  M 321.946 53.205 L 321.946 53.205 L 321.946 53.205 Q 320.484 53.205 319.366 52.367 L 319.366 52.367 L 319.366 52.367 Q 318.248 51.528 317.603 50.217 L 317.603 50.217 L 317.603 50.217 Q 316.958 48.905 316.958 47.443 L 316.958 47.443 L 316.958 47.443 Q 316.958 45.121 317.732 43.53 L 317.732 43.53 L 317.732 43.53 Q 318.506 41.939 319.861 40.843 L 319.861 40.843 L 319.861 40.843 Q 321.215 39.746 323 38.929 L 323 38.929 L 323 38.929 Q 324.784 38.112 326.762 37.338 L 326.762 37.338 L 326.762 35.575 L 326.762 35.575 Q 326.762 34.07 326.59 33.081 L 326.59 33.081 L 326.59 33.081 Q 326.418 32.092 325.881 31.598 L 325.881 31.598 L 325.881 31.598 Q 325.343 31.103 324.268 31.103 L 324.268 31.103 L 324.268 31.103 Q 323.322 31.103 322.742 31.533 L 322.742 31.533 L 322.742 31.533 Q 322.161 31.963 321.903 32.759 L 321.903 32.759 L 321.903 32.759 Q 321.645 33.554 321.645 34.629 L 321.645 34.629 L 321.645 35.876 L 317.087 35.704 L 317.087 35.704 Q 317.173 31.576 318.979 29.62 L 318.979 29.62 L 318.979 29.62 Q 320.785 27.663 324.569 27.663 L 324.569 27.663 L 324.569 27.663 Q 328.267 27.663 329.815 29.684 L 329.815 29.684 L 329.815 29.684 Q 331.363 31.705 331.363 35.532 L 331.363 35.532 L 331.363 46.884 L 331.363 46.884 Q 331.363 48.045 331.428 49.12 L 331.428 49.12 L 331.428 49.12 Q 331.492 50.195 331.6 51.12 L 331.6 51.12 L 331.6 51.12 Q 331.707 52.044 331.793 52.861 L 331.793 52.861 L 327.579 52.861 L 327.579 52.861 Q 327.45 52.173 327.257 51.12 L 327.257 51.12 L 327.257 51.12 Q 327.063 50.066 326.977 49.206 L 326.977 49.206 L 326.977 49.206 Q 326.547 50.668 325.322 51.937 L 325.322 51.937 L 325.322 51.937 Q 324.096 53.205 321.946 53.205 Z  M 323.752 49.249 L 323.752 49.249 L 323.752 49.249 Q 324.44 49.249 325.042 48.862 L 325.042 48.862 L 325.042 48.862 Q 325.644 48.475 326.117 47.981 L 326.117 47.981 L 326.117 47.981 Q 326.59 47.486 326.762 47.185 L 326.762 47.185 L 326.762 40.133 L 326.762 40.133 Q 325.687 40.735 324.741 41.337 L 324.741 41.337 L 324.741 41.337 Q 323.795 41.939 323.086 42.606 L 323.086 42.606 L 323.086 42.606 Q 322.376 43.272 321.968 44.111 L 321.968 44.111 L 321.968 44.111 Q 321.559 44.949 321.559 46.024 L 321.559 46.024 L 321.559 46.024 Q 321.559 47.529 322.118 48.389 L 322.118 48.389 L 322.118 48.389 Q 322.677 49.249 323.752 49.249 Z " fill="rgb(53,157,237)"/><path d=" M 290.249 78.083 L 290.249 78.083 L 290.249 78.083 Q 288.836 78.083 287.979 77.193 L 287.979 77.193 L 287.979 77.193 Q 287.123 76.303 287.004 74.843 L 287.004 74.843 L 288.776 74.303 L 288.776 74.303 Q 288.935 75.403 289.314 75.953 L 289.314 75.953 L 289.314 75.953 Q 289.692 76.503 290.429 76.503 L 290.429 76.503 L 290.429 76.503 Q 291.006 76.503 291.305 76.173 L 291.305 76.173 L 291.305 76.173 Q 291.604 75.843 291.604 75.283 L 291.604 75.283 L 291.604 75.283 Q 291.604 74.783 291.385 74.383 L 291.385 74.383 L 291.385 74.383 Q 291.165 73.983 290.668 73.563 L 290.668 73.563 L 288.696 71.863 L 288.696 71.863 Q 288.099 71.343 287.691 70.703 L 287.691 70.703 L 287.691 70.703 Q 287.282 70.063 287.282 69.043 L 287.282 69.043 L 287.282 69.043 Q 287.282 68.123 287.651 67.493 L 287.651 67.493 L 287.651 67.493 Q 288.019 66.863 288.686 66.533 L 288.686 66.533 L 288.686 66.533 Q 289.353 66.203 290.249 66.203 L 290.249 66.203 L 290.249 66.203 Q 291.623 66.203 292.35 67.093 L 292.35 67.093 L 292.35 67.093 Q 293.077 67.983 293.177 69.243 L 293.177 69.243 L 291.743 69.783 L 291.743 69.783 Q 291.663 69.183 291.504 68.733 L 291.504 68.733 L 291.504 68.733 Q 291.345 68.283 291.066 68.033 L 291.066 68.033 L 291.066 68.033 Q 290.787 67.783 290.329 67.783 L 290.329 67.783 L 290.329 67.783 Q 289.811 67.783 289.503 68.133 L 289.503 68.133 L 289.503 68.133 Q 289.194 68.483 289.194 68.963 L 289.194 68.963 L 289.194 68.963 Q 289.194 69.263 289.323 69.553 L 289.323 69.553 L 289.323 69.553 Q 289.453 69.843 289.772 70.123 L 289.772 70.123 L 291.803 72.003 L 291.803 72.003 Q 292.221 72.383 292.589 72.823 L 292.589 72.823 L 292.589 72.823 Q 292.958 73.263 293.197 73.823 L 293.197 73.823 L 293.197 73.823 Q 293.436 74.383 293.436 75.123 L 293.436 75.123 L 293.436 75.123 Q 293.436 76.103 293.037 76.763 L 293.037 76.763 L 293.037 76.763 Q 292.639 77.423 291.922 77.753 L 291.922 77.753 L 291.922 77.753 Q 291.205 78.083 290.249 78.083 Z  M 298.095 78.083 L 298.095 78.083 L 298.095 78.083 Q 297.199 78.083 296.652 77.743 L 296.652 77.743 L 296.652 77.743 Q 296.104 77.403 295.855 76.783 L 295.855 76.783 L 295.855 76.783 Q 295.606 76.163 295.606 75.323 L 295.606 75.323 L 295.606 67.783 L 294.391 67.783 L 294.391 66.363 L 295.606 66.363 L 295.606 62.983 L 297.737 62.983 L 297.737 66.363 L 299.589 66.363 L 299.589 67.783 L 297.737 67.783 L 297.737 75.183 L 297.737 75.183 Q 297.737 75.863 297.956 76.153 L 297.956 76.153 L 297.956 76.153 Q 298.175 76.443 298.792 76.443 L 298.792 76.443 L 298.792 76.443 Q 298.952 76.443 299.161 76.423 L 299.161 76.423 L 299.161 76.423 Q 299.37 76.403 299.569 76.383 L 299.569 76.383 L 299.569 77.963 L 299.569 77.963 Q 299.171 78.023 298.832 78.053 L 298.832 78.053 L 298.832 78.053 Q 298.494 78.083 298.095 78.083 Z  M 303.352 77.923 L 301.222 77.923 L 301.222 66.363 L 303.352 66.363 L 303.352 68.003 L 303.352 68.003 Q 303.99 66.943 304.627 66.583 L 304.627 66.583 L 304.627 66.583 Q 305.264 66.223 305.901 66.223 L 305.901 66.223 L 305.901 66.223 Q 305.981 66.223 306.051 66.223 L 306.051 66.223 L 306.051 66.223 Q 306.12 66.223 306.24 66.243 L 306.24 66.243 L 306.24 68.603 L 306.24 68.603 Q 306.001 68.503 305.692 68.433 L 305.692 68.433 L 305.692 68.433 Q 305.384 68.363 305.065 68.363 L 305.065 68.363 L 305.065 68.363 Q 304.567 68.363 304.159 68.593 L 304.159 68.593 L 304.159 68.593 Q 303.751 68.823 303.352 69.483 L 303.352 69.483 L 303.352 77.923 L 303.352 77.923 Z  M 310.72 78.083 L 310.72 78.083 L 310.72 78.083 Q 309.446 78.083 308.709 77.563 L 308.709 77.563 L 308.709 77.563 Q 307.972 77.043 307.664 76.083 L 307.664 76.083 L 307.664 76.083 Q 307.355 75.123 307.355 73.823 L 307.355 73.823 L 307.355 70.463 L 307.355 70.463 Q 307.355 69.163 307.664 68.203 L 307.664 68.203 L 307.664 68.203 Q 307.972 67.243 308.709 66.723 L 308.709 66.723 L 308.709 66.723 Q 309.446 66.203 310.72 66.203 L 310.72 66.203 L 310.72 66.203 Q 311.995 66.203 312.722 66.723 L 312.722 66.723 L 312.722 66.723 Q 313.448 67.243 313.757 68.203 L 313.757 68.203 L 313.757 68.203 Q 314.066 69.163 314.066 70.463 L 314.066 70.463 L 314.066 73.823 L 314.066 73.823 Q 314.066 75.123 313.757 76.083 L 313.757 76.083 L 313.757 76.083 Q 313.448 77.043 312.722 77.563 L 312.722 77.563 L 312.722 77.563 Q 311.995 78.083 310.72 78.083 Z  M 310.72 76.503 L 310.72 76.503 L 310.72 76.503 Q 311.338 76.503 311.587 76.143 L 311.587 76.143 L 311.587 76.143 Q 311.835 75.783 311.885 75.193 L 311.885 75.193 L 311.885 75.193 Q 311.935 74.603 311.935 73.963 L 311.935 73.963 L 311.935 70.343 L 311.935 70.343 Q 311.935 69.683 311.885 69.103 L 311.885 69.103 L 311.885 69.103 Q 311.835 68.523 311.587 68.153 L 311.587 68.153 L 311.587 68.153 Q 311.338 67.783 310.72 67.783 L 310.72 67.783 L 310.72 67.783 Q 310.103 67.783 309.844 68.153 L 309.844 68.153 L 309.844 68.153 Q 309.585 68.523 309.535 69.103 L 309.535 69.103 L 309.535 69.103 Q 309.486 69.683 309.486 70.343 L 309.486 70.343 L 309.486 73.963 L 309.486 73.963 Q 309.486 74.603 309.535 75.193 L 309.535 75.193 L 309.535 75.193 Q 309.585 75.783 309.844 76.143 L 309.844 76.143 L 309.844 76.143 Q 310.103 76.503 310.72 76.503 Z  M 318.148 77.923 L 316.017 77.923 L 316.017 66.363 L 318.148 66.363 L 318.148 67.503 L 318.148 67.503 Q 318.725 66.963 319.422 66.583 L 319.422 66.583 L 319.422 66.583 Q 320.119 66.203 320.956 66.203 L 320.956 66.203 L 320.956 66.203 Q 321.653 66.203 322.021 66.563 L 322.021 66.563 L 322.021 66.563 Q 322.39 66.923 322.539 67.463 L 322.539 67.463 L 322.539 67.463 Q 322.688 68.003 322.688 68.563 L 322.688 68.563 L 322.688 77.923 L 320.558 77.923 L 320.558 69.183 L 320.558 69.183 Q 320.558 68.563 320.378 68.223 L 320.378 68.223 L 320.378 68.223 Q 320.199 67.883 319.642 67.883 L 319.642 67.883 L 319.642 67.883 Q 319.283 67.883 318.895 68.093 L 318.895 68.093 L 318.895 68.093 Q 318.506 68.303 318.148 68.603 L 318.148 68.603 L 318.148 77.923 L 318.148 77.923 Z  M 324.839 80.823 L 324.58 80.823 L 324.58 79.183 L 324.58 79.183 Q 325.357 79.183 325.815 79.113 L 325.815 79.113 L 325.815 79.113 Q 326.273 79.043 326.472 78.853 L 326.472 78.853 L 326.472 78.853 Q 326.671 78.663 326.671 78.323 L 326.671 78.323 L 326.671 78.323 Q 326.671 78.143 326.532 77.523 L 326.532 77.523 L 326.532 77.523 Q 326.392 76.903 326.233 76.203 L 326.233 76.203 L 323.923 66.363 L 326.074 66.363 L 327.627 75.003 L 329.12 66.363 L 331.271 66.363 L 328.523 78.563 L 328.523 78.563 Q 328.344 79.403 327.866 79.893 L 327.866 79.893 L 327.866 79.893 Q 327.388 80.383 326.641 80.603 L 326.641 80.603 L 326.641 80.603 Q 325.894 80.823 324.839 80.823 L 324.839 80.823 L 324.839 80.823 Z  M 240.406 78.083 L 240.406 78.083 L 240.406 78.083 Q 238.953 78.083 238.236 77.013 L 238.236 77.013 L 238.236 77.013 Q 237.519 75.943 237.519 73.383 L 237.519 73.383 L 237.519 71.143 L 237.519 71.143 Q 237.519 69.823 237.738 68.693 L 237.738 68.693 L 237.738 68.693 Q 237.957 67.563 238.564 66.883 L 238.564 66.883 L 238.564 66.883 Q 239.172 66.203 240.347 66.203 L 240.347 66.203 L 240.347 66.203 Q 240.924 66.203 241.402 66.463 L 241.402 66.463 L 241.402 66.463 Q 241.88 66.723 242.258 67.103 L 242.258 67.103 L 242.258 61.723 L 244.389 61.723 L 244.389 77.923 L 242.258 77.923 L 242.258 77.183 L 242.258 77.183 Q 241.88 77.583 241.432 77.833 L 241.432 77.833 L 241.432 77.833 Q 240.984 78.083 240.406 78.083 Z  M 240.944 76.403 L 240.944 76.403 L 240.944 76.403 Q 241.243 76.403 241.581 76.293 L 241.581 76.293 L 241.581 76.293 Q 241.92 76.183 242.258 75.963 L 242.258 75.963 L 242.258 68.383 L 242.258 68.383 Q 241.98 68.183 241.641 68.033 L 241.641 68.033 L 241.641 68.033 Q 241.303 67.883 240.904 67.883 L 240.904 67.883 L 240.904 67.883 Q 240.167 67.883 239.909 68.593 L 239.909 68.593 L 239.909 68.593 Q 239.65 69.303 239.65 70.303 L 239.65 70.303 L 239.65 73.563 L 239.65 73.563 Q 239.65 74.363 239.739 75.013 L 239.739 75.013 L 239.739 75.013 Q 239.829 75.663 240.108 76.033 L 240.108 76.033 L 240.108 76.033 Q 240.387 76.403 240.944 76.403 Z  M 249.706 78.083 L 249.706 78.083 L 249.706 78.083 Q 248.431 78.083 247.695 77.563 L 247.695 77.563 L 247.695 77.563 Q 246.958 77.043 246.649 76.083 L 246.649 76.083 L 246.649 76.083 Q 246.341 75.123 246.341 73.823 L 246.341 73.823 L 246.341 70.463 L 246.341 70.463 Q 246.341 69.163 246.649 68.203 L 246.649 68.203 L 246.649 68.203 Q 246.958 67.243 247.695 66.723 L 247.695 66.723 L 247.695 66.723 Q 248.431 66.203 249.706 66.203 L 249.706 66.203 L 249.706 66.203 Q 250.98 66.203 251.707 66.723 L 251.707 66.723 L 251.707 66.723 Q 252.434 67.243 252.743 68.203 L 252.743 68.203 L 252.743 68.203 Q 253.051 69.163 253.051 70.463 L 253.051 70.463 L 253.051 73.823 L 253.051 73.823 Q 253.051 75.123 252.743 76.083 L 252.743 76.083 L 252.743 76.083 Q 252.434 77.043 251.707 77.563 L 251.707 77.563 L 251.707 77.563 Q 250.98 78.083 249.706 78.083 Z  M 249.706 76.503 L 249.706 76.503 L 249.706 76.503 Q 250.323 76.503 250.572 76.143 L 250.572 76.143 L 250.572 76.143 Q 250.821 75.783 250.871 75.193 L 250.871 75.193 L 250.871 75.193 Q 250.921 74.603 250.921 73.963 L 250.921 73.963 L 250.921 70.343 L 250.921 70.343 Q 250.921 69.683 250.871 69.103 L 250.871 69.103 L 250.871 69.103 Q 250.821 68.523 250.572 68.153 L 250.572 68.153 L 250.572 68.153 Q 250.323 67.783 249.706 67.783 L 249.706 67.783 L 249.706 67.783 Q 249.089 67.783 248.83 68.153 L 248.83 68.153 L 248.83 68.153 Q 248.571 68.523 248.521 69.103 L 248.521 69.103 L 248.521 69.103 Q 248.471 69.683 248.471 70.343 L 248.471 70.343 L 248.471 73.963 L 248.471 73.963 Q 248.471 74.603 248.521 75.193 L 248.521 75.193 L 248.521 75.193 Q 248.571 75.783 248.83 76.143 L 248.83 76.143 L 248.83 76.143 Q 249.089 76.503 249.706 76.503 Z  M 259.125 78.083 L 259.125 78.083 L 259.125 78.083 Q 258.508 78.083 258.02 77.773 L 258.02 77.773 L 258.02 77.773 Q 257.532 77.463 257.173 77.083 L 257.173 77.083 L 257.173 77.923 L 255.043 77.923 L 255.043 61.723 L 257.173 61.723 L 257.173 67.283 L 257.173 67.283 Q 257.552 66.843 258.079 66.523 L 258.079 66.523 L 258.079 66.523 Q 258.607 66.203 259.344 66.203 L 259.344 66.203 L 259.344 66.203 Q 260.24 66.203 260.768 66.673 L 260.768 66.673 L 260.768 66.673 Q 261.295 67.143 261.554 67.853 L 261.554 67.853 L 261.554 67.853 Q 261.813 68.563 261.893 69.293 L 261.893 69.293 L 261.893 69.293 Q 261.973 70.023 261.973 70.543 L 261.973 70.543 L 261.973 73.343 L 261.973 73.343 Q 261.973 74.563 261.734 75.653 L 261.734 75.653 L 261.734 75.653 Q 261.495 76.743 260.877 77.413 L 260.877 77.413 L 260.877 77.413 Q 260.26 78.083 259.125 78.083 Z  M 258.687 76.403 L 258.687 76.403 L 258.687 76.403 Q 259.244 76.403 259.483 75.993 L 259.483 75.993 L 259.483 75.993 Q 259.722 75.583 259.782 74.883 L 259.782 74.883 L 259.782 74.883 Q 259.842 74.183 259.842 73.343 L 259.842 73.343 L 259.842 70.543 L 259.842 70.543 Q 259.842 69.823 259.762 69.213 L 259.762 69.213 L 259.762 69.213 Q 259.683 68.603 259.424 68.243 L 259.424 68.243 L 259.424 68.243 Q 259.165 67.883 258.607 67.883 L 258.607 67.883 L 258.607 67.883 Q 258.189 67.883 257.821 68.063 L 257.821 68.063 L 257.821 68.063 Q 257.452 68.243 257.173 68.463 L 257.173 68.463 L 257.173 75.883 L 257.173 75.883 Q 257.452 76.103 257.841 76.253 L 257.841 76.253 L 257.841 76.253 Q 258.229 76.403 258.687 76.403 Z  M 266.095 77.923 L 263.964 77.923 L 263.964 66.363 L 266.095 66.363 L 266.095 68.003 L 266.095 68.003 Q 266.732 66.943 267.369 66.583 L 267.369 66.583 L 267.369 66.583 Q 268.006 66.223 268.643 66.223 L 268.643 66.223 L 268.643 66.223 Q 268.723 66.223 268.793 66.223 L 268.793 66.223 L 268.793 66.223 Q 268.863 66.223 268.982 66.243 L 268.982 66.243 L 268.982 68.603 L 268.982 68.603 Q 268.743 68.503 268.434 68.433 L 268.434 68.433 L 268.434 68.433 Q 268.126 68.363 267.807 68.363 L 267.807 68.363 L 267.807 68.363 Q 267.309 68.363 266.901 68.593 L 266.901 68.593 L 266.901 68.593 Q 266.493 68.823 266.095 69.483 L 266.095 69.483 L 266.095 77.923 L 266.095 77.923 Z  M 273.482 78.083 L 273.482 78.083 L 273.482 78.083 Q 272.128 78.083 271.392 77.553 L 271.392 77.553 L 271.392 77.553 Q 270.655 77.023 270.366 75.993 L 270.366 75.993 L 270.366 75.993 Q 270.077 74.963 270.077 73.463 L 270.077 73.463 L 270.077 70.823 L 270.077 70.823 Q 270.077 69.283 270.376 68.263 L 270.376 68.263 L 270.376 68.263 Q 270.675 67.243 271.421 66.723 L 271.421 66.723 L 271.421 66.723 Q 272.168 66.203 273.482 66.203 L 273.482 66.203 L 273.482 66.203 Q 274.936 66.203 275.623 66.803 L 275.623 66.803 L 275.623 66.803 Q 276.31 67.403 276.529 68.533 L 276.529 68.533 L 276.529 68.533 Q 276.748 69.663 276.748 71.243 L 276.748 71.243 L 276.748 72.183 L 272.208 72.183 L 272.208 74.503 L 272.208 74.503 Q 272.208 75.203 272.337 75.643 L 272.337 75.643 L 272.337 75.643 Q 272.467 76.083 272.756 76.293 L 272.756 76.293 L 272.756 76.293 Q 273.044 76.503 273.502 76.503 L 273.502 76.503 L 273.502 76.503 Q 273.98 76.503 274.229 76.273 L 274.229 76.273 L 274.229 76.273 Q 274.478 76.043 274.568 75.613 L 274.568 75.613 L 274.568 75.613 Q 274.657 75.183 274.657 74.603 L 274.657 74.603 L 274.657 73.903 L 276.728 73.903 L 276.728 74.343 L 276.728 74.343 Q 276.728 76.083 275.992 77.083 L 275.992 77.083 L 275.992 77.083 Q 275.255 78.083 273.482 78.083 Z  M 272.208 70.403 L 272.208 71.023 L 274.657 71.023 L 274.657 69.983 L 274.657 69.983 Q 274.657 69.263 274.578 68.773 L 274.578 68.773 L 274.578 68.773 Q 274.498 68.283 274.249 68.033 L 274.249 68.033 L 274.249 68.033 Q 274 67.783 273.463 67.783 L 273.463 67.783 L 273.463 67.783 Q 272.945 67.783 272.676 68.023 L 272.676 68.023 L 272.676 68.023 Q 272.407 68.263 272.308 68.833 L 272.308 68.833 L 272.308 68.833 Q 272.208 69.403 272.208 70.403 L 272.208 70.403 L 272.208 70.403 Z  M 278.082 80.843 L 278.082 80.843 L 278.082 80.843 Q 277.824 80.843 277.515 80.813 L 277.515 80.813 L 277.515 80.813 Q 277.206 80.783 276.987 80.703 L 276.987 80.703 L 276.987 79.163 L 276.987 79.163 Q 277.087 79.183 277.266 79.203 L 277.266 79.203 L 277.266 79.203 Q 277.445 79.223 277.545 79.223 L 277.545 79.223 L 277.545 79.223 Q 278.003 79.223 278.262 79.043 L 278.262 79.043 L 278.262 79.043 Q 278.521 78.863 278.63 78.543 L 278.63 78.543 L 278.63 78.543 Q 278.74 78.223 278.74 77.823 L 278.74 77.823 L 278.74 66.363 L 280.87 66.363 L 280.87 78.043 L 280.87 78.043 Q 280.87 79.403 280.124 80.123 L 280.124 80.123 L 280.124 80.123 Q 279.377 80.843 278.082 80.843 Z  M 280.89 64.643 L 278.74 64.643 L 278.74 62.403 L 280.89 62.403 L 280.89 64.643 L 280.89 64.643 Z  M 231.565 77.923 L 225.83 77.923 L 225.83 76.483 L 229.355 67.963 L 226.188 67.963 L 226.188 66.363 L 231.645 66.363 L 231.645 67.523 L 228.1 76.303 L 231.565 76.303 L 231.565 77.923 L 231.565 77.923 Z  M 191.24 78.083 L 191.24 78.083 L 191.24 78.083 Q 189.827 78.083 188.97 77.193 L 188.97 77.193 L 188.97 77.193 Q 188.114 76.303 187.995 74.843 L 187.995 74.843 L 189.767 74.303 L 189.767 74.303 Q 189.926 75.403 190.305 75.953 L 190.305 75.953 L 190.305 75.953 Q 190.683 76.503 191.42 76.503 L 191.42 76.503 L 191.42 76.503 Q 191.997 76.503 192.296 76.173 L 192.296 76.173 L 192.296 76.173 Q 192.595 75.843 192.595 75.283 L 192.595 75.283 L 192.595 75.283 Q 192.595 74.783 192.376 74.383 L 192.376 74.383 L 192.376 74.383 Q 192.156 73.983 191.659 73.563 L 191.659 73.563 L 189.687 71.863 L 189.687 71.863 Q 189.09 71.343 188.682 70.703 L 188.682 70.703 L 188.682 70.703 Q 188.273 70.063 188.273 69.043 L 188.273 69.043 L 188.273 69.043 Q 188.273 68.123 188.642 67.493 L 188.642 67.493 L 188.642 67.493 Q 189.01 66.863 189.677 66.533 L 189.677 66.533 L 189.677 66.533 Q 190.344 66.203 191.24 66.203 L 191.24 66.203 L 191.24 66.203 Q 192.614 66.203 193.341 67.093 L 193.341 67.093 L 193.341 67.093 Q 194.068 67.983 194.168 69.243 L 194.168 69.243 L 192.734 69.783 L 192.734 69.783 Q 192.654 69.183 192.495 68.733 L 192.495 68.733 L 192.495 68.733 Q 192.336 68.283 192.057 68.033 L 192.057 68.033 L 192.057 68.033 Q 191.778 67.783 191.32 67.783 L 191.32 67.783 L 191.32 67.783 Q 190.802 67.783 190.494 68.133 L 190.494 68.133 L 190.494 68.133 Q 190.185 68.483 190.185 68.963 L 190.185 68.963 L 190.185 68.963 Q 190.185 69.263 190.314 69.553 L 190.314 69.553 L 190.314 69.553 Q 190.444 69.843 190.763 70.123 L 190.763 70.123 L 192.794 72.003 L 192.794 72.003 Q 193.212 72.383 193.58 72.823 L 193.58 72.823 L 193.58 72.823 Q 193.949 73.263 194.188 73.823 L 194.188 73.823 L 194.188 73.823 Q 194.427 74.383 194.427 75.123 L 194.427 75.123 L 194.427 75.123 Q 194.427 76.103 194.028 76.763 L 194.028 76.763 L 194.028 76.763 Q 193.63 77.423 192.913 77.753 L 192.913 77.753 L 192.913 77.753 Q 192.196 78.083 191.24 78.083 Z  M 198.29 77.923 L 196.159 77.923 L 196.159 66.363 L 198.29 66.363 L 198.29 77.923 L 198.29 77.923 Z  M 198.29 64.643 L 196.159 64.643 L 196.159 62.403 L 198.29 62.403 L 198.29 64.643 L 198.29 64.643 Z  M 203.766 78.083 L 203.766 78.083 L 203.766 78.083 Q 202.412 78.083 201.675 77.553 L 201.675 77.553 L 201.675 77.553 Q 200.938 77.023 200.649 75.993 L 200.649 75.993 L 200.649 75.993 Q 200.361 74.963 200.361 73.463 L 200.361 73.463 L 200.361 70.823 L 200.361 70.823 Q 200.361 69.283 200.659 68.263 L 200.659 68.263 L 200.659 68.263 Q 200.958 67.243 201.705 66.723 L 201.705 66.723 L 201.705 66.723 Q 202.452 66.203 203.766 66.203 L 203.766 66.203 L 203.766 66.203 Q 205.22 66.203 205.907 66.803 L 205.907 66.803 L 205.907 66.803 Q 206.594 67.403 206.813 68.533 L 206.813 68.533 L 206.813 68.533 Q 207.032 69.663 207.032 71.243 L 207.032 71.243 L 207.032 72.183 L 202.491 72.183 L 202.491 74.503 L 202.491 74.503 Q 202.491 75.203 202.621 75.643 L 202.621 75.643 L 202.621 75.643 Q 202.75 76.083 203.039 76.293 L 203.039 76.293 L 203.039 76.293 Q 203.328 76.503 203.786 76.503 L 203.786 76.503 L 203.786 76.503 Q 204.264 76.503 204.513 76.273 L 204.513 76.273 L 204.513 76.273 Q 204.762 76.043 204.851 75.613 L 204.851 75.613 L 204.851 75.613 Q 204.941 75.183 204.941 74.603 L 204.941 74.603 L 204.941 73.903 L 207.012 73.903 L 207.012 74.343 L 207.012 74.343 Q 207.012 76.083 206.275 77.083 L 206.275 77.083 L 206.275 77.083 Q 205.538 78.083 203.766 78.083 Z  M 202.491 70.403 L 202.491 71.023 L 204.941 71.023 L 204.941 69.983 L 204.941 69.983 Q 204.941 69.263 204.861 68.773 L 204.861 68.773 L 204.861 68.773 Q 204.781 68.283 204.533 68.033 L 204.533 68.033 L 204.533 68.033 Q 204.284 67.783 203.746 67.783 L 203.746 67.783 L 203.746 67.783 Q 203.228 67.783 202.959 68.023 L 202.959 68.023 L 202.959 68.023 Q 202.691 68.263 202.591 68.833 L 202.591 68.833 L 202.591 68.833 Q 202.491 69.403 202.491 70.403 L 202.491 70.403 L 202.491 70.403 Z  M 212.11 78.083 L 212.11 78.083 L 212.11 78.083 Q 210.696 78.083 209.969 77.513 L 209.969 77.513 L 209.969 77.513 Q 209.242 76.943 208.993 75.903 L 208.993 75.903 L 208.993 75.903 Q 208.744 74.863 208.744 73.483 L 208.744 73.483 L 208.744 70.823 L 208.744 70.823 Q 208.744 69.363 209.003 68.333 L 209.003 68.333 L 209.003 68.333 Q 209.262 67.303 209.989 66.753 L 209.989 66.753 L 209.989 66.753 Q 210.716 66.203 212.11 66.203 L 212.11 66.203 L 212.11 66.203 Q 213.364 66.203 214.051 66.613 L 214.051 66.613 L 214.051 66.613 Q 214.738 67.023 214.997 67.833 L 214.997 67.833 L 214.997 67.833 Q 215.256 68.643 215.256 69.843 L 215.256 69.843 L 215.256 70.523 L 213.324 70.523 L 213.324 69.823 L 213.324 69.823 Q 213.324 69.063 213.225 68.623 L 213.225 68.623 L 213.225 68.623 Q 213.125 68.183 212.866 67.983 L 212.866 67.983 L 212.866 67.983 Q 212.607 67.783 212.13 67.783 L 212.13 67.783 L 212.13 67.783 Q 211.612 67.783 211.333 68.023 L 211.333 68.023 L 211.333 68.023 Q 211.054 68.263 210.965 68.833 L 210.965 68.833 L 210.965 68.833 Q 210.875 69.403 210.875 70.383 L 210.875 70.383 L 210.875 74.023 L 210.875 74.023 Q 210.875 75.503 211.154 76.003 L 211.154 76.003 L 211.154 76.003 Q 211.433 76.503 212.149 76.503 L 212.149 76.503 L 212.149 76.503 Q 212.687 76.503 212.936 76.253 L 212.936 76.253 L 212.936 76.253 Q 213.185 76.003 213.255 75.543 L 213.255 75.543 L 213.255 75.543 Q 213.324 75.083 213.324 74.503 L 213.324 74.503 L 213.324 73.563 L 215.256 73.563 L 215.256 74.363 L 215.256 74.363 Q 215.256 75.523 214.987 76.363 L 214.987 76.363 L 214.987 76.363 Q 214.718 77.203 214.031 77.643 L 214.031 77.643 L 214.031 77.643 Q 213.344 78.083 212.11 78.083 Z  M 219.418 77.923 L 217.287 77.923 L 217.287 66.363 L 219.418 66.363 L 219.418 77.923 L 219.418 77.923 Z  M 219.418 64.643 L 217.287 64.643 L 217.287 62.403 L 219.418 62.403 L 219.418 64.643 L 219.418 64.643 Z  M 175.549 77.923 L 173.637 77.923 L 171.785 66.363 L 173.538 66.363 L 174.732 74.883 L 176.266 66.363 L 177.899 66.363 L 179.432 74.843 L 180.627 66.363 L 182.379 66.363 L 180.467 77.923 L 178.675 77.923 L 177.102 69.763 L 175.549 77.923 L 175.549 77.923 Z  M 150.02 78.083 L 150.02 78.083 L 150.02 78.083 Q 148.606 78.083 147.75 77.193 L 147.75 77.193 L 147.75 77.193 Q 146.893 76.303 146.774 74.843 L 146.774 74.843 L 148.546 74.303 L 148.546 74.303 Q 148.706 75.403 149.084 75.953 L 149.084 75.953 L 149.084 75.953 Q 149.462 76.503 150.199 76.503 L 150.199 76.503 L 150.199 76.503 Q 150.777 76.503 151.075 76.173 L 151.075 76.173 L 151.075 76.173 Q 151.374 75.843 151.374 75.283 L 151.374 75.283 L 151.374 75.283 Q 151.374 74.783 151.155 74.383 L 151.155 74.383 L 151.155 74.383 Q 150.936 73.983 150.438 73.563 L 150.438 73.563 L 148.467 71.863 L 148.467 71.863 Q 147.869 71.343 147.461 70.703 L 147.461 70.703 L 147.461 70.703 Q 147.053 70.063 147.053 69.043 L 147.053 69.043 L 147.053 69.043 Q 147.053 68.123 147.421 67.493 L 147.421 67.493 L 147.421 67.493 Q 147.79 66.863 148.457 66.533 L 148.457 66.533 L 148.457 66.533 Q 149.124 66.203 150.02 66.203 L 150.02 66.203 L 150.02 66.203 Q 151.394 66.203 152.121 67.093 L 152.121 67.093 L 152.121 67.093 Q 152.848 67.983 152.947 69.243 L 152.947 69.243 L 151.513 69.783 L 151.513 69.783 Q 151.434 69.183 151.274 68.733 L 151.274 68.733 L 151.274 68.733 Q 151.115 68.283 150.836 68.033 L 150.836 68.033 L 150.836 68.033 Q 150.558 67.783 150.1 67.783 L 150.1 67.783 L 150.1 67.783 Q 149.582 67.783 149.273 68.133 L 149.273 68.133 L 149.273 68.133 Q 148.964 68.483 148.964 68.963 L 148.964 68.963 L 148.964 68.963 Q 148.964 69.263 149.094 69.553 L 149.094 69.553 L 149.094 69.553 Q 149.223 69.843 149.542 70.123 L 149.542 70.123 L 151.573 72.003 L 151.573 72.003 Q 151.991 72.383 152.36 72.823 L 152.36 72.823 L 152.36 72.823 Q 152.728 73.263 152.967 73.823 L 152.967 73.823 L 152.967 73.823 Q 153.206 74.383 153.206 75.123 L 153.206 75.123 L 153.206 75.123 Q 153.206 76.103 152.808 76.763 L 152.808 76.763 L 152.808 76.763 Q 152.409 77.423 151.693 77.753 L 151.693 77.753 L 151.693 77.753 Q 150.976 78.083 150.02 78.083 Z  M 157.069 77.923 L 154.938 77.923 L 154.938 66.363 L 157.069 66.363 L 157.069 77.923 L 157.069 77.923 Z  M 157.069 64.643 L 154.938 64.643 L 154.938 62.403 L 157.069 62.403 L 157.069 64.643 L 157.069 64.643 Z  M 162.545 78.083 L 162.545 78.083 L 162.545 78.083 Q 161.191 78.083 160.454 77.553 L 160.454 77.553 L 160.454 77.553 Q 159.718 77.023 159.429 75.993 L 159.429 75.993 L 159.429 75.993 Q 159.14 74.963 159.14 73.463 L 159.14 73.463 L 159.14 70.823 L 159.14 70.823 Q 159.14 69.283 159.439 68.263 L 159.439 68.263 L 159.439 68.263 Q 159.738 67.243 160.484 66.723 L 160.484 66.723 L 160.484 66.723 Q 161.231 66.203 162.545 66.203 L 162.545 66.203 L 162.545 66.203 Q 163.999 66.203 164.686 66.803 L 164.686 66.803 L 164.686 66.803 Q 165.373 67.403 165.592 68.533 L 165.592 68.533 L 165.592 68.533 Q 165.811 69.663 165.811 71.243 L 165.811 71.243 L 165.811 72.183 L 161.271 72.183 L 161.271 74.503 L 161.271 74.503 Q 161.271 75.203 161.4 75.643 L 161.4 75.643 L 161.4 75.643 Q 161.53 76.083 161.819 76.293 L 161.819 76.293 L 161.819 76.293 Q 162.107 76.503 162.565 76.503 L 162.565 76.503 L 162.565 76.503 Q 163.043 76.503 163.292 76.273 L 163.292 76.273 L 163.292 76.273 Q 163.541 76.043 163.631 75.613 L 163.631 75.613 L 163.631 75.613 Q 163.72 75.183 163.72 74.603 L 163.72 74.603 L 163.72 73.903 L 165.791 73.903 L 165.791 74.343 L 165.791 74.343 Q 165.791 76.083 165.054 77.083 L 165.054 77.083 L 165.054 77.083 Q 164.318 78.083 162.545 78.083 Z  M 161.271 70.403 L 161.271 71.023 L 163.72 71.023 L 163.72 69.983 L 163.72 69.983 Q 163.72 69.263 163.641 68.773 L 163.641 68.773 L 163.641 68.773 Q 163.561 68.283 163.312 68.033 L 163.312 68.033 L 163.312 68.033 Q 163.063 67.783 162.525 67.783 L 162.525 67.783 L 162.525 67.783 Q 162.008 67.783 161.739 68.023 L 161.739 68.023 L 161.739 68.023 Q 161.47 68.263 161.37 68.833 L 161.37 68.833 L 161.37 68.833 Q 161.271 69.403 161.271 70.403 L 161.271 70.403 L 161.271 70.403 Z  M 163.282 82.343 L 163.282 82.343 L 163.282 82.343 Q 162.744 82.343 162.247 82.283 L 162.247 82.283 L 162.247 82.283 Q 161.749 82.223 161.361 82.043 L 161.361 82.043 L 161.361 82.043 Q 160.972 81.863 160.743 81.523 L 160.743 81.523 L 160.743 81.523 Q 160.514 81.183 160.514 80.623 L 160.514 80.623 L 160.514 80.623 Q 160.514 79.963 160.853 79.363 L 160.853 79.363 L 160.853 79.363 Q 161.191 78.763 161.699 78.323 L 161.699 78.323 L 161.699 78.323 Q 162.207 77.883 162.725 77.723 L 162.725 77.723 L 163.8 77.723 L 163.8 77.723 Q 163.441 78.043 163.053 78.473 L 163.053 78.473 L 163.053 78.473 Q 162.665 78.903 162.396 79.373 L 162.396 79.373 L 162.396 79.373 Q 162.127 79.843 162.127 80.303 L 162.127 80.303 L 162.127 80.303 Q 162.127 80.923 162.645 81.093 L 162.645 81.093 L 162.645 81.093 Q 163.163 81.263 163.72 81.263 L 163.72 81.263 L 163.72 81.263 Q 163.88 81.263 164.049 81.253 L 164.049 81.253 L 164.049 81.253 Q 164.218 81.243 164.357 81.223 L 164.357 81.223 L 163.999 82.283 L 163.999 82.283 Q 163.84 82.303 163.641 82.323 L 163.641 82.323 L 163.641 82.323 Q 163.441 82.343 163.282 82.343 Z  M 103.383 77.923 L 101.133 77.923 L 101.133 61.723 L 105.135 61.723 L 105.135 61.723 Q 106.589 61.723 107.455 62.253 L 107.455 62.253 L 107.455 62.253 Q 108.321 62.783 108.72 63.783 L 108.72 63.783 L 108.72 63.783 Q 109.118 64.783 109.118 66.203 L 109.118 66.203 L 109.118 66.203 Q 109.118 67.483 108.67 68.423 L 108.67 68.423 L 108.67 68.423 Q 108.222 69.363 107.346 69.873 L 107.346 69.873 L 107.346 69.873 Q 106.469 70.383 105.155 70.383 L 105.155 70.383 L 103.383 70.383 L 103.383 77.923 L 103.383 77.923 Z  M 103.383 63.343 L 103.383 68.763 L 104.418 68.763 L 104.418 68.763 Q 105.394 68.763 105.952 68.543 L 105.952 68.543 L 105.952 68.543 Q 106.509 68.323 106.748 67.773 L 106.748 67.773 L 106.748 67.773 Q 106.987 67.223 106.987 66.223 L 106.987 66.223 L 106.987 66.223 Q 106.987 65.063 106.818 64.443 L 106.818 64.443 L 106.818 64.443 Q 106.649 63.823 106.111 63.583 L 106.111 63.583 L 106.111 63.583 Q 105.573 63.343 104.438 63.343 L 104.438 63.343 L 103.383 63.343 L 103.383 63.343 Z  M 113.559 78.083 L 113.559 78.083 L 113.559 78.083 Q 112.284 78.083 111.547 77.563 L 111.547 77.563 L 111.547 77.563 Q 110.811 77.043 110.502 76.083 L 110.502 76.083 L 110.502 76.083 Q 110.193 75.123 110.193 73.823 L 110.193 73.823 L 110.193 70.463 L 110.193 70.463 Q 110.193 69.163 110.502 68.203 L 110.502 68.203 L 110.502 68.203 Q 110.811 67.243 111.547 66.723 L 111.547 66.723 L 111.547 66.723 Q 112.284 66.203 113.559 66.203 L 113.559 66.203 L 113.559 66.203 Q 114.833 66.203 115.56 66.723 L 115.56 66.723 L 115.56 66.723 Q 116.287 67.243 116.595 68.203 L 116.595 68.203 L 116.595 68.203 Q 116.904 69.163 116.904 70.463 L 116.904 70.463 L 116.904 73.823 L 116.904 73.823 Q 116.904 75.123 116.595 76.083 L 116.595 76.083 L 116.595 76.083 Q 116.287 77.043 115.56 77.563 L 115.56 77.563 L 115.56 77.563 Q 114.833 78.083 113.559 78.083 Z  M 113.559 76.503 L 113.559 76.503 L 113.559 76.503 Q 114.176 76.503 114.425 76.143 L 114.425 76.143 L 114.425 76.143 Q 114.674 75.783 114.724 75.193 L 114.724 75.193 L 114.724 75.193 Q 114.773 74.603 114.773 73.963 L 114.773 73.963 L 114.773 70.343 L 114.773 70.343 Q 114.773 69.683 114.724 69.103 L 114.724 69.103 L 114.724 69.103 Q 114.674 68.523 114.425 68.153 L 114.425 68.153 L 114.425 68.153 Q 114.176 67.783 113.559 67.783 L 113.559 67.783 L 113.559 67.783 Q 112.941 67.783 112.682 68.153 L 112.682 68.153 L 112.682 68.153 Q 112.424 68.523 112.374 69.103 L 112.374 69.103 L 112.374 69.103 Q 112.324 69.683 112.324 70.343 L 112.324 70.343 L 112.324 73.963 L 112.324 73.963 Q 112.324 74.603 112.374 75.193 L 112.374 75.193 L 112.374 75.193 Q 112.424 75.783 112.682 76.143 L 112.682 76.143 L 112.682 76.143 Q 112.941 76.503 113.559 76.503 Z  M 121.026 77.903 L 118.895 77.903 L 118.895 61.703 L 121.026 61.703 L 121.026 71.363 L 124.133 66.363 L 126.363 66.363 L 123.655 70.883 L 126.283 77.923 L 124.152 77.923 L 122.002 72.003 L 121.026 73.483 L 121.026 77.903 L 121.026 77.903 Z  M 129.469 78.083 L 129.469 78.083 L 129.469 78.083 Q 128.792 78.083 128.275 77.693 L 128.275 77.693 L 128.275 77.693 Q 127.757 77.303 127.458 76.693 L 127.458 76.693 L 127.458 76.693 Q 127.159 76.083 127.159 75.403 L 127.159 75.403 L 127.159 75.403 Q 127.159 74.323 127.518 73.583 L 127.518 73.583 L 127.518 73.583 Q 127.876 72.843 128.504 72.333 L 128.504 72.333 L 128.504 72.333 Q 129.131 71.823 129.957 71.443 L 129.957 71.443 L 129.957 71.443 Q 130.784 71.063 131.7 70.703 L 131.7 70.703 L 131.7 69.883 L 131.7 69.883 Q 131.7 69.183 131.62 68.723 L 131.62 68.723 L 131.62 68.723 Q 131.54 68.263 131.291 68.033 L 131.291 68.033 L 131.291 68.033 Q 131.042 67.803 130.545 67.803 L 130.545 67.803 L 130.545 67.803 Q 130.107 67.803 129.838 68.003 L 129.838 68.003 L 129.838 68.003 Q 129.569 68.203 129.449 68.573 L 129.449 68.573 L 129.449 68.573 Q 129.33 68.943 129.33 69.443 L 129.33 69.443 L 129.33 70.023 L 127.219 69.943 L 127.219 69.943 Q 127.259 68.023 128.095 67.113 L 128.095 67.113 L 128.095 67.113 Q 128.932 66.203 130.684 66.203 L 130.684 66.203 L 130.684 66.203 Q 132.397 66.203 133.113 67.143 L 133.113 67.143 L 133.113 67.143 Q 133.83 68.083 133.83 69.863 L 133.83 69.863 L 133.83 75.143 L 133.83 75.143 Q 133.83 75.683 133.86 76.183 L 133.86 76.183 L 133.86 76.183 Q 133.89 76.683 133.94 77.113 L 133.94 77.113 L 133.94 77.113 Q 133.99 77.543 134.029 77.923 L 134.029 77.923 L 132.078 77.923 L 132.078 77.923 Q 132.018 77.603 131.929 77.113 L 131.929 77.113 L 131.929 77.113 Q 131.839 76.623 131.799 76.223 L 131.799 76.223 L 131.799 76.223 Q 131.6 76.903 131.033 77.493 L 131.033 77.493 L 131.033 77.493 Q 130.465 78.083 129.469 78.083 Z  M 130.306 76.243 L 130.306 76.243 L 130.306 76.243 Q 130.624 76.243 130.903 76.063 L 130.903 76.063 L 130.903 76.063 Q 131.182 75.883 131.401 75.653 L 131.401 75.653 L 131.401 75.653 Q 131.62 75.423 131.7 75.283 L 131.7 75.283 L 131.7 72.003 L 131.7 72.003 Q 131.202 72.283 130.764 72.563 L 130.764 72.563 L 130.764 72.563 Q 130.326 72.843 129.997 73.153 L 129.997 73.153 L 129.997 73.153 Q 129.668 73.463 129.479 73.853 L 129.479 73.853 L 129.479 73.853 Q 129.29 74.243 129.29 74.743 L 129.29 74.743 L 129.29 74.743 Q 129.29 75.443 129.549 75.843 L 129.549 75.843 L 129.549 75.843 Q 129.808 76.243 130.306 76.243 Z  M 141.178 77.923 L 135.443 77.923 L 135.443 76.483 L 138.968 67.963 L 135.802 67.963 L 135.802 66.363 L 141.258 66.363 L 141.258 67.523 L 137.713 76.303 L 141.178 76.303 L 141.178 77.923 L 141.178 77.923 Z  M 139.346 64.503 L 137.196 64.503 L 137.196 62.123 L 139.346 62.123 L 139.346 64.503 L 139.346 64.503 Z " fill="rgb(132,84,239)"/></g></g></svg>