<?xml version="1.0" encoding="UTF-8" standalone="no"?><!-- Generator: Gravit.io --><svg xmlns="http://www.w3.org/2000/svg" xmlns:xlink="http://www.w3.org/1999/xlink" style="isolation:isolate" viewBox="243.93 4.333 127.639 101.812" width="127.639pt" height="101.812pt"><g><g><path d=" M 308.659 18.19 L 307.79 18.19 L 307.79 17.9 L 308.659 17.9 L 308.659 18.19 Z  M 310.107 18.19 L 309.238 18.19 L 309.238 17.9 L 310.107 17.9 L 310.107 18.19 Z  M 311.555 18.19 L 310.686 18.19 L 310.686 17.9 L 311.555 17.9 L 311.555 18.19 Z  M 313.003 18.19 L 312.134 18.19 L 312.134 17.9 L 313.003 17.9 L 313.003 18.19 Z  M 314.45 18.19 L 313.582 18.19 L 313.582 17.9 L 314.45 17.9 L 314.45 18.19 Z  M 315.898 18.19 L 315.03 18.19 L 315.03 17.9 L 315.898 17.9 L 315.898 18.19 Z  M 317.346 18.19 L 316.477 18.19 L 316.477 17.9 L 317.346 17.9 L 317.346 18.19 Z  M 318.794 18.19 L 317.925 18.19 L 317.925 17.9 L 318.794 17.9 L 318.794 18.19 Z  M 320.242 18.19 L 319.373 18.19 L 319.373 17.9 L 320.242 17.9 L 320.242 18.19 Z  M 321.69 18.19 L 320.821 18.19 L 320.821 17.9 L 321.668 17.9 L 321.69 18.19 Z  M 306.391 18.311 L 306.316 18.031 C 306.606 17.954 306.906 17.91 307.207 17.902 L 307.215 18.191 C 306.937 18.199 306.659 18.239 306.391 18.311 Z  M 323.043 18.466 C 322.786 18.358 322.517 18.281 322.243 18.237 L 322.289 17.95 C 322.586 17.999 322.877 18.082 323.155 18.199 L 323.043 18.466 Z  M 305.15 18.921 L 304.975 18.69 C 305.215 18.508 305.476 18.354 305.749 18.232 L 305.867 18.497 C 305.613 18.609 305.372 18.752 305.15 18.921 L 305.15 18.921 Z  M 324.192 19.236 C 323.994 19.039 323.774 18.865 323.537 18.72 L 323.689 18.473 C 323.944 18.631 324.182 18.818 324.396 19.03 L 324.192 19.236 Z  M 304.229 19.953 L 303.98 19.805 C 304.134 19.547 304.318 19.306 304.526 19.09 L 304.735 19.291 C 304.541 19.491 304.371 19.714 304.229 19.953 Z  M 324.969 20.38 C 324.86 20.125 324.721 19.882 324.555 19.656 L 324.788 19.485 C 324.967 19.728 325.118 19.991 325.235 20.266 L 324.969 20.38 Z  M 303.765 21.254 L 303.479 21.212 C 303.523 20.915 303.601 20.623 303.714 20.343 L 303.983 20.451 C 303.879 20.709 303.806 20.98 303.765 21.254 L 303.765 21.254 Z  M 325.253 21.732 C 325.25 21.454 325.214 21.176 325.146 20.907 L 325.427 20.836 C 325.5 21.127 325.539 21.428 325.542 21.729 L 325.253 21.732 Z  M 303.553 22.705 C 303.48 22.412 303.441 22.111 303.438 21.812 L 303.727 21.809 C 303.73 22.086 303.766 22.363 303.834 22.635 L 303.553 22.705 Z  M 302.018 23.078 L 301.149 23.078 L 301.149 22.789 L 302.018 22.789 L 302.018 23.078 Z  M 303.465 23.078 L 302.597 23.078 L 302.597 22.789 L 303.465 22.789 L 303.465 23.078 Z  M 325.435 23.078 L 325.01 23.078 L 325.073 22.888 C 325.138 22.691 325.186 22.489 325.216 22.287 L 325.502 22.329 C 325.479 22.483 325.447 22.637 325.405 22.789 L 325.435 22.789 L 325.435 23.078 Z  M 299.707 23.081 L 299.695 22.792 C 299.747 22.79 299.8 22.789 299.852 22.789 L 300.57 22.789 L 300.57 23.078 L 299.852 23.078 C 299.804 23.078 299.755 23.079 299.707 23.081 Z  M 326.806 23.296 C 326.545 23.2 326.273 23.135 325.997 23.102 L 326.03 22.815 C 326.329 22.85 326.624 22.92 326.906 23.024 L 326.806 23.296 Z  M 298.364 23.405 L 298.242 23.142 C 298.516 23.016 298.804 22.922 299.099 22.863 L 299.155 23.147 C 298.883 23.201 298.617 23.288 298.364 23.405 L 298.364 23.405 Z  M 327.987 24.015 C 327.781 23.826 327.554 23.662 327.311 23.528 L 327.452 23.275 C 327.714 23.42 327.959 23.598 328.182 23.801 L 327.987 24.015 Z  M 297.242 24.215 L 297.031 24.017 C 297.237 23.797 297.468 23.602 297.718 23.435 L 297.878 23.676 C 297.647 23.83 297.433 24.011 297.242 24.215 Z  M 328.812 25.125 C 328.692 24.874 328.543 24.637 328.368 24.42 L 328.593 24.238 C 328.782 24.473 328.944 24.729 329.073 25 L 328.812 25.125 Z  M 296.508 25.386 L 296.237 25.282 C 296.345 25.002 296.485 24.734 296.655 24.486 L 296.895 24.649 C 296.737 24.879 296.607 25.127 296.508 25.386 Z  M 292.356 26.594 L 291.487 26.594 L 291.487 26.305 L 292.356 26.305 L 292.356 26.594 Z  M 293.803 26.594 L 292.935 26.594 L 292.935 26.305 L 293.803 26.305 L 293.803 26.594 Z  M 295.251 26.594 L 294.383 26.594 L 294.383 26.305 L 295.251 26.305 L 295.251 26.594 Z  M 296.269 26.594 L 295.83 26.594 L 295.83 26.305 L 295.998 26.305 C 296.012 26.155 296.035 26.006 296.066 25.858 L 296.349 25.919 C 296.312 26.096 296.287 26.278 296.277 26.458 L 296.269 26.594 Z  M 290.061 26.62 L 290.02 26.333 C 290.151 26.315 290.285 26.305 290.418 26.305 L 290.908 26.305 L 290.908 26.594 L 290.418 26.594 C 290.299 26.594 290.178 26.603 290.061 26.62 Z  M 330.046 26.752 C 329.805 26.663 329.552 26.612 329.294 26.6 L 329.163 26.595 L 329.156 26.464 C 329.14 26.186 329.092 25.91 329.013 25.644 L 329.29 25.561 C 329.364 25.808 329.413 26.063 329.436 26.32 C 329.679 26.342 329.917 26.395 330.146 26.48 L 330.046 26.752 Z  M 288.825 27.168 L 288.641 26.944 C 288.879 26.749 289.144 26.595 289.429 26.486 L 289.532 26.757 C 289.276 26.854 289.038 26.992 288.825 27.168 Z  M 331.144 27.542 C 330.971 27.328 330.766 27.144 330.535 26.995 L 330.692 26.752 C 330.949 26.917 331.177 27.122 331.369 27.361 L 331.144 27.542 Z  M 288.048 28.274 L 287.775 28.177 C 287.877 27.889 288.025 27.621 288.215 27.38 L 288.443 27.559 C 288.272 27.775 288.14 28.016 288.048 28.274 L 288.048 28.274 Z  M 331.675 28.785 C 331.64 28.512 331.56 28.249 331.438 28.003 L 331.697 27.874 C 331.834 28.15 331.923 28.443 331.962 28.747 L 331.675 28.785 Z  M 287.675 29.682 C 287.635 29.494 287.615 29.301 287.615 29.108 C 287.615 28.995 287.622 28.881 287.635 28.771 L 287.923 28.806 C 287.911 28.905 287.905 29.006 287.905 29.109 C 287.905 29.281 287.922 29.454 287.958 29.622 L 287.675 29.682 Z  M 331.746 30.239 L 331.481 30.121 C 331.593 29.87 331.662 29.604 331.686 29.331 L 331.975 29.356 C 331.948 29.662 331.871 29.959 331.746 30.239 L 331.746 30.239 Z  M 288.371 31.019 C 288.162 30.794 287.991 30.539 287.864 30.261 L 288.128 30.141 C 288.241 30.391 288.395 30.62 288.583 30.821 L 288.371 31.019 Z  M 330.788 31.403 L 330.622 31.166 C 330.847 31.008 331.044 30.815 331.207 30.594 L 331.44 30.765 C 331.258 31.012 331.039 31.226 330.788 31.403 Z  M 289.657 31.806 C 289.363 31.722 289.086 31.592 288.832 31.417 L 288.997 31.178 C 289.224 31.335 289.472 31.453 289.736 31.527 L 289.657 31.806 Z  M 329.367 31.906 L 329.348 31.617 C 329.622 31.599 329.89 31.536 330.143 31.43 L 330.255 31.697 C 329.972 31.815 329.673 31.885 329.367 31.906 L 329.367 31.906 Z  M 291.135 31.912 L 290.418 31.912 C 290.365 31.912 290.311 31.91 290.258 31.907 L 290.274 31.618 C 290.322 31.621 290.37 31.622 290.418 31.622 L 291.135 31.622 L 291.135 31.912 Z  M 292.583 31.912 L 291.714 31.912 L 291.714 31.622 L 292.583 31.622 L 292.583 31.912 Z  M 294.03 31.912 L 293.162 31.912 L 293.162 31.622 L 294.03 31.622 L 294.03 31.912 Z  M 295.478 31.912 L 294.61 31.912 L 294.61 31.622 L 295.478 31.622 L 295.478 31.912 Z  M 296.926 31.912 L 296.057 31.912 L 296.057 31.622 L 296.926 31.622 L 296.926 31.912 Z  M 298.374 31.912 L 297.505 31.912 L 297.505 31.622 L 298.374 31.622 L 298.374 31.912 Z  M 299.822 31.912 L 298.953 31.912 L 298.953 31.622 L 299.822 31.622 L 299.822 31.912 Z  M 301.27 31.912 L 300.401 31.912 L 300.401 31.622 L 301.27 31.622 L 301.27 31.912 Z  M 302.717 31.912 L 301.849 31.912 L 301.849 31.622 L 302.717 31.622 L 302.717 31.912 Z  M 304.165 31.912 L 303.297 31.912 L 303.297 31.622 L 304.165 31.622 L 304.165 31.912 Z  M 305.613 31.912 L 304.744 31.912 L 304.744 31.622 L 305.613 31.622 L 305.613 31.912 Z  M 307.061 31.912 L 306.192 31.912 L 306.192 31.622 L 307.061 31.622 L 307.061 31.912 Z  M 308.509 31.912 L 307.64 31.912 L 307.64 31.622 L 308.509 31.622 L 308.509 31.912 Z  M 309.957 31.912 L 309.088 31.912 L 309.088 31.622 L 309.957 31.622 L 309.957 31.912 Z  M 311.404 31.912 L 310.536 31.912 L 310.536 31.622 L 311.404 31.622 L 311.404 31.912 Z  M 312.852 31.912 L 311.984 31.912 L 311.984 31.622 L 312.852 31.622 L 312.852 31.912 Z  M 314.3 31.912 L 313.431 31.912 L 313.431 31.622 L 314.3 31.622 L 314.3 31.912 Z  M 315.748 31.912 L 314.879 31.912 L 314.879 31.622 L 315.748 31.622 L 315.748 31.912 Z  M 317.196 31.912 L 316.327 31.912 L 316.327 31.622 L 317.196 31.622 L 317.196 31.912 Z  M 318.644 31.912 L 317.775 31.912 L 317.775 31.622 L 318.644 31.622 L 318.644 31.912 Z  M 320.091 31.912 L 319.223 31.912 L 319.223 31.622 L 320.091 31.622 L 320.091 31.912 Z  M 321.539 31.912 L 320.671 31.912 L 320.671 31.622 L 321.539 31.622 L 321.539 31.912 Z  M 322.987 31.912 L 322.118 31.912 L 322.118 31.622 L 322.987 31.622 L 322.987 31.912 Z  M 324.435 31.912 L 323.566 31.912 L 323.566 31.622 L 324.435 31.622 L 324.435 31.912 Z  M 325.883 31.912 L 325.014 31.912 L 325.014 31.622 L 325.883 31.622 L 325.883 31.912 Z  M 327.331 31.912 L 326.462 31.912 L 326.462 31.622 L 327.331 31.622 L 327.331 31.912 Z  M 328.778 31.912 L 327.91 31.912 L 327.91 31.622 L 328.778 31.622 L 328.778 31.912 Z " fill="rgb(233,234,234)"/><path d=" M 307.353 18.283 C 307.289 17.152 306.348 16.247 305.203 16.247 L 304.989 16.247 C 305.059 16.036 305.098 15.811 305.098 15.578 C 305.098 14.392 304.127 13.422 302.942 13.422 L 294.646 13.422 C 293.46 13.422 292.49 14.392 292.49 15.578 C 292.49 15.811 292.529 16.036 292.598 16.247 L 290.334 16.247 C 289.19 16.247 288.249 17.151 288.184 18.279 L 284.881 18.279 C 284.036 18.279 283.345 18.971 283.345 19.816 C 283.345 20.661 284.036 21.352 284.881 21.352 L 307.285 21.352 C 308.13 21.352 308.821 20.661 308.821 19.816 C 308.821 18.993 308.167 18.319 307.353 18.283 Z " fill="rgb(233,234,234)"/><path d=" M 265.658 51.002 L 264.79 51.002 L 264.79 50.712 L 265.658 50.712 L 265.658 51.002 Z  M 267.106 51.002 L 266.237 51.002 L 266.237 50.712 L 267.106 50.712 L 267.106 51.002 Z  M 268.554 51.002 L 267.685 51.002 L 267.685 50.712 L 268.554 50.712 L 268.554 51.002 Z  M 270.002 51.002 L 269.133 51.002 L 269.133 50.712 L 270.002 50.712 L 270.002 51.002 Z  M 271.45 51.002 L 270.581 51.002 L 270.581 50.712 L 271.45 50.712 L 271.45 51.002 Z  M 272.897 51.002 L 272.029 51.002 L 272.029 50.712 L 272.897 50.712 L 272.897 51.002 Z  M 263.343 51.002 L 263.34 50.713 L 264.21 50.712 L 264.21 51.002 L 263.343 51.002 Z  M 274.302 51.081 C 274.098 51.029 273.887 51.002 273.675 51.002 L 273.477 51.002 L 273.477 50.712 L 273.675 50.712 C 273.912 50.713 274.147 50.742 274.374 50.801 L 274.302 51.081 Z  M 262.048 51.387 L 261.894 51.142 C 262.154 50.978 262.437 50.86 262.735 50.789 L 262.802 51.07 C 262.535 51.134 262.281 51.24 262.048 51.387 L 262.048 51.387 Z  M 275.473 51.757 C 275.279 51.561 275.057 51.398 274.813 51.274 L 274.944 51.016 C 275.216 51.154 275.464 51.335 275.68 51.554 L 275.473 51.757 Z  M 261.133 52.384 L 260.875 52.251 C 261.014 51.98 261.196 51.733 261.416 51.518 L 261.618 51.725 C 261.421 51.918 261.258 52.14 261.133 52.384 L 261.133 52.384 Z  M 276.134 52.938 C 276.069 52.671 275.962 52.418 275.814 52.185 L 276.059 52.03 C 276.223 52.29 276.343 52.572 276.415 52.869 L 276.134 52.938 Z  M 260.573 53.728 C 260.568 53.663 260.566 53.598 260.566 53.531 C 260.566 53.291 260.596 53.052 260.657 52.821 L 260.937 52.894 C 260.883 53.101 260.855 53.316 260.855 53.531 C 260.855 53.591 260.857 53.65 260.862 53.708 L 260.573 53.728 Z  M 276.363 54.376 L 276.087 54.288 C 276.165 54.041 276.205 53.786 276.205 53.531 L 276.204 53.48 L 276.494 53.473 L 276.494 53.531 C 276.494 53.816 276.45 54.1 276.363 54.376 Z  M 259.475 54.506 L 258.607 54.506 L 258.607 54.217 L 259.475 54.217 L 259.475 54.506 Z  M 261.044 54.506 L 260.055 54.506 L 260.055 54.217 L 260.845 54.217 L 260.845 54.28 L 260.96 54.245 L 261.044 54.506 Z  M 257.222 54.642 L 257.128 54.368 C 257.417 54.269 257.72 54.218 258.027 54.217 L 258.028 54.506 C 257.753 54.507 257.481 54.553 257.222 54.642 L 257.222 54.642 Z  M 277.535 54.739 C 277.286 54.623 277.021 54.549 276.747 54.52 L 276.778 54.232 C 277.083 54.265 277.379 54.347 277.657 54.476 L 277.535 54.739 Z  M 256.106 55.408 L 255.885 55.221 C 256.083 54.987 256.315 54.787 256.576 54.627 L 256.727 54.875 C 256.493 55.018 256.284 55.197 256.106 55.408 Z  M 278.567 55.614 C 278.412 55.387 278.222 55.188 278.003 55.021 L 278.178 54.79 C 278.422 54.976 278.633 55.198 278.806 55.451 L 278.567 55.614 Z  M 255.541 56.636 L 255.256 56.591 C 255.304 56.288 255.401 55.997 255.545 55.726 L 255.801 55.861 C 255.672 56.105 255.585 56.365 255.541 56.636 L 255.541 56.636 Z  M 252.165 57.027 L 251.296 57.027 L 251.296 56.737 L 252.165 56.737 L 252.165 57.027 Z  M 253.613 57.027 L 252.744 57.027 L 252.744 56.737 L 253.613 56.737 L 253.613 57.027 Z  M 255.061 57.027 L 254.192 57.027 L 254.192 56.737 L 255.061 56.737 L 255.061 57.027 Z  M 279.153 57.032 L 279.024 57.025 L 279.003 56.894 C 278.987 56.62 278.927 56.351 278.825 56.096 L 279.093 55.988 C 279.208 56.272 279.274 56.572 279.292 56.878 L 279.161 56.886 L 279.164 56.963 L 279.153 57.032 Z  M 250.077 57.498 L 249.88 57.286 C 250.109 57.074 250.387 56.914 250.683 56.824 L 250.767 57.101 C 250.513 57.179 250.274 57.316 250.077 57.498 Z  M 280.348 57.589 C 280.164 57.393 279.936 57.239 279.687 57.144 L 279.79 56.874 C 280.08 56.985 280.346 57.163 280.559 57.391 L 280.348 57.589 Z  M 249.516 58.677 L 249.227 58.658 C 249.246 58.344 249.336 58.046 249.494 57.771 L 249.745 57.915 C 249.61 58.151 249.532 58.407 249.516 58.677 Z  M 280.823 58.805 L 280.824 58.784 C 280.824 58.522 280.765 58.267 280.65 58.028 L 280.911 57.902 C 281.045 58.18 281.113 58.478 281.113 58.788 L 280.823 58.805 Z  M 249.702 60.103 C 249.501 59.863 249.356 59.578 249.282 59.277 L 249.563 59.208 C 249.627 59.466 249.751 59.711 249.924 59.916 L 249.702 60.103 Z  M 280.535 60.212 L 280.327 60.01 C 280.514 59.818 280.656 59.582 280.738 59.329 L 281.013 59.419 C 280.917 59.713 280.752 59.988 280.535 60.212 Z  M 251.039 60.825 C 250.731 60.79 250.43 60.682 250.167 60.513 L 250.324 60.269 C 250.549 60.414 250.808 60.507 251.072 60.537 L 251.039 60.825 Z  M 279.149 60.837 L 279.137 60.547 C 279.408 60.536 279.665 60.464 279.903 60.334 L 280.042 60.588 C 279.765 60.74 279.465 60.823 279.149 60.837 Z  M 252.503 60.839 L 251.634 60.839 L 251.634 60.549 L 252.503 60.549 L 252.503 60.839 Z  M 253.951 60.839 L 253.082 60.839 L 253.082 60.549 L 253.951 60.549 L 253.951 60.839 Z  M 255.399 60.839 L 254.53 60.839 L 254.53 60.549 L 255.399 60.549 L 255.399 60.839 Z  M 256.847 60.839 L 255.978 60.839 L 255.978 60.549 L 256.847 60.549 L 256.847 60.839 Z  M 258.294 60.839 L 257.426 60.839 L 257.426 60.549 L 258.294 60.549 L 258.294 60.839 Z  M 259.742 60.839 L 258.874 60.839 L 258.874 60.549 L 259.742 60.549 L 259.742 60.839 Z  M 261.19 60.839 L 260.321 60.839 L 260.321 60.549 L 261.19 60.549 L 261.19 60.839 Z  M 262.638 60.839 L 261.769 60.839 L 261.769 60.549 L 262.638 60.549 L 262.638 60.839 Z  M 264.086 60.839 L 263.217 60.839 L 263.217 60.549 L 264.086 60.549 L 264.086 60.839 Z  M 265.534 60.839 L 264.665 60.839 L 264.665 60.549 L 265.534 60.549 L 265.534 60.839 Z  M 266.982 60.839 L 266.113 60.839 L 266.113 60.549 L 266.982 60.549 L 266.982 60.839 Z  M 268.429 60.839 L 267.561 60.839 L 267.561 60.549 L 268.429 60.549 L 268.429 60.839 Z  M 269.877 60.839 L 269.009 60.839 L 269.009 60.549 L 269.877 60.549 L 269.877 60.839 Z  M 271.325 60.839 L 270.456 60.839 L 270.456 60.549 L 271.325 60.549 L 271.325 60.839 Z  M 272.773 60.839 L 271.904 60.839 L 271.904 60.549 L 272.773 60.549 L 272.773 60.839 Z  M 274.221 60.839 L 273.352 60.839 L 273.352 60.549 L 274.221 60.549 L 274.221 60.839 Z  M 275.669 60.839 L 274.8 60.839 L 274.8 60.549 L 275.669 60.549 L 275.669 60.839 Z  M 277.116 60.839 L 276.248 60.839 L 276.248 60.549 L 277.116 60.549 L 277.116 60.839 Z  M 278.564 60.839 L 277.695 60.839 L 277.695 60.549 L 278.564 60.549 L 278.564 60.839 Z " fill="rgb(233,234,234)"/><path d=" M 277.666 36.131 C 277.587 34.73 276.42 33.606 274.999 33.606 L 274.734 33.606 C 274.82 33.345 274.868 33.066 274.868 32.777 L 274.868 32.777 C 274.868 31.306 273.665 30.102 272.194 30.102 L 261.904 30.102 C 260.433 30.102 259.229 31.306 259.229 32.777 L 259.229 32.777 C 259.229 33.066 259.278 33.345 259.364 33.606 L 256.555 33.606 C 255.136 33.606 253.969 34.728 253.888 36.127 L 249.792 36.127 C 248.744 36.127 247.886 36.985 247.886 38.033 C 247.886 39.081 248.744 39.939 249.792 39.939 L 277.581 39.939 C 278.63 39.939 279.487 39.081 279.487 38.033 C 279.487 37.013 278.675 36.177 277.666 36.131" fill="rgb(233,234,234)"/><path d=" M 275.681 4.623 L 274.812 4.623 L 274.812 4.333 L 275.681 4.333 L 275.681 4.623 Z  M 277.129 4.623 L 276.26 4.623 L 276.26 4.333 L 277.129 4.333 L 277.129 4.623 Z  M 278.577 4.623 L 277.708 4.623 L 277.708 4.333 L 278.577 4.333 L 278.577 4.623 Z  M 280.024 4.623 L 279.156 4.623 L 279.156 4.333 L 280.024 4.333 L 280.024 4.623 Z  M 281.472 4.623 L 280.604 4.623 L 280.604 4.333 L 281.472 4.333 L 281.472 4.623 Z  M 282.915 4.625 C 282.872 4.624 282.83 4.623 282.788 4.623 L 282.051 4.623 L 282.051 4.333 L 282.788 4.333 C 282.834 4.333 282.88 4.334 282.926 4.336 L 282.915 4.625 Z  M 273.446 4.846 L 273.341 4.575 C 273.622 4.467 273.917 4.393 274.217 4.358 L 274.251 4.646 C 273.975 4.678 273.704 4.745 273.446 4.846 L 273.446 4.846 Z  M 284.249 4.963 C 284 4.84 283.736 4.749 283.465 4.692 L 283.524 4.409 C 283.818 4.47 284.106 4.569 284.377 4.703 L 284.249 4.963 Z  M 272.291 5.598 L 272.086 5.392 C 272.301 5.179 272.54 4.993 272.799 4.839 L 272.947 5.088 C 272.709 5.23 272.488 5.401 272.291 5.598 L 272.291 5.598 Z  M 285.334 5.812 C 285.155 5.599 284.95 5.41 284.725 5.247 L 284.894 5.012 C 285.138 5.188 285.361 5.394 285.556 5.625 L 285.334 5.812 Z  M 271.534 6.749 L 271.265 6.643 C 271.375 6.363 271.52 6.096 271.696 5.851 L 271.931 6.02 C 271.769 6.246 271.635 6.491 271.534 6.749 L 271.534 6.749 Z  M 285.988 7.024 C 285.91 6.758 285.798 6.502 285.656 6.263 L 285.905 6.115 C 286.06 6.375 286.181 6.654 286.266 6.943 L 285.988 7.024 Z  M 271.313 7.707 L 270.631 7.707 L 270.631 7.417 L 271.057 7.417 C 271.067 7.351 271.079 7.285 271.092 7.22 L 271.376 7.28 C 271.355 7.378 271.339 7.478 271.327 7.578 L 271.313 7.707 Z  M 287.101 7.707 L 286.115 7.707 L 286.101 7.577 L 286.245 7.554 L 286.245 7.417 L 287.101 7.417 L 287.101 7.707 Z  M 288.549 7.707 L 287.681 7.707 L 287.681 7.417 L 288.549 7.417 L 288.549 7.707 Z  M 289.997 7.707 L 289.128 7.707 L 289.128 7.417 L 289.997 7.417 L 289.997 7.707 Z  M 269.223 7.78 L 269.156 7.499 C 269.384 7.445 269.618 7.417 269.853 7.417 L 270.052 7.417 L 270.052 7.707 L 269.853 7.707 C 269.641 7.707 269.428 7.731 269.223 7.78 Z  M 291.366 7.896 C 291.11 7.795 290.84 7.734 290.566 7.714 L 290.586 7.425 C 290.89 7.447 291.189 7.515 291.472 7.627 L 291.366 7.896 Z  M 268.02 8.416 L 267.826 8.201 C 268.052 7.996 268.307 7.827 268.582 7.698 L 268.705 7.961 C 268.455 8.077 268.225 8.23 268.02 8.416 Z  M 292.47 8.693 C 292.292 8.481 292.085 8.298 291.854 8.147 L 292.012 7.905 C 292.267 8.071 292.496 8.274 292.692 8.508 L 292.47 8.693 Z  M 267.266 9.549 L 266.992 9.453 C 267.092 9.166 267.236 8.896 267.418 8.65 L 267.65 8.823 C 267.486 9.045 267.356 9.289 267.266 9.549 Z  M 293.057 9.921 C 293.004 9.65 292.91 9.39 292.778 9.148 L 293.033 9.009 C 293.179 9.278 293.283 9.565 293.341 9.864 L 293.057 9.921 Z  M 266.866 10.952 C 266.838 10.787 266.824 10.617 266.824 10.447 C 266.823 10.313 266.832 10.177 266.85 10.043 L 267.138 10.082 C 267.121 10.202 267.113 10.325 267.113 10.447 C 267.113 10.6 267.126 10.754 267.152 10.904 L 266.866 10.952 Z  M 293.254 11.366 L 292.978 11.278 C 293.062 11.016 293.106 10.743 293.108 10.467 L 293.398 10.469 C 293.396 10.774 293.347 11.076 293.254 11.366 Z  M 263.118 12.581 L 262.249 12.581 L 262.249 12.292 L 263.118 12.292 L 263.118 12.581 Z  M 264.566 12.581 L 263.697 12.581 L 263.697 12.292 L 264.566 12.292 L 264.566 12.581 Z  M 266.014 12.581 L 265.145 12.581 L 265.145 12.292 L 266.014 12.292 L 266.014 12.581 Z  M 267.461 12.581 L 266.593 12.581 L 266.593 12.292 L 267.457 12.292 C 267.278 12.061 267.134 11.808 267.029 11.538 L 267.299 11.432 C 267.399 11.688 267.537 11.928 267.71 12.144 L 267.483 12.325 C 267.476 12.316 267.469 12.307 267.461 12.298 L 267.461 12.581 Z  M 292.587 12.581 L 292.11 12.581 L 292.345 12.337 C 292.505 12.168 292.644 11.981 292.758 11.78 L 293.01 11.923 C 292.893 12.131 292.751 12.325 292.587 12.501 L 292.587 12.581 Z  M 294.035 12.581 L 293.166 12.581 L 293.166 12.292 L 294.035 12.292 L 294.035 12.581 Z  M 295.483 12.581 L 294.614 12.581 L 294.614 12.292 L 295.483 12.292 L 295.483 12.581 Z  M 296.93 12.581 L 296.062 12.581 L 296.062 12.292 L 296.93 12.292 L 296.93 12.581 Z  M 298.378 12.581 L 297.51 12.581 L 297.51 12.292 L 298.378 12.292 L 298.378 12.581 Z  M 299.826 12.581 L 298.957 12.581 L 298.957 12.292 L 299.826 12.292 L 299.826 12.581 Z  M 301.274 12.581 L 300.405 12.581 L 300.405 12.292 L 301.274 12.292 L 301.274 12.581 Z  M 302.722 12.581 L 301.853 12.581 L 301.853 12.292 L 302.722 12.292 L 302.722 12.581 Z  M 304.17 12.581 L 303.301 12.581 L 303.301 12.292 L 304.17 12.292 L 304.17 12.581 Z  M 305.617 12.581 L 304.749 12.581 L 304.749 12.292 L 305.617 12.292 L 305.617 12.581 Z  M 307.065 12.581 L 306.197 12.581 L 306.197 12.292 L 307.065 12.292 L 307.065 12.581 Z  M 308.513 12.581 L 307.644 12.581 L 307.644 12.292 L 308.513 12.292 L 308.513 12.581 Z  M 309.961 12.581 L 309.092 12.581 L 309.092 12.292 L 309.961 12.292 L 309.961 12.581 Z  M 260.828 12.607 L 260.778 12.322 C 260.893 12.302 261.012 12.292 261.13 12.292 L 261.67 12.292 L 261.67 12.581 L 261.13 12.581 C 261.028 12.581 260.926 12.59 260.828 12.607 Z  M 312.083 12.714 C 311.869 12.626 311.642 12.581 311.409 12.581 L 310.54 12.581 L 310.54 12.292 L 311.409 12.292 C 311.68 12.292 311.944 12.344 312.193 12.446 L 312.083 12.714 Z  M 259.707 13.285 L 259.478 13.108 C 259.668 12.862 259.914 12.657 260.19 12.517 L 260.321 12.775 C 260.083 12.896 259.871 13.072 259.707 13.285 Z  M 313.034 13.616 C 312.92 13.374 312.75 13.157 312.542 12.987 L 312.726 12.763 C 312.966 12.96 313.163 13.212 313.295 13.492 L 313.034 13.616 Z  M 259.054 14.567 C 259.048 14.504 259.045 14.441 259.045 14.377 C 259.045 14.127 259.089 13.883 259.177 13.65 L 259.448 13.751 C 259.373 13.952 259.335 14.162 259.335 14.377 C 259.335 14.432 259.337 14.487 259.342 14.541 L 259.054 14.567 Z  M 313.395 15.009 L 313.119 14.92 C 313.175 14.745 313.204 14.562 313.204 14.377 C 313.204 14.292 313.198 14.208 313.186 14.127 L 313.473 14.086 C 313.487 14.182 313.494 14.28 313.494 14.377 C 313.494 14.592 313.46 14.805 313.395 15.009 Z  M 259.737 15.925 C 259.506 15.716 259.321 15.455 259.203 15.169 L 259.47 15.058 C 259.572 15.305 259.732 15.53 259.931 15.71 L 259.737 15.925 Z  M 312.437 16.188 L 312.294 15.937 C 312.526 15.804 312.729 15.618 312.882 15.399 L 313.12 15.564 C 312.942 15.819 312.706 16.035 312.437 16.188 L 312.437 16.188 Z  M 261.157 16.461 C 260.824 16.461 260.53 16.396 260.254 16.267 L 260.376 16.005 C 260.613 16.115 260.867 16.172 261.13 16.172 L 261.157 16.461 Z  M 262.605 16.461 L 261.736 16.461 L 261.736 16.172 L 262.605 16.172 L 262.605 16.461 Z  M 264.052 16.461 L 263.184 16.461 L 263.184 16.172 L 264.052 16.172 L 264.052 16.461 Z  M 265.5 16.461 L 264.631 16.461 L 264.631 16.172 L 265.5 16.172 L 265.5 16.461 Z  M 266.948 16.461 L 266.079 16.461 L 266.079 16.172 L 266.948 16.172 L 266.948 16.461 Z  M 268.396 16.461 L 267.527 16.461 L 267.527 16.172 L 268.396 16.172 L 268.396 16.461 Z  M 269.844 16.461 L 268.975 16.461 L 268.975 16.172 L 269.844 16.172 L 269.844 16.461 Z  M 271.291 16.461 L 270.423 16.461 L 270.423 16.172 L 271.291 16.172 L 271.291 16.461 Z  M 272.739 16.461 L 271.871 16.461 L 271.871 16.172 L 272.739 16.172 L 272.739 16.461 Z  M 274.187 16.461 L 273.318 16.461 L 273.318 16.172 L 274.187 16.172 L 274.187 16.461 Z  M 275.635 16.461 L 274.766 16.461 L 274.766 16.172 L 275.635 16.172 L 275.635 16.461 Z  M 277.083 16.461 L 276.214 16.461 L 276.214 16.172 L 277.083 16.172 L 277.083 16.461 Z  M 278.531 16.461 L 277.662 16.461 L 277.662 16.172 L 278.531 16.172 L 278.531 16.461 Z  M 279.978 16.461 L 279.11 16.461 L 279.11 16.172 L 279.978 16.172 L 279.978 16.461 Z  M 281.426 16.461 L 280.558 16.461 L 280.558 16.172 L 281.426 16.172 L 281.426 16.461 Z  M 282.874 16.461 L 282.005 16.461 L 282.005 16.172 L 282.874 16.172 L 282.874 16.461 Z  M 284.322 16.461 L 283.453 16.461 L 283.453 16.172 L 284.322 16.172 L 284.322 16.461 Z  M 285.77 16.461 L 284.901 16.461 L 284.901 16.172 L 285.77 16.172 L 285.77 16.461 Z  M 287.218 16.461 L 286.349 16.461 L 286.349 16.172 L 287.218 16.172 L 287.218 16.461 Z  M 288.665 16.461 L 287.797 16.461 L 287.797 16.172 L 288.665 16.172 L 288.665 16.461 Z  M 290.113 16.461 L 289.245 16.461 L 289.245 16.172 L 290.113 16.172 L 290.113 16.461 Z  M 291.561 16.461 L 290.692 16.461 L 290.692 16.172 L 291.561 16.172 L 291.561 16.461 Z  M 293.009 16.461 L 292.14 16.461 L 292.14 16.172 L 293.009 16.172 L 293.009 16.461 Z  M 294.457 16.461 L 293.588 16.461 L 293.588 16.172 L 294.457 16.172 L 294.457 16.461 Z  M 295.905 16.461 L 295.036 16.461 L 295.036 16.172 L 295.905 16.172 L 295.905 16.461 Z  M 297.352 16.461 L 296.484 16.461 L 296.484 16.172 L 297.352 16.172 L 297.352 16.461 Z  M 298.8 16.461 L 297.932 16.461 L 297.932 16.172 L 298.8 16.172 L 298.8 16.461 Z  M 300.248 16.461 L 299.379 16.461 L 299.379 16.172 L 300.248 16.172 L 300.248 16.461 Z  M 301.696 16.461 L 300.827 16.461 L 300.827 16.172 L 301.696 16.172 L 301.696 16.461 Z  M 303.144 16.461 L 302.275 16.461 L 302.275 16.172 L 303.144 16.172 L 303.144 16.461 Z  M 304.592 16.461 L 303.723 16.461 L 303.723 16.172 L 304.592 16.172 L 304.592 16.461 Z  M 306.039 16.461 L 305.171 16.461 L 305.171 16.172 L 306.039 16.172 L 306.039 16.461 Z  M 307.487 16.461 L 306.618 16.461 L 306.618 16.172 L 307.487 16.172 L 307.487 16.461 Z  M 308.935 16.461 L 308.066 16.461 L 308.066 16.172 L 308.935 16.172 L 308.935 16.461 Z  M 310.383 16.461 L 309.514 16.461 L 309.514 16.172 L 310.383 16.172 L 310.383 16.461 Z  M 311.409 16.461 L 310.962 16.461 L 310.962 16.172 L 311.409 16.172 C 311.539 16.172 311.669 16.157 311.796 16.129 L 311.858 16.412 C 311.711 16.445 311.56 16.461 311.409 16.461" fill="rgb(233,234,234)"/><path d=" M 357.369 47.122 L 356.507 47.122 L 356.5 46.833 L 357.369 46.833 L 357.369 47.122 Z  M 358.816 47.122 L 357.948 47.122 L 357.948 46.833 L 358.816 46.833 L 358.816 47.122 Z  M 360.264 47.122 L 359.396 47.122 L 359.396 46.833 L 360.264 46.833 L 360.264 47.122 Z  M 361.538 47.462 C 361.328 47.297 361.079 47.187 360.819 47.144 L 360.866 46.858 C 361.175 46.909 361.469 47.04 361.718 47.235 L 361.538 47.462 Z  M 355.326 47.653 L 355.111 47.459 C 355.322 47.224 355.589 47.045 355.884 46.94 L 355.981 47.213 C 355.731 47.302 355.505 47.453 355.326 47.653 Z  M 353.826 48.657 L 352.958 48.657 L 352.958 48.367 L 353.826 48.367 L 353.826 48.657 Z  M 354.916 48.657 L 354.406 48.657 L 354.406 48.367 L 354.663 48.367 C 354.687 48.237 354.726 48.11 354.777 47.987 L 355.044 48.099 C 354.986 48.236 354.948 48.381 354.931 48.529 L 354.916 48.657 Z  M 362.359 48.657 L 362.151 48.657 L 362.137 48.529 C 362.109 48.29 362.025 48.057 361.894 47.853 L 362.138 47.696 C 362.293 47.937 362.392 48.213 362.424 48.496 L 362.359 48.503 L 362.359 48.657 Z  M 363.672 48.885 C 363.456 48.736 363.204 48.657 362.942 48.657 L 362.938 48.367 C 363.263 48.367 363.573 48.464 363.837 48.647 L 363.672 48.885 Z  M 351.764 49.101 L 351.545 48.911 C 351.759 48.667 352.035 48.496 352.346 48.416 L 352.418 48.697 C 352.164 48.762 351.938 48.902 351.764 49.101 L 351.764 49.101 Z  M 364.521 50.012 L 364.232 50 L 364.233 49.949 C 364.233 49.703 364.163 49.464 364.032 49.258 L 364.276 49.102 C 364.437 49.355 364.522 49.648 364.522 49.947 C 364.522 49.969 364.522 49.99 364.521 50.012 L 364.521 50.012 Z  M 351.224 50.404 C 351.179 50.256 351.156 50.102 351.156 49.947 C 351.156 49.782 351.182 49.618 351.233 49.461 L 351.508 49.551 C 351.466 49.679 351.445 49.812 351.445 49.947 C 351.445 50.073 351.464 50.199 351.501 50.319 L 351.224 50.404 Z  M 343.112 51.082 L 342.268 51.082 L 342.241 50.793 L 343.112 50.793 L 343.112 51.082 Z  M 344.559 51.082 L 343.691 51.082 L 343.691 50.793 L 344.559 50.793 L 344.559 51.082 Z  M 346.007 51.082 L 345.139 51.082 L 345.139 50.793 L 346.007 50.793 L 346.007 51.082 Z  M 347.455 51.082 L 346.586 51.082 L 346.586 50.793 L 347.455 50.793 L 347.455 51.082 Z  M 348.903 51.082 L 348.034 51.082 L 348.034 50.793 L 348.903 50.793 L 348.903 51.082 Z  M 350.351 51.082 L 349.482 51.082 L 349.482 50.793 L 350.351 50.793 L 350.351 51.082 Z  M 351.702 51.082 L 350.93 51.082 L 350.93 50.793 L 351.702 50.793 L 351.702 50.812 L 351.749 50.773 C 351.768 50.795 351.787 50.816 351.807 50.837 L 352.043 51.082 L 351.702 51.082 Z  M 364.387 51.082 L 363.637 51.082 L 363.871 50.837 C 363.967 50.737 364.046 50.624 364.106 50.5 L 364.366 50.627 C 364.339 50.684 364.308 50.739 364.273 50.793 L 364.387 50.793 L 364.387 51.082 Z  M 365.834 51.082 L 364.966 51.082 L 364.966 50.793 L 365.834 50.793 L 365.834 51.082 Z  M 367.341 51.084 C 367.321 51.083 367.302 51.082 367.282 51.082 L 366.414 51.082 L 366.414 50.793 L 367.282 50.793 C 367.309 50.793 367.335 50.794 367.36 50.795 L 367.341 51.084 Z  M 341.448 51.866 L 341.159 51.853 C 341.174 51.515 341.341 51.205 341.618 51.004 L 341.788 51.238 C 341.583 51.387 341.459 51.616 341.448 51.866 L 341.448 51.866 Z  M 368.377 51.967 L 368.249 51.903 L 368.102 51.903 L 368.103 51.903 C 368.103 51.652 367.989 51.418 367.791 51.261 L 367.972 51.034 C 368.239 51.247 368.392 51.563 368.392 51.903 L 368.392 51.937 L 368.377 51.967 Z  M 342.141 53.005 C 341.804 52.966 341.507 52.778 341.326 52.488 L 341.571 52.334 C 341.704 52.546 341.929 52.689 342.174 52.717 L 342.141 53.005 Z  M 367.36 53.01 L 367.34 52.721 C 367.589 52.703 367.815 52.574 367.958 52.365 L 368.197 52.529 C 368.003 52.811 367.698 52.986 367.36 53.01 Z  M 343.605 53.013 L 342.736 53.013 L 342.736 52.723 L 343.605 52.723 L 343.605 53.013 Z  M 345.053 53.013 L 344.184 53.013 L 344.184 52.723 L 345.053 52.723 L 345.053 53.013 Z  M 346.501 53.013 L 345.632 53.013 L 345.632 52.723 L 346.501 52.723 L 346.501 53.013 Z  M 347.949 53.013 L 347.08 53.013 L 347.08 52.723 L 347.949 52.723 L 347.949 53.013 Z  M 349.396 53.013 L 348.528 53.013 L 348.528 52.723 L 349.396 52.723 L 349.396 53.013 Z  M 350.844 53.013 L 349.975 53.013 L 349.975 52.723 L 350.844 52.723 L 350.844 53.013 Z  M 352.292 53.013 L 351.423 53.013 L 351.423 52.723 L 352.292 52.723 L 352.292 53.013 Z  M 353.74 53.013 L 352.871 53.013 L 352.871 52.723 L 353.74 52.723 L 353.74 53.013 Z  M 355.188 53.013 L 354.319 53.013 L 354.319 52.723 L 355.188 52.723 L 355.188 53.013 Z  M 356.635 53.013 L 355.767 53.013 L 355.767 52.723 L 356.635 52.723 L 356.635 53.013 Z  M 358.083 53.013 L 357.215 53.013 L 357.215 52.723 L 358.083 52.723 L 358.083 53.013 Z  M 359.531 53.013 L 358.662 53.013 L 358.662 52.723 L 359.531 52.723 L 359.531 53.013 Z  M 360.979 53.013 L 360.11 53.013 L 360.11 52.723 L 360.979 52.723 L 360.979 53.013 Z  M 362.427 53.013 L 361.558 53.013 L 361.558 52.723 L 362.427 52.723 L 362.427 53.013 Z  M 363.875 53.013 L 363.006 53.013 L 363.006 52.723 L 363.875 52.723 L 363.875 53.013 Z  M 365.322 53.013 L 364.454 53.013 L 364.454 52.723 L 365.322 52.723 L 365.322 53.013 Z  M 366.77 53.013 L 365.902 53.013 L 365.902 52.723 L 366.77 52.723 L 366.77 53.013 Z " fill="rgb(233,234,234)"/><path d=" M 363.191 55.379 L 359.885 55.379 C 360.132 55.12 360.287 54.773 360.287 54.389 C 360.287 53.599 359.641 52.953 358.851 52.953 L 358.19 52.953 C 358.091 52.093 357.355 51.419 356.47 51.419 L 352.417 51.419 C 351.531 51.419 350.796 52.093 350.696 52.953 L 348.645 52.953 C 347.856 52.953 347.21 53.599 347.21 54.389 C 347.21 54.773 347.364 55.12 347.612 55.379 L 338.177 55.379 C 337.646 55.379 337.212 55.813 337.212 56.344 C 337.212 56.874 337.646 57.309 338.177 57.309 L 363.191 57.309 C 363.722 57.309 364.156 56.874 364.156 56.344 C 364.156 55.813 363.722 55.379 363.191 55.379" fill="rgb(233,234,234)"/><path d=" M 367.122 93.09 L 367.173 94.002 L 366.67 94.002 L 366.67 93.632 L 364.184 91.862 L 366.67 93.367 L 366.717 92.058 L 366.075 91.291 L 366.717 91.807 L 366.922 89.506 L 367.105 92.787 L 369.659 91.45 L 367.122 93.09" fill="rgb(46,112,150)"/><path d=" M 371.57 91.862 C 371.57 92.634 371.382 93.362 371.048 94.002 L 367.173 94.002 L 367.122 93.09 L 369.659 91.45 L 367.105 92.787 L 366.922 89.506 L 366.717 91.807 L 366.075 91.291 L 366.717 92.058 L 366.67 93.367 L 364.184 91.862 L 366.67 93.632 L 366.67 94.002 L 362.795 94.002 C 362.462 93.362 362.273 92.634 362.273 91.862 C 362.273 89.295 364.355 87.214 366.922 87.214 C 369.489 87.214 371.57 89.295 371.57 91.862" fill="rgb(191,233,218)"/><path d=" M 267.143 89.987 L 267.177 90.6 L 266.839 90.6 L 266.839 90.351 L 265.168 89.161 L 266.839 90.173 L 266.871 89.293 L 266.439 88.777 L 266.871 89.124 L 267.008 87.577 L 267.132 89.783 L 268.849 88.884 L 267.143 89.987" fill="rgb(46,112,150)"/><path d=" M 270.133 89.161 C 270.133 89.68 270.007 90.169 269.783 90.6 L 267.177 90.6 L 267.143 89.987 L 268.849 88.884 L 267.132 89.783 L 267.008 87.577 L 266.871 89.124 L 266.439 88.777 L 266.871 89.293 L 266.839 90.173 L 265.168 89.161 L 266.839 90.351 L 266.839 90.6 L 264.234 90.6 C 264.009 90.169 263.883 89.68 263.883 89.161 C 263.883 87.435 265.282 86.036 267.008 86.036 C 268.734 86.036 270.133 87.435 270.133 89.161" fill="rgb(191,233,218)"/><path d=" M 312.616 89.987 L 312.65 90.6 L 312.312 90.6 L 312.312 90.351 L 310.64 89.161 L 312.312 90.173 L 312.343 89.293 L 311.912 88.777 L 312.343 89.124 L 312.481 87.577 L 312.604 89.783 L 314.321 88.884 L 312.616 89.987" fill="rgb(46,112,150)"/><path d=" M 315.606 89.161 C 315.606 89.68 315.48 90.169 315.256 90.6 L 312.65 90.6 L 312.616 89.987 L 314.321 88.884 L 312.604 89.783 L 312.481 87.577 L 312.343 89.124 L 311.912 88.777 L 312.343 89.293 L 312.312 90.173 L 310.64 89.161 L 312.312 90.351 L 312.312 90.6 L 309.706 90.6 C 309.482 90.169 309.355 89.68 309.355 89.161 C 309.355 87.435 310.755 86.036 312.481 86.036 C 314.207 86.036 315.606 87.435 315.606 89.161" fill="rgb(191,233,218)"/><path d=" M 320.231 101.31 L 320.343 103.324 L 319.234 103.324 L 319.234 102.507 L 313.744 98.598 L 319.234 101.923 L 319.337 99.032 L 317.92 97.338 L 319.337 98.477 L 319.789 93.396 L 320.194 100.641 L 325.833 97.688 L 320.231 101.31" fill="rgb(46,112,150)"/><path d=" M 330.051 98.598 C 330.051 100.302 329.637 101.91 328.901 103.324 L 320.343 103.324 L 320.231 101.31 L 325.833 97.688 L 320.194 100.641 L 319.789 93.396 L 319.337 98.477 L 317.92 97.338 L 319.337 99.032 L 319.234 101.923 L 313.744 98.598 L 319.234 102.507 L 319.234 103.324 L 310.676 103.324 C 309.94 101.91 309.524 100.302 309.524 98.598 C 309.524 92.93 314.12 88.336 319.789 88.336 C 325.456 88.336 330.051 92.93 330.051 98.598" fill="rgb(134,213,186)"/><path d=" M 357.934 101.642 L 358.042 103.588 L 356.97 103.588 L 356.97 102.798 L 351.665 99.021 L 356.97 102.233 L 357.069 99.44 L 355.7 97.803 L 357.069 98.904 L 357.506 93.994 L 357.898 100.995 L 363.347 98.142 L 357.934 101.642" fill="rgb(46,112,150)"/><path d=" M 367.424 99.021 C 367.424 100.668 367.023 102.221 366.312 103.588 L 358.042 103.588 L 357.934 101.642 L 363.347 98.142 L 357.898 100.995 L 357.506 93.994 L 357.069 98.904 L 355.7 97.803 L 357.069 99.44 L 356.97 102.233 L 351.665 99.021 L 356.97 102.798 L 356.97 103.588 L 348.7 103.588 C 347.989 102.221 347.587 100.668 347.587 99.021 C 347.587 93.544 352.029 89.104 357.506 89.104 C 362.983 89.104 367.424 93.544 367.424 99.021" fill="rgb(134,213,186)"/><path d=" M 251.463 101.21 L 251.541 102.627 L 250.761 102.627 L 250.761 102.052 L 246.899 99.302 L 250.761 101.641 L 250.833 99.607 L 249.836 98.416 L 250.833 99.217 L 251.151 95.642 L 251.436 100.739 L 255.403 98.662 L 251.463 101.21 Z " fill="rgb(46,112,150)"/><path d=" M 258.371 99.302 C 258.371 100.501 258.08 101.632 257.562 102.627 L 251.541 102.627 L 251.463 101.21 L 255.403 98.662 L 251.436 100.739 L 251.151 95.642 L 250.833 99.217 L 249.836 98.416 L 250.833 99.607 L 250.761 101.641 L 246.899 99.302 L 250.761 102.052 L 250.761 102.627 L 244.74 102.627 C 244.223 101.632 243.93 100.501 243.93 99.302 C 243.93 95.315 247.163 92.082 251.151 92.082 C 255.139 92.082 258.371 95.315 258.371 99.302 Z " fill="rgb(191,233,218)"/><path d=" M 261.737 102.017 L 261.845 103.963 L 260.773 103.963 L 260.773 103.173 L 255.468 99.397 L 260.773 102.609 L 260.872 99.815 L 259.503 98.179 L 260.872 99.279 L 261.309 94.369 L 261.701 101.371 L 267.15 98.517 L 261.737 102.017" fill="rgb(46,112,150)"/><path d=" M 271.227 99.397 C 271.227 101.043 270.826 102.596 270.115 103.963 L 261.845 103.963 L 261.737 102.017 L 267.15 98.517 L 261.701 101.371 L 261.309 94.369 L 260.872 99.279 L 259.503 98.179 L 260.872 99.815 L 260.773 102.609 L 255.468 99.397 L 260.773 103.173 L 260.773 103.963 L 252.503 103.963 C 251.792 102.596 251.39 101.043 251.39 99.397 C 251.39 93.919 255.832 89.479 261.309 89.479 C 266.786 89.479 271.227 93.919 271.227 99.397 Z " fill="rgb(134,213,186)"/><path d=" M 358.236 84.335 C 358.487 84.417 358.727 84.446 358.953 84.441 L 358.952 84.445 C 359.563 85.038 359.371 85.823 358.826 86.546 C 358.595 86.853 358.238 86.856 357.81 86.695 C 357.228 86.48 356.518 85.962 355.836 85.498 C 354.654 84.695 352.261 82.077 352.261 82.077 C 350.183 81.67 350.573 79.549 351.116 79.483 C 351.658 79.421 352.22 80.754 352.22 80.754 C 352.22 80.754 352.327 79.751 352.6 79.773 C 352.874 79.791 352.616 80.686 353.077 81.491 C 353.538 82.295 357.18 83.99 358.236 84.335" fill="rgb(231,196,148)"/><path d=" M 281.819 64.252 L 270.909 64.252 C 268.907 64.252 267.284 65.875 267.284 67.877 L 267.284 78.782 L 267.284 91.048 L 267.284 101.953 C 267.284 103.955 268.907 105.578 270.909 105.578 L 281.815 105.578 L 294.08 105.578 L 304.985 105.578 C 306.987 105.578 308.61 103.955 308.61 101.953 L 308.61 91.048 C 311.995 91.048 314.743 88.3 314.743 84.915 C 314.743 81.53 311.995 78.782 308.61 78.782 L 308.61 67.877 C 308.61 65.875 306.987 64.252 304.985 64.252 L 294.076 64.252 C 294.023 67.588 291.296 70.278 287.947 70.278 C 284.599 70.278 281.872 67.588 281.819 64.252" fill="rgb(53,157,237)"/><path d=" M 340.54 56.125 L 351.172 58.553 C 353.123 58.998 355.067 57.777 355.513 55.826 L 357.94 45.194 C 361.24 45.947 364.529 43.885 365.284 40.58 C 366.037 37.28 363.97 33.99 360.67 33.236 L 363.097 22.609 C 363.542 20.657 362.321 18.713 360.37 18.268 L 349.734 15.84 C 349.746 15.804 349.754 15.769 349.763 15.733 C 350.516 12.432 348.453 9.143 345.149 8.389 C 341.849 7.635 338.558 9.702 337.805 13.003 C 337.797 13.039 337.789 13.074 337.784 13.111 L 327.153 10.684 C 325.201 10.238 323.258 11.459 322.812 13.411 L 320.385 24.038 C 323.685 24.792 325.752 28.082 324.999 31.382 C 324.245 34.686 320.955 36.749 317.655 35.996 L 315.228 46.628 C 314.782 48.579 316.003 50.523 317.955 50.968 L 328.582 53.395 C 329.336 50.095 332.626 48.028 335.926 48.781 C 339.231 49.536 341.293 52.825 340.54 56.125" fill="rgb(132,84,239)"/><path d=" M 262.688 48.975 L 266.526 59.183 C 267.231 61.057 269.321 62.004 271.195 61.3 L 281.402 57.461 C 282.594 60.63 286.129 62.236 289.301 61.043 C 292.47 59.852 294.074 56.313 292.883 53.145 L 303.086 49.308 C 304.96 48.603 305.908 46.513 305.203 44.639 L 301.364 34.428 C 301.4 34.418 301.434 34.406 301.469 34.393 C 304.637 33.201 306.243 29.666 305.05 26.494 C 303.859 23.325 300.32 21.721 297.151 22.912 C 297.117 22.925 297.083 22.938 297.05 22.955 L 293.211 12.747 C 292.507 10.873 290.416 9.926 288.543 10.63 L 278.339 14.467 C 279.53 17.636 277.926 21.174 274.757 22.366 C 271.585 23.559 268.05 21.953 266.858 18.784 L 256.651 22.622 C 254.777 23.327 253.829 25.417 254.534 27.291 L 258.371 37.495 C 261.539 36.303 265.078 37.908 266.27 41.077 C 267.462 44.249 265.856 47.784 262.688 48.975" fill="rgb(63,129,179)"/><path d=" M 329.101 64.692 L 326.063 64.692 C 326.063 64.692 326.166 64.173 326.276 63.56 C 326.276 63.56 326.276 63.56 326.276 63.556 C 326.333 63.4 327.687 63.49 327.687 63.49 L 329.101 64.692 Z " fill="rgb(37,49,56)"/><path d=" M 322.665 58.174 C 321.168 58.321 320.025 58.175 320.025 58.175 C 320.025 58.261 320.025 58.347 320.029 58.433 C 320.045 58.968 320.213 59.496 320.508 59.941 C 320.773 60.342 321.055 60.91 320.99 61.422 C 320.888 62.231 320.385 62.713 318.573 61.712 L 318.621 63.345 C 318.621 63.345 321.129 64.897 322.343 64.218 C 323.539 63.554 323.557 62.339 323.522 60.042 L 322.665 58.174" fill="rgb(54,71,83)"/><path d=" M 319.375 50.101 C 319.379 50.167 318.825 51.026 319.609 51.893 C 316.363 52.412 316.415 50.167 316.415 50.167 C 316.991 50.31 317.96 50.4 319.252 50.13 C 319.293 50.122 319.334 50.114 319.375 50.101" fill="rgb(238,213,176)"/><path d=" M 334.393 48.629 C 334.467 48.801 333.885 49.508 332.785 49.603 C 332.785 49.603 331.329 52.828 330.156 53.041 C 329.485 53.168 328.668 53.119 327.887 52.943 C 328.75 52.007 328.541 51.111 328.541 51.111 C 328.95 51.254 329.351 51.328 329.661 51.254 C 330.442 51.066 331.534 49.456 331.841 49.108 C 332.147 48.76 333.018 47.922 333.239 48.045 C 333.459 48.163 332.666 48.732 332.777 48.842 C 332.887 48.953 334.316 48.461 334.393 48.629" fill="rgb(238,213,176)"/><path d=" M 328.149 47.129 C 328.007 47.754 327.631 49.314 326.817 49.359 C 326.371 49.383 325.875 49.213 325.875 49.213 C 325.875 49.213 325.739 49.377 325.552 49.664 C 324.967 49.39 324.162 49.038 323.884 48.953 C 323.856 48.944 323.827 48.936 323.794 48.932 C 324.001 48.631 324.171 48.409 324.453 47.873 C 324.551 47.98 324.98 48.409 325.503 48.454 C 325.961 48.491 326.318 48.185 326.318 48.062 C 326.318 47.821 326.493 47.354 326.877 47.362 C 327.257 47.37 327.037 48.069 327.037 48.102 C 327.037 48.139 327.302 48.102 327.302 48.102 C 327.498 47.469 327.781 47.235 328.149 47.129 Z " fill="rgb(238,213,176)"/><path d=" M 302.514 36.846 C 302.584 37.288 302.616 40.056 300.605 43.225 C 300.605 43.225 302.938 49.109 302.902 50.405 C 302.902 50.405 302.832 50.459 302.701 50.552 C 301.982 51.059 299.414 52.678 296.703 52.245 L 295.421 46.114 L 288.683 46.761 L 288.307 45.976 C 288.393 45.947 293.904 43.678 296.627 42.288 C 297.138 42.026 297.555 41.793 297.812 41.617 C 297.87 41.576 297.927 41.536 297.984 41.495 C 299.546 40.395 300.875 39.033 301.627 36.507 C 301.627 36.507 302.445 36.405 302.514 36.846" fill="rgb(114,99,147)"/><path d=" M 287.202 45.576 C 287.398 45.429 288.307 45.976 288.307 45.976 L 288.683 46.761 C 287.919 47.214 287.59 47.292 286.928 47.321 C 286.261 47.345 286.049 47.063 286.11 46.687 C 286.167 46.315 287.542 46.057 287.542 46.057 C 287.262 45.869 287.006 45.72 287.202 45.576" fill="rgb(238,213,176)"/><path d=" M 301.651 34.914 C 301.79 34.896 301.966 35.571 301.966 35.571 C 301.966 35.571 302.158 34.97 302.347 35.162 C 302.539 35.35 303.05 36.298 302.514 36.846 C 302.445 36.405 301.627 36.507 301.627 36.507 C 301.606 36.437 301.367 35.023 301.651 34.914" fill="rgb(238,213,176)"/><path d=" M 296.251 39.766 C 296.635 39.901 296.57 40.411 296.664 40.57 C 296.758 40.734 296.688 41.078 297.608 40.89 C 297.608 40.935 297.964 41.446 297.984 41.495 C 297.927 41.536 297.87 41.576 297.812 41.617 C 297.555 41.793 297.138 42.026 296.627 42.288 C 296.308 41.607 296.099 41.561 296.099 41.561 C 296.099 41.561 295.486 41.777 295.113 41.53 C 294.823 41.337 294.651 40.782 294.599 40.5 C 294.481 39.862 294.599 39.046 294.599 39.046 C 294.64 39.059 294.681 39.075 294.718 39.083 C 295.343 39.247 295.552 40.048 295.556 40.363 L 295.74 40.363 C 295.74 40.363 295.451 39.347 296.251 39.766" fill="rgb(238,213,176)"/><path d=" M 297.398 62.908 C 297.398 62.908 297.398 64.015 297.398 64.252 C 297.207 64.293 294.23 64.252 294.23 64.252 L 296.053 62.875 L 297.398 62.908 Z " fill="rgb(37,49,56)"/><path d=" M 303.94 62.666 C 303.94 62.666 302.474 64.369 301.234 64.271 C 301.193 64.303 302.272 62.552 302.321 62.29 L 303.392 61.603 L 303.94 62.666" fill="rgb(37,49,56)"/><path d=" M 296.703 52.245 C 299.414 52.678 301.982 51.059 302.701 50.552 C 303.302 52.093 302.794 54.19 302.546 55.795 C 302.152 58.342 303.483 61.761 303.483 61.761 L 302.321 62.29 C 302.329 62.245 302.333 62.217 302.333 62.217 C 302.333 62.217 300.698 59.739 300.211 58.026 C 299.725 56.313 299.88 53.353 299.88 53.353 C 298.089 56.264 297.398 62.908 297.398 62.908 L 296.053 62.875 C 296.053 62.875 295.833 59.535 295.886 56.656 C 295.935 53.778 296.703 52.245 296.703 52.245 Z " fill="rgb(54,71,83)"/><path d=" M 296.401 40.579 C 296.308 40.42 296.483 39.801 296.176 39.739 C 295.669 39.505 295.74 40.363 295.74 40.363 L 295.556 40.363 C 295.552 40.048 295.343 39.247 294.718 39.083 C 294.681 39.075 294.64 39.059 294.599 39.046 C 293.978 38.817 293.119 38.049 293.671 37.967 C 294.26 37.881 295.973 37.472 296.864 38.028 C 297.69 38.539 297.617 40.334 297.608 40.89 C 296.688 41.078 296.496 40.743 296.401 40.579" fill="rgb(126,84,55)"/><path d=" M 257.864 90.734 L 256.478 89.941 L 254.94 92.082 L 255.188 93.044 C 260.085 97.157 258.915 104.085 258.915 104.085 L 260.713 104.085 C 260.713 104.085 261.471 102.545 261.223 98.073 C 260.967 93.446 257.864 90.734 257.864 90.734 Z " fill="rgb(54,71,83)"/><path d=" M 248.958 104.056 L 250.124 105.262 C 250.224 105.365 250.136 105.537 249.994 105.517 L 246.883 105.081 L 247.498 103.977" fill="rgb(37,49,56)"/><path d=" M 259.077 104.085 L 258.876 105.41 L 261.773 105.41 C 261.928 105.41 261.996 105.213 261.873 105.118 L 260.54 104.085" fill="rgb(37,49,56)"/><path d=" M 251.612 90.312 C 251.486 91.311 250.91 94.356 249.978 97.151 C 248.818 100.634 247.272 103.873 247.272 103.977 L 249.217 104.227 C 249.217 104.227 251.082 101.472 252.422 99.233 C 253.758 96.993 255.188 93.044 255.188 93.044 C 255.188 93.044 256.599 92.226 256.623 90.734 C 256.647 89.242 254.355 89.579 254.355 89.579 L 251.612 90.312" fill="rgb(54,71,83)"/><path d=" M 260.085 84.62 C 259.88 84.534 259.678 84.448 259.491 84.359 C 259.398 83.239 259.062 82.134 258.401 81.574 C 258.618 81.724 259.488 82.302 260.227 82.422 C 260.316 82.437 260.454 82.463 260.63 82.493 C 260.645 82.496 260.775 84.269 260.104 84.572 L 260.085 84.62 Z " fill="rgb(55,158,156)"/><path d=" M 258.349 81.533 C 258.368 81.545 258.383 81.56 258.401 81.574 C 259.202 82.215 259.36 83.262 259.382 84.224 C 259.423 85.999 258.992 87.641 258.401 89.299 C 258.277 89.646 258.149 89.992 258.018 90.337 C 257.999 90.386 257.917 90.716 257.864 90.734 C 255.744 91.462 252.336 90.525 251.612 90.312 C 251.523 90.282 251.474 90.267 251.474 90.267 C 251.474 90.267 251.59 88.427 252.825 85.184 C 254.061 81.94 256.464 80.82 256.535 80.75 C 256.535 80.75 257.405 81.81 257.95 81.41 C 257.95 81.41 257.954 81.377 257.965 81.325 L 258.028 81.336 C 258.144 81.388 258.248 81.455 258.349 81.533" fill="rgb(53,157,237)"/><path d=" M 258.715 79.13 C 258.715 79.13 258.599 78.559 258.308 78.559 C 258.017 78.559 257.607 78.768 258.11 79.35 C 258.11 79.35 257.853 79.895 256.849 79.929 C 256.935 79.652 257.006 79.354 257.013 79.107 C 257.024 78.465 256.953 77.006 258.006 76.704 C 259.055 76.401 259.697 76.644 260.163 77.006 C 260.63 77.368 261.048 77.506 261.294 77.521 C 261.294 77.521 260.902 78.114 260.391 78.275 C 260.253 78.316 260.111 78.331 259.962 78.29 C 259.264 78.103 259.111 78.189 258.913 78.659 C 258.715 79.13 258.715 79.13 258.715 79.13" fill="rgb(126,84,55)"/><path d=" M 267.288 83.945 C 267.288 83.993 263.952 85.262 261.615 85.195 C 261.197 85.053 260.787 84.904 260.391 84.743 C 260.286 84.702 260.186 84.661 260.085 84.62 L 260.104 84.572 C 260.775 84.269 260.645 82.496 260.63 82.493 C 262.123 82.769 266.356 83.564 267.288 83.105 L 267.288 83.945" fill="rgb(229,200,164)"/><path d=" M 258.308 78.559 C 258.599 78.559 258.715 79.13 258.715 79.13 C 258.715 79.13 258.715 79.13 258.913 78.659 C 259.111 78.189 259.264 78.103 259.962 78.29 C 260.111 78.331 260.253 78.316 260.391 78.275 C 260.395 78.458 260.361 78.951 260.003 79.824 C 259.536 80.97 258.61 80.712 258.323 80.75 C 258.103 80.78 258.002 81.156 257.965 81.325 C 257.954 81.377 257.95 81.41 257.95 81.41 C 257.405 81.81 256.535 80.75 256.535 80.75 C 256.535 80.75 256.711 80.369 256.849 79.929 C 257.853 79.895 258.11 79.35 258.11 79.35 C 257.607 78.768 258.017 78.559 258.308 78.559" fill="rgb(238,213,176)"/><path d=" M 260.317 83.641 C 260.216 83.591 260.12 83.541 260.023 83.491 C 259.826 83.387 259.633 83.283 259.456 83.177 C 258.811 82.804 258.276 82.426 257.945 82.062 C 257.672 81.764 257.333 81.534 256.938 81.469 C 256.491 81.395 255.96 81.474 255.624 82.118 C 254.962 83.388 255.559 84.361 256.795 84.866 C 257.273 85.059 258.038 85.342 258.926 85.633 C 259.082 85.684 259.242 85.736 259.407 85.785 C 259.454 83.897 260.317 83.641 260.317 83.641" fill="rgb(114,99,147)"/><path d=" M 266.239 85.906 C 266.861 85.947 267.375 84.948 267.375 85.278 C 267.375 85.566 267.192 85.898 267.147 85.973 C 267.265 85.83 268.304 84.579 268.603 85.34 C 268.919 86.149 267.482 87.034 267.412 87.106 C 267.342 87.179 265.517 87.013 263.371 86.74 C 262.197 86.593 260.715 86.196 259.407 85.785 C 259.454 83.897 260.317 83.641 260.317 83.641 C 260.696 83.837 261.092 84.022 261.495 84.202 C 263.624 85.151 265.897 85.882 266.239 85.906" fill="rgb(238,213,176)"/><path d=" M 313.444 91.371 L 313.444 102.28 C 313.444 104.283 315.067 105.905 317.069 105.905 L 327.974 105.905 L 340.239 105.905 L 351.144 105.905 C 353.147 105.905 354.77 104.283 354.77 102.28 L 354.77 91.375 L 354.77 79.11 L 354.77 68.205 C 354.77 66.203 353.147 64.58 351.144 64.58 L 340.239 64.58 C 340.239 61.195 337.492 58.447 334.107 58.447 C 330.721 58.447 327.974 61.195 327.974 64.58 L 317.069 64.58 C 315.067 64.58 313.444 66.203 313.444 68.205 L 313.444 79.114 C 316.78 79.167 319.47 81.894 319.47 85.242 C 319.47 88.591 316.78 91.318 313.444 91.371" fill="rgb(114,99,147)"/><path d=" M 322.125 58.216 C 322.125 58.216 322.109 59.911 323.525 60.226 C 324.828 60.515 327.096 60.226 327.096 60.226 C 327.096 60.226 326.438 61.743 326.17 63.617 C 326.17 63.617 326.941 63.699 327.751 63.528 C 327.751 63.528 329.328 60.647 329.376 59.247 C 329.424 57.848 326.084 57.272 326.084 57.272 L 322.125 58.216" fill="rgb(54,71,83)"/><path d=" M 325.315 49.553 C 325.912 49.832 326.53 50.134 326.869 50.318 C 327.27 50.535 327.942 50.836 328.563 51.049 C 328.563 51.049 328.75 52.122 327.887 53.058 C 327.29 52.923 326.698 52.75 326.256 52.648 C 326.256 52.648 326.128 55.429 326.084 57.272 C 323.345 58.6 319.802 58.288 319.802 58.288 C 319.778 55.557 320.651 51.853 320.651 51.853 C 320.303 51.899 319.904 51.951 319.668 51.951 C 318.748 51.085 319.379 50.167 319.375 50.101 C 320.967 49.401 321.413 48.903 322.125 48.818 C 322.61 48.761 323.198 48.818 323.794 48.932 C 323.827 48.936 323.856 48.944 323.884 48.953 C 324.162 49.038 324.731 49.28 325.315 49.553" fill="rgb(53,157,237)"/><path d=" M 318.605 61.752 C 318.106 61.632 317.744 61.668 317.689 61.677 C 317.635 61.686 317.632 63.237 317.65 63.698 C 317.666 64.095 317.881 64.457 318.441 64.58 C 318.557 64.606 318.646 64.48 318.596 64.372 C 318.476 64.117 318.365 63.701 318.621 63.294 L 318.605 61.752" fill="rgb(37,49,56)"/><path d=" M 355.391 81.721 C 355.391 81.721 355.283 82.453 355.44 82.993 C 355.599 83.534 355.723 83.658 355.831 83.692 C 355.939 83.725 356.297 83.725 356.297 83.725 L 356.638 84.59 L 357.76 83.526 L 356.92 81.347 L 355.391 81.721" fill="rgb(238,213,176)"/><path d=" M 354.117 105.025 C 354.008 105.649 353.963 106.081 353.963 106.081 L 351.214 106.081 L 352.322 105.205 C 352.318 105.209 353.009 105.6 354.113 105.025 L 354.117 105.025" fill="rgb(46,112,150)"/><path d=" M 359.384 105.292 C 359.384 105.292 360.086 105.63 361.006 105.025 C 361.056 105.117 361.305 105.802 361.315 105.865 C 361.326 105.937 361.288 105.96 361.23 105.98 C 361.219 105.984 361.208 105.988 361.196 105.992 C 361.003 106.053 359.116 106.116 358.697 106.135 C 358.633 106.138 358.568 106.14 358.503 106.142 C 358.47 106.143 358.437 106.142 358.404 106.143 C 358.374 106.144 358.346 106.149 358.319 106.135 C 358.296 106.124 358.306 106.108 358.316 106.087 C 358.337 106.045 358.373 106.014 358.408 105.983 C 358.501 105.899 358.609 105.832 358.711 105.761 C 358.815 105.689 358.919 105.616 359.022 105.544 C 359.143 105.46 359.263 105.376 359.384 105.292" fill="rgb(46,112,150)"/><path d=" M 354.831 87.265 C 355.286 87.318 355.631 87.228 355.781 86.874 C 356.135 86.04 356.131 85.233 355.394 84.805 L 355.394 84.801 C 355.684 84.73 355.924 84.606 356.108 84.489 C 356.375 84.324 356.521 84.166 356.521 84.166 C 356.442 84.519 356.318 84.853 356.333 85.011 C 356.364 85.293 356.773 85.263 356.848 85.511 C 356.927 85.762 356.63 86.074 356.739 86.42 C 356.848 86.765 357.115 87.047 358.4 87.141 C 359.339 87.209 360.011 86.574 360.368 85.947 C 360.773 86.551 360.991 87.622 361.119 88.681 C 361.277 89.97 361.292 91.243 361.326 91.664 C 360.362 93.835 355.297 92.299 355.297 92.299 C 355.526 90.349 354.831 87.28 354.831 87.28 L 354.831 87.265" fill="rgb(53,157,237)"/><path d=" M 357.505 97.017 C 357.505 97.017 356.799 97.955 355.641 100.623 C 354.948 102.219 354.305 103.932 354.117 105.025 L 354.113 105.025 C 353.009 105.6 352.318 105.209 352.322 105.205 L 352.882 104.766 C 352.882 104.766 352.851 102.228 354.726 96.345 C 355.259 96.537 356.303 97.005 357.505 97.017 Z " fill="rgb(238,213,176)"/><path d=" M 361.006 105.025 L 361.003 105.025 C 360.086 105.63 359.384 105.292 359.384 105.292 L 359.771 105.018 C 359.771 105.018 357.855 103.286 357.821 97.017 L 357.821 97.013 C 358.764 96.994 359.744 96.844 360.537 96.457 C 360.495 96.476 359.26 101.832 361.006 105.025 Z " fill="rgb(238,213,176)"/><path d=" M 354.673 84.872 C 354.936 84.891 355.177 84.861 355.394 84.801 L 355.394 84.805 C 356.131 85.233 356.26 85.968 355.781 86.874 C 355.602 87.214 355.286 87.318 354.831 87.265 C 354.215 87.198 353.4 86.867 352.626 86.581 C 351.285 86.089 348.329 84.128 348.329 84.128 C 346.19 83.343 346.674 82.035 346.846 81.89 C 347.152 81.631 347.968 82.855 347.968 82.855 C 347.968 82.855 347.726 82.157 347.997 82.112 C 348.267 82.063 348.182 82.605 348.825 83.274 C 349.467 83.942 353.565 84.794 354.673 84.872" fill="rgb(238,213,176)"/><path d=" M 355.3 81.773 C 355.252 81.773 355.203 81.762 355.15 81.732 C 354.91 81.6 355.113 81.21 355.113 81.21 C 355.113 81.21 355.557 79.452 357.491 79.643 C 358.93 79.786 358.384 81.477 359.102 81.852 C 359.823 82.228 360.199 82.727 359.793 83.697 C 359.793 83.697 360.093 83.956 360.338 84.309 C 360.548 84.606 360.717 84.966 360.638 85.293 C 360.593 85.488 360.503 85.718 360.368 85.947 C 360.011 86.574 359.339 87.209 358.4 87.141 C 357.115 87.047 356.848 86.765 356.739 86.42 C 356.63 86.074 356.927 85.762 356.848 85.511 C 356.773 85.263 356.364 85.293 356.333 85.011 C 356.285 84.556 356.635 84.115 356.446 83.654 C 356.395 83.531 356.305 83.429 356.225 83.322 C 356.006 83.03 356.12 82.758 356.057 82.428 C 356.022 82.243 355.939 82.048 355.817 81.903 C 355.662 81.717 355.517 81.773 355.3 81.773" fill="rgb(126,84,55)"/><path d=" M 355.297 92.299 C 355.297 92.299 359.106 93.685 361.326 91.664 C 361.39 92.43 360.926 96.597 360.926 96.597 C 360.166 96.918 359.212 97.186 357.63 97.077 C 354.906 96.891 354.681 96.312 354.245 96.135 L 355.297 92.299" fill="rgb(114,99,147)"/><path d=" M 327.918 45.827 C 327.946 45.832 327.975 45.835 328.004 45.839 C 328.271 45.871 328.808 45.903 328.942 46.201 C 329.01 46.353 328.984 46.573 328.924 46.723 C 328.83 46.957 328.64 47.027 328.407 47.069 C 328.138 47.118 327.869 47.202 327.674 47.405 C 327.489 47.597 327.38 47.85 327.302 48.102 C 327.302 48.102 327.037 48.139 327.037 48.102 C 327.037 48.069 327.257 47.37 326.877 47.362 C 326.493 47.354 326.432 47.851 326.432 48.092 C 326.432 48.215 325.961 48.491 325.503 48.454 C 324.98 48.409 324.462 48.139 324.364 48.033 C 324.409 47.943 324.543 47.689 324.583 47.591 C 324.873 46.891 325.067 45.619 325.983 45.485 C 326.18 45.456 326.381 45.477 326.576 45.514 C 327.028 45.597 327.463 45.759 327.918 45.827" fill="rgb(126,84,55)"/></g></g></svg>