<?xml version="1.0" encoding="UTF-8" standalone="no"?><!-- Generator: Gravit.io --><svg xmlns="http://www.w3.org/2000/svg" xmlns:xlink="http://www.w3.org/1999/xlink" style="isolation:isolate" viewBox="666.02 381.98 587.958 518.708" width="587.958pt" height="518.708pt"><g><g><linearGradient id="_lgradient_4" x1="0.8535533905932737" y1="0.8535533905932738" x2="-4.440892098500626e-16" y2="5.551115123125783e-16" gradientTransform="matrix(587.958,0,0,-503.596,666.02,885.576)" gradientUnits="userSpaceOnUse"><stop offset="0%" stop-opacity="1" style="stop-color:rgb(53,157,237)"/><stop offset="52.5%" stop-opacity="1" style="stop-color:rgb(111,119,252)"/><stop offset="99.58333333333333%" stop-opacity="1" style="stop-color:rgb(131,85,240)"/><stop offset="100%" stop-opacity="1" style="stop-color:rgb(0,0,0)"/></linearGradient><path d=" M 1225.979 770.183 L 1182.579 770.183 C 1187.643 765.108 1190.788 758.116 1190.788 750.424 L 1190.788 748.727 C 1190.788 733.327 1178.188 720.728 1162.788 720.728 L 1151.777 720.728 C 1140.144 717.009 1131.717 706.119 1131.717 693.252 C 1131.717 677.32 1144.633 664.404 1160.565 664.404 L 1199.355 664.404 C 1214.753 664.404 1227.355 651.804 1227.355 636.404 L 1227.355 634.707 C 1227.355 619.307 1214.753 606.707 1199.355 606.707 L 1188.04 606.707 C 1172.108 606.707 1159.192 593.791 1159.192 577.859 C 1159.192 561.925 1172.108 549.011 1188.04 549.011 L 1193.011 549.011 C 1208.411 549.011 1221.011 536.411 1221.011 521.011 L 1221.011 519.313 C 1221.011 503.913 1208.411 491.313 1193.011 491.313 L 1182.579 491.313 C 1169.7 488.537 1160.083 477.588 1160.083 464.495 C 1160.083 449.304 1173.024 436.989 1188.987 436.989 L 1211.849 436.989 C 1226.976 436.989 1239.355 424.612 1239.355 409.485 C 1239.355 394.357 1226.976 381.98 1211.849 381.98 L 741.081 381.98 C 725.953 381.98 713.575 394.357 713.575 409.485 C 713.575 424.612 725.953 436.989 741.081 436.989 L 780.201 436.989 C 796.165 436.989 809.105 449.304 809.105 464.495 C 809.105 477.588 799.488 488.537 786.611 491.313 L 724.242 491.313 C 708.842 491.313 696.242 503.913 696.242 519.313 L 696.242 521.011 C 696.242 536.411 708.842 549.011 724.242 549.011 L 780.04 549.011 C 795.972 549.011 808.888 561.925 808.888 577.859 C 808.888 593.791 795.972 606.707 780.04 606.707 L 730.586 606.707 C 715.186 606.707 702.586 619.307 702.586 634.707 L 702.586 636.404 C 702.586 651.804 715.186 664.404 730.586 664.404 L 752.566 664.404 C 768.499 664.404 781.415 677.32 781.415 693.252 C 781.415 706.119 772.987 717.009 761.355 720.728 L 694.02 720.728 C 678.62 720.728 666.02 733.327 666.02 748.727 L 666.02 750.424 C 666.02 765.824 678.62 778.424 694.02 778.424 L 737.421 778.424 C 732.356 783.497 729.213 790.489 729.213 798.183 L 729.213 799.879 C 729.213 815.279 741.812 827.879 757.213 827.879 L 755.656 827.879 C 771.589 827.879 784.505 840.795 784.505 856.727 L 784.505 856.728 C 784.505 872.66 771.589 885.576 755.656 885.576 L 799.616 885.576 L 1119.696 885.576 L 1163.656 885.576 C 1147.724 885.576 1134.808 872.66 1134.808 856.728 L 1134.808 856.727 C 1134.808 840.795 1147.724 827.879 1163.656 827.879 L 1225.979 827.879 C 1241.38 827.879 1253.979 815.279 1253.979 799.879 L 1253.979 798.183 C 1253.979 782.781 1241.38 770.183 1225.979 770.183" fill="url(#_lgradient_4)"/><path d=" M 1124.688 662.549 C 1124.688 662.549 1126.232 639.38 1132.411 634.747 C 1138.588 630.112 1172.571 631.657 1172.571 631.657 C 1172.571 631.657 1183.383 605.397 1188.017 606.943 C 1192.651 608.488 1191.107 613.121 1191.107 613.121 L 1177.204 645.559 L 1137.044 661.005 L 1124.688 662.549 Z " fill="rgb(248,162,149)"/><path d=" M 796.687 662.549 C 796.687 662.549 795.143 639.38 788.964 634.747 C 782.785 630.112 748.803 631.657 748.803 631.657 C 748.803 631.657 737.99 605.397 733.357 606.943 C 728.723 608.488 730.268 613.121 730.268 613.121 L 744.169 645.559 L 784.329 661.005 L 796.687 662.549 Z " fill="rgb(248,162,149)"/><path d=" M 899.428 886.667 L 890.979 723.045 L 973.361 723.045 L 971.249 886.667 L 899.428 886.667 Z " fill="rgb(46,104,153)"/><path d=" M 772.687 658.459 L 793.811 751.033 C 793.811 751.033 798.035 766.104 817.047 766.104 L 903.653 774.716 L 902.597 723.045 L 821.272 723.045 L 795.923 652 L 772.687 658.459 Z " fill="rgb(46,104,153)"/><path d=" M 1021.945 886.667 L 1030.395 723.045 L 969.136 723.045 L 971.249 886.667 L 1021.945 886.667 Z " fill="rgb(46,104,153)"/><path d=" M 1148.688 658.459 L 1127.564 751.033 C 1127.564 751.033 1123.339 766.104 1104.327 766.104 L 1017.72 774.716 L 1018.777 723.045 L 1100.103 723.045 L 1125.451 652 L 1148.688 658.459 Z " fill="rgb(46,104,153)"/><path d=" M 842.969 768.681 L 817.047 766.104 C 798.035 766.104 793.811 751.033 793.811 751.033 L 793.727 750.667 L 854.792 750.667 L 842.969 768.681" fill="rgb(35,83,131)"/><path d=" M 1069.644 769.553 L 1057.249 750.667 L 1127.647 750.667 L 1127.564 751.033 C 1127.564 751.033 1123.339 766.104 1104.327 766.104 L 1069.644 769.553" fill="rgb(35,83,131)"/><path d=" M 1021.757 888 L 1053.477 888 L 1096.391 833.451 C 1096.391 833.451 1105.455 820.691 1093.503 805.908 L 1045.749 733.143 L 1006.232 766.451 L 1057.361 829.693 L 1021.757 888 Z " fill="rgb(46,104,153)"/><path d=" M 890.283 888 L 858.561 888 L 815.649 833.451 C 815.649 833.451 806.585 820.691 818.539 805.908 L 866.292 733.143 L 905.808 766.451 L 854.679 829.693 L 890.283 888 Z " fill="rgb(46,104,153)"/><path d=" M 1030.011 888 L 1021.757 888 L 1057.361 829.693 L 1050.021 820.612 L 1050.021 793.129 L 1078.731 825.609 C 1059.052 845.635 1049.919 868.204 1030.011 888 Z " fill="rgb(39,89,139)"/><path d=" M 890.283 888 L 881.275 888 C 873.843 877.851 866.484 867.646 859.128 857.441 C 851.496 846.851 848.407 839.256 838.764 826.26 C 850.644 814.351 860.885 801.224 871.353 788.273 L 871.353 809.068 L 854.679 829.693 L 890.283 888 Z " fill="rgb(39,89,139)"/><path d=" M 974.021 734.667 L 947.353 734.667 L 947.353 693.333 L 974.021 693.333 L 974.021 734.667 Z " fill="rgb(248,162,149)"/><path d=" M 974.021 734.667 L 947.353 700 L 974.021 693.333 L 974.021 734.667 Z " fill="rgb(247,144,131)"/><path d=" M 990.021 701.333 L 927.353 701.333 C 914.153 701.333 903.353 690.533 903.353 677.333 L 903.353 596 C 903.353 582.8 914.153 572 927.353 572 L 990.021 572 C 1003.22 572 1014.021 582.8 1014.021 596 L 1014.021 677.333 C 1014.021 690.533 1003.22 701.333 990.021 701.333 Z " fill="rgb(248,162,149)"/><path d=" M 990.021 701.333 L 927.353 701.333 C 914.153 701.333 903.353 690.533 903.353 677.333 L 903.353 596 C 903.353 582.8 914.153 572 927.353 572 L 990.021 572 C 1003.22 572 1014.021 582.8 1014.021 596 L 1014.021 677.333 C 1014.021 690.533 1003.22 701.333 990.021 701.333 Z " fill="rgb(248,162,149)"/><path d=" M 1010.021 582.792 L 1010.021 644 C 1010.021 657.2 999.22 668 986.021 668 L 931.353 668 C 918.153 668 907.353 657.2 907.353 644 L 907.353 582.792 C 904.832 586.587 903.353 591.128 903.353 596 L 903.353 677.333 C 903.353 690.533 914.153 701.333 927.353 701.333 L 990.021 701.333 C 1003.22 701.333 1014.021 690.533 1014.021 677.333 L 1014.021 596 C 1014.021 591.128 1012.54 586.587 1010.021 582.792 Z " fill="rgb(119,33,112)"/><path d=" M 986.221 685.333 L 931.152 685.333 C 927.596 685.333 924.687 682.424 924.687 678.868 L 924.687 657.132 C 924.687 653.576 927.596 650.667 931.152 650.667 L 986.221 650.667 C 989.777 650.667 992.688 653.576 992.688 657.132 L 992.688 678.868 C 992.688 682.424 989.777 685.333 986.221 685.333 Z " fill="rgb(119,33,112)"/><path d=" M 972.021 664.333 C 972.019 666.367 971.615 667.968 970.937 669.272 C 969.919 671.215 968.249 672.599 965.912 673.569 C 963.584 674.531 960.619 675.003 957.353 675 C 952.995 675.008 949.193 674.152 946.68 672.456 C 945.416 671.607 944.452 670.573 943.771 669.272 C 943.093 667.968 942.689 666.367 942.687 664.333 C 942.687 663.229 941.792 662.333 940.687 662.333 C 939.583 662.333 938.687 663.229 938.687 664.333 C 938.685 666.903 939.213 669.185 940.223 671.12 C 941.735 674.033 944.292 676.051 947.275 677.269 C 950.267 678.496 953.715 678.997 957.353 679 C 962.2 678.992 966.732 678.116 970.251 675.781 C 972.003 674.613 973.479 673.056 974.485 671.12 C 975.495 669.185 976.023 666.903 976.021 664.333 C 976.021 663.229 975.125 662.333 974.021 662.333 C 972.916 662.333 972.021 663.229 972.021 664.333" fill="rgb(248,162,149)"/><path d=" M 979.355 734.667 C 979.355 742.029 970.996 748 960.687 748 C 950.377 748 942.02 742.029 942.02 734.667 C 942.02 727.304 950.377 721.333 960.687 721.333 C 970.996 721.333 979.355 727.304 979.355 734.667 Z " fill="rgb(248,162,149)"/><path d=" M 932.02 876 L 989.355 876 L 989.355 850.667 L 932.02 850.667 L 932.02 876 Z " fill="rgb(28,51,89)"/><path d=" M 1019.793 886.222 C 1018.252 878.228 1008.164 872 996.021 872 L 925.353 872 C 913.209 872 903.121 878.228 901.581 886.222 L 1019.793 886.222 Z " fill="rgb(255,255,255)"/><path d=" M 1026.021 856 L 895.353 856 C 882.153 856 871.353 845.2 871.353 832 L 871.353 737.333 C 871.353 724.133 882.153 713.333 895.353 713.333 L 1026.021 713.333 C 1039.22 713.333 1050.021 724.133 1050.021 737.333 L 1050.021 832 C 1050.021 845.2 1039.22 856 1026.021 856 Z " fill="rgb(255,255,255)"/><path d=" M 897.845 856 L 895.353 856 C 895.341 856 895.331 856 895.319 856 C 895.329 856 895.343 856 895.353 856 L 897.845 856 Z  M 895.299 856 C 895.293 856 895.289 856 895.284 856 C 895.289 856 895.293 856 895.299 856 Z  M 895.257 856 C 895.256 856 895.253 856 895.252 856 C 895.253 856 895.256 856 895.257 856 Z " fill="rgb(126,209,212)"/><path d=" M 1050.021 737.291 C 1050.021 737.287 1050.021 737.281 1050.021 737.276 C 1050.021 737.281 1050.021 737.287 1050.021 737.291 Z  M 1050.021 737.248 C 1050.021 737.243 1050.021 737.239 1050.02 737.232 C 1050.021 737.237 1050.021 737.243 1050.021 737.248 Z  M 1050.02 737.204 C 1050.02 737.2 1050.02 737.195 1050.02 737.191 C 1050.02 737.195 1050.02 737.2 1050.02 737.204 Z  M 1050.02 737.159 C 1050.02 737.155 1050.02 737.152 1050.02 737.148 C 1050.02 737.152 1050.02 737.155 1050.02 737.159 Z " fill="rgb(47,104,156)"/><path d=" M 1026.021 856 L 895.353 856 C 895.343 856 895.329 856 895.319 856 C 895.312 856 895.305 856 895.299 856 C 895.293 856 895.289 856 895.284 856 C 895.276 856 895.267 856 895.257 856 C 895.256 856 895.253 856 895.252 856 C 892.448 855.988 889.763 855.475 887.261 854.565 C 887.691 854.172 888.119 853.78 888.548 853.386 C 906.18 837.228 924.305 821.616 942.107 805.643 C 960.255 789.361 978.305 772.971 996.485 756.721 C 1010.957 743.788 1026.261 731.507 1040.491 718.252 C 1046.216 722.612 1049.961 729.453 1050.02 737.148 C 1050.02 737.152 1050.02 737.155 1050.02 737.159 C 1050.02 737.169 1050.02 737.18 1050.02 737.191 C 1050.02 737.195 1050.02 737.2 1050.02 737.204 C 1050.02 737.213 1050.02 737.223 1050.02 737.232 C 1050.021 737.239 1050.021 737.243 1050.021 737.248 C 1050.021 737.257 1050.021 737.267 1050.021 737.276 C 1050.021 737.281 1050.021 737.287 1050.021 737.291 C 1050.021 737.305 1050.021 737.319 1050.021 737.333 L 1050.021 793.129 L 1050.021 820.612 L 1050.021 832 C 1050.021 845.2 1039.22 856 1026.021 856 Z " fill="rgb(228,235,244)"/><path d=" M 1009.323 582.667 C 1009.323 582.667 912.687 620 890.02 588 C 864.721 552.283 891.353 537.333 897.945 534.667 C 904.409 532.052 923.648 526.667 935.071 550.667 C 935.071 550.667 927.932 533.333 943.639 529.333 C 959.345 525.333 972.196 553.333 972.196 553.333 C 972.196 553.333 992.188 540 1007.895 549.333 C 1023.601 558.667 1019.317 580 1019.317 584 C 1019.317 588 1013.249 621.667 1013.249 621.667 L 1009.323 582.667 Z " fill="rgb(119,33,112)"/><path d=" M 924.641 595.125 C 908.34 595.125 897.244 586.603 891.353 576 C 884.687 564 887.353 549.333 887.353 549.333 C 891.76 591.189 918.913 594.828 928.224 594.828 C 930.057 594.828 931.2 594.687 931.339 594.668 C 929.016 594.977 926.784 595.125 924.641 595.125 Z  M 931.339 594.668 C 931.344 594.668 931.349 594.667 931.353 594.667 C 931.352 594.667 931.348 594.668 931.339 594.668 Z  M 931.353 594.667 L 931.353 594.667 L 931.353 594.667 Z " fill="rgb(170,76,172)"/><path d=" M 960.789 586.86 C 951.321 586.86 944.877 581.911 941.456 575.752 C 937.584 568.783 939.133 560.265 939.133 560.265 C 941.691 584.573 957.463 586.687 962.871 586.687 C 963.929 586.687 964.591 586.607 964.677 586.595 C 963.329 586.775 962.033 586.86 960.789 586.86 M 964.677 586.595 C 964.681 586.595 964.684 586.595 964.688 586.593 C 964.688 586.593 964.684 586.595 964.677 586.595 Z " fill="rgb(170,76,172)"/><path d=" M 987.328 580.08 C 980.789 580.08 976.339 576.661 973.975 572.408 C 971.303 567.595 972.371 561.712 972.371 561.712 C 974.139 578.501 985.031 579.96 988.765 579.96 C 989.497 579.96 989.955 579.904 990.015 579.896 C 989.083 580.02 988.188 580.08 987.328 580.08 M 990.015 579.896 C 990.016 579.896 990.019 579.896 990.021 579.896 C 990.02 579.896 990.017 579.896 990.015 579.896 Z  M 990.02 579.896 L 990.02 579.896 C 990.021 579.896 990.021 579.896 990.021 579.896 M 990.021 579.896 L 990.021 579.896 L 990.02 579.896" fill="rgb(170,76,172)"/><path d=" M 951.472 616.667 L 949.472 616.667 C 949.472 623.04 946.895 628.793 942.719 632.972 C 938.539 637.148 932.787 639.725 926.413 639.727 C 920.039 639.725 914.287 637.148 910.108 632.972 C 905.932 628.793 903.355 623.04 903.353 616.667 C 903.355 610.293 905.932 604.54 910.108 600.361 C 914.287 596.185 920.039 593.608 926.413 593.608 C 932.787 593.608 938.539 596.185 942.719 600.361 C 946.895 604.54 949.472 610.293 949.472 616.667 L 951.472 616.667 L 953.472 616.667 C 953.471 601.721 941.357 589.609 926.413 589.608 C 911.468 589.609 899.355 601.721 899.353 616.667 C 899.355 631.612 911.468 643.725 926.413 643.727 C 941.357 643.725 953.471 631.612 953.472 616.667 L 951.472 616.667 Z " fill="rgb(28,51,89)"/><path d=" M 1016.099 616.667 L 1014.099 616.667 C 1014.097 623.041 1011.521 628.793 1007.345 632.972 C 1003.167 637.148 997.415 639.725 991.04 639.727 C 984.667 639.725 978.915 637.148 974.735 632.972 C 970.559 628.793 967.981 623.04 967.98 616.667 C 967.981 610.293 970.559 604.54 974.735 600.361 C 978.915 596.185 984.667 593.608 991.04 593.608 C 997.415 593.608 1003.167 596.185 1007.345 600.361 C 1011.521 604.54 1014.097 610.292 1014.099 616.667 L 1016.099 616.667 L 1018.099 616.667 C 1018.097 601.721 1005.985 589.609 991.04 589.608 C 976.095 589.609 963.981 601.721 963.98 616.667 C 963.981 631.612 976.095 643.725 991.04 643.727 C 1005.985 643.725 1018.097 631.612 1018.099 616.667 L 1016.099 616.667 Z " fill="rgb(28,51,89)"/><path d=" M 959.353 643.333 L 959.353 643.333 C 956.787 643.333 954.687 641.233 954.687 638.667 L 954.687 608 C 954.687 605.433 956.787 603.333 959.353 603.333 C 961.92 603.333 964.021 605.433 964.021 608 L 964.021 638.667 C 964.021 641.233 961.92 643.333 959.353 643.333 Z " fill="rgb(243,95,132)"/><path d=" M 953.353 619.333 C 953.356 618.097 953.892 616.973 954.847 616.099 C 955.8 615.232 957.156 614.667 958.687 614.667 C 960.219 614.667 961.573 615.232 962.528 616.099 C 963.481 616.973 964.019 618.097 964.021 619.333 C 964.021 620.437 964.916 621.333 966.021 621.333 C 967.125 621.333 968.021 620.437 968.021 619.333 C 968.023 616.887 966.919 614.677 965.217 613.14 C 963.517 611.593 961.205 610.667 958.687 610.667 C 956.168 610.667 953.857 611.593 952.156 613.14 C 950.456 614.677 949.351 616.887 949.353 619.333 C 949.353 620.437 950.249 621.333 951.353 621.333 C 952.459 621.333 953.353 620.437 953.353 619.333" fill="rgb(28,51,89)"/><path d=" M 932.687 630.667 C 932.687 633.612 930.299 636 927.353 636 C 924.408 636 922.02 633.612 922.02 630.667 C 922.02 627.721 924.408 625.333 927.353 625.333 C 930.299 625.333 932.687 627.721 932.687 630.667 Z " fill="rgb(28,51,89)"/><path d=" M 998.021 630.667 C 998.021 633.612 995.633 636 992.688 636 C 989.741 636 987.355 633.612 987.355 630.667 C 987.355 627.721 989.741 625.333 992.688 625.333 C 995.633 625.333 998.021 627.721 998.021 630.667 Z " fill="rgb(28,51,89)"/><path d=" M 902.02 616 C 902.02 617.472 900.827 618.667 899.353 618.667 C 897.881 618.667 896.687 617.472 896.687 616 C 896.687 614.528 897.881 613.333 899.353 613.333 C 900.827 613.333 902.02 614.528 902.02 616 Z " fill="rgb(28,51,89)"/><path d=" M 1020.688 616.007 C 1020.688 617.464 1019.505 618.645 1018.049 618.645 C 1016.592 618.645 1015.412 617.464 1015.412 616.007 C 1015.412 614.551 1016.592 613.369 1018.049 613.369 C 1019.505 613.369 1020.688 614.551 1020.688 616.007 Z " fill="rgb(28,51,89)"/><path d=" M 927.353 694.667 C 906.02 693.333 908.687 670.667 908.687 670.667 C 908.687 689.333 927.353 694.667 927.353 694.667 Z " fill="rgb(170,76,172)"/><path d=" M 990.021 694.667 C 990.021 694.667 1008.688 689.333 1008.688 670.667 C 1008.688 670.667 1011.355 693.333 990.021 694.667 Z " fill="rgb(170,76,172)"/><path d=" M 842.02 590.667 L 688.687 590.667 L 688.687 497.799 L 842.02 497.799 L 842.02 590.667 Z " fill="rgb(64,99,184)"/><path d=" M 842.02 514.679 L 688.687 514.679 L 688.687 497.799 L 842.02 497.799 L 842.02 514.679 Z " fill="rgb(28,51,89)"/><path d=" M 698.856 527.904 L 828.189 579.904 L 829.184 577.429 L 699.851 525.429" fill="rgb(255,255,255)"/><path d=" M 827.608 524.099 L 699.386 578.781 L 700.432 581.235 L 828.655 526.552" fill="rgb(255,255,255)"/><path d=" M 835.353 505.333 C 835.353 506.805 834.16 508 832.687 508 C 831.215 508 830.02 506.805 830.02 505.333 C 830.02 503.861 831.215 502.667 832.687 502.667 C 834.16 502.667 835.353 503.861 835.353 505.333 Z " fill="rgb(238,37,107)"/><path d=" M 827.353 505.333 C 827.353 506.805 826.16 508 824.687 508 C 823.215 508 822.02 506.805 822.02 505.333 C 822.02 503.861 823.215 502.667 824.687 502.667 C 826.16 502.667 827.353 503.861 827.353 505.333 Z " fill="rgb(107,193,65)"/><path d=" M 819.353 505.333 C 819.353 506.805 818.16 508 816.687 508 C 815.215 508 814.02 506.805 814.02 505.333 C 814.02 503.861 815.215 502.667 816.687 502.667 C 818.16 502.667 819.353 503.861 819.353 505.333 Z " fill="rgb(250,186,57)"/><path d=" M 1171.355 573.333 L 1098.021 573.333 C 1092.887 573.333 1088.688 569.133 1088.688 564 L 1088.688 517.333 C 1088.688 512.2 1092.887 508 1098.021 508 L 1171.355 508 C 1176.487 508 1180.688 512.2 1180.688 517.333 L 1180.688 564 C 1180.688 569.133 1176.487 573.333 1171.355 573.333 Z " fill="rgb(64,99,184)"/><g><path d=" M 1125.947 530.331 L 1125.947 534.547 L 1114.625 538.695 L 1125.947 542.809 L 1125.947 547.059 L 1109.763 540.905 L 1109.763 536.485 L 1125.947 530.331 L 1125.947 530.331 Z  M 1126.899 553.995 L 1138.119 521.967 L 1142.845 521.967 L 1131.625 553.995 L 1126.899 553.995 L 1126.899 553.995 Z  M 1143.457 530.331 L 1159.641 536.485 L 1159.641 540.905 L 1143.457 547.059 L 1143.457 542.809 L 1154.779 538.695 L 1143.457 534.547 L 1143.457 530.331 L 1143.457 530.331 Z " fill-rule="evenodd" fill="rgb(252,252,252)"/></g><path d=" M 1007.355 460 C 1007.355 483.564 979.893 502.667 946.02 502.667 C 912.147 502.667 884.687 483.564 884.687 460 C 884.687 436.436 912.147 417.333 946.02 417.333 C 979.893 417.333 1007.355 436.436 1007.355 460 Z " fill="rgb(255,255,255)"/><path d=" M 962.021 482.667 L 982.021 530.667 L 983.355 466.667 L 962.021 482.667 Z " fill="rgb(255,255,255)"/><g><path d=" M 923.61 449.657 L 927.973 449.657 L 927.973 468.511 L 923.61 468.511 L 923.61 460.781 L 915.045 460.781 L 915.045 468.511 L 910.682 468.511 L 910.682 449.657 L 915.045 449.657 L 915.045 457.091 L 923.61 457.091 L 923.61 449.657 L 923.61 449.657 Z  M 936.35 468.511 L 936.35 453.213 L 930.317 453.213 L 930.317 449.657 L 946.746 449.657 L 946.746 453.213 L 940.713 453.213 L 940.713 468.511 L 936.35 468.511 L 936.35 468.511 Z  M 970.339 468.511 L 966.246 468.511 L 966.219 457.199 L 960.67 466.518 L 958.704 466.518 L 953.183 457.441 L 953.183 468.511 L 949.089 468.511 L 949.089 449.657 L 952.698 449.657 L 959.755 461.373 L 966.703 449.657 L 970.286 449.657 L 970.339 468.511 L 970.339 468.511 Z  M 974.81 468.511 L 974.81 449.657 L 979.174 449.657 L 979.174 464.955 L 988.627 464.955 L 988.627 468.511 L 974.81 468.511 L 974.81 468.511 Z " fill-rule="evenodd" fill="rgb(64,99,184)"/></g><path d=" M 1027.355 632.261 C 1027.355 648.653 1046.456 661.941 1070.021 661.941 C 1093.584 661.941 1112.688 648.653 1112.688 632.261 C 1112.688 615.868 1093.584 602.58 1070.021 602.58 C 1046.456 602.58 1027.355 615.868 1027.355 632.261 Z " fill="rgb(255,255,255)"/><path d=" M 1058.889 648.028 L 1044.976 681.42 L 1044.049 636.899 L 1058.889 648.028 Z " fill="rgb(255,255,255)"/><g><path d=" M 1057.389 640.726 L 1057.389 640.726 Q 1055.072 640.726 1053.227 639.77 L 1053.227 639.77 L 1053.227 639.77 Q 1051.382 638.814 1050.345 637.117 L 1050.345 637.117 L 1050.345 637.117 Q 1049.309 635.42 1049.309 633.266 L 1049.309 633.266 L 1049.309 633.266 Q 1049.309 631.111 1050.345 629.414 L 1050.345 629.414 L 1050.345 629.414 Q 1051.382 627.717 1053.227 626.761 L 1053.227 626.761 L 1053.227 626.761 Q 1055.072 625.805 1057.389 625.805 L 1057.389 625.805 L 1057.389 625.805 Q 1059.678 625.805 1061.388 626.761 L 1061.388 626.761 L 1061.388 626.761 Q 1063.098 627.717 1063.879 629.495 L 1063.879 629.495 L 1060.621 631.246 L 1060.621 631.246 Q 1059.489 629.253 1057.362 629.253 L 1057.362 629.253 L 1057.362 629.253 Q 1055.719 629.253 1054.641 630.33 L 1054.641 630.33 L 1054.641 630.33 Q 1053.564 631.407 1053.564 633.266 L 1053.564 633.266 L 1053.564 633.266 Q 1053.564 635.124 1054.641 636.201 L 1054.641 636.201 L 1054.641 636.201 Q 1055.719 637.279 1057.362 637.279 L 1057.362 637.279 L 1057.362 637.279 Q 1059.516 637.279 1060.621 635.286 L 1060.621 635.286 L 1063.879 637.063 L 1063.879 637.063 Q 1063.098 638.787 1061.388 639.757 L 1061.388 639.757 L 1061.388 639.757 Q 1059.678 640.726 1057.389 640.726 L 1057.389 640.726 L 1057.389 640.726 Z  M 1071.178 640.726 L 1071.178 640.726 Q 1069.374 640.726 1067.65 640.282 L 1067.65 640.282 L 1067.65 640.282 Q 1065.926 639.837 1064.903 639.164 L 1064.903 639.164 L 1066.303 636.147 L 1066.303 636.147 Q 1067.273 636.767 1068.647 637.157 L 1068.647 637.157 L 1068.647 637.157 Q 1070.02 637.548 1071.34 637.548 L 1071.34 637.548 L 1071.34 637.548 Q 1074.006 637.548 1074.006 636.228 L 1074.006 636.228 L 1074.006 636.228 Q 1074.006 635.609 1073.279 635.339 L 1073.279 635.339 L 1073.279 635.339 Q 1072.552 635.07 1071.044 634.882 L 1071.044 634.882 L 1071.044 634.882 Q 1069.266 634.612 1068.108 634.262 L 1068.108 634.262 L 1068.108 634.262 Q 1066.95 633.912 1066.101 633.023 L 1066.101 633.023 L 1066.101 633.023 Q 1065.253 632.134 1065.253 630.491 L 1065.253 630.491 L 1065.253 630.491 Q 1065.253 629.118 1066.048 628.054 L 1066.048 628.054 L 1066.048 628.054 Q 1066.842 626.99 1068.364 626.398 L 1068.364 626.398 L 1068.364 626.398 Q 1069.886 625.805 1071.959 625.805 L 1071.959 625.805 L 1071.959 625.805 Q 1073.495 625.805 1075.016 626.142 L 1075.016 626.142 L 1075.016 626.142 Q 1076.538 626.478 1077.535 627.071 L 1077.535 627.071 L 1076.134 630.061 L 1076.134 630.061 Q 1074.222 628.983 1071.959 628.983 L 1071.959 628.983 L 1071.959 628.983 Q 1070.613 628.983 1069.939 629.36 L 1069.939 629.36 L 1069.939 629.36 Q 1069.266 629.737 1069.266 630.33 L 1069.266 630.33 L 1069.266 630.33 Q 1069.266 631.003 1069.993 631.273 L 1069.993 631.273 L 1069.993 631.273 Q 1070.721 631.542 1072.31 631.784 L 1072.31 631.784 L 1072.31 631.784 Q 1074.087 632.081 1075.218 632.417 L 1075.218 632.417 L 1075.218 632.417 Q 1076.35 632.754 1077.185 633.643 L 1077.185 633.643 L 1077.185 633.643 Q 1078.019 634.531 1078.019 636.121 L 1078.019 636.121 L 1078.019 636.121 Q 1078.019 637.467 1077.211 638.518 L 1077.211 638.518 L 1077.211 638.518 Q 1076.403 639.568 1074.855 640.147 L 1074.855 640.147 L 1074.855 640.147 Q 1073.306 640.726 1071.178 640.726 L 1071.178 640.726 L 1071.178 640.726 Z  M 1085.48 640.726 L 1085.48 640.726 Q 1083.675 640.726 1081.952 640.282 L 1081.952 640.282 L 1081.952 640.282 Q 1080.228 639.837 1079.205 639.164 L 1079.205 639.164 L 1080.605 636.147 L 1080.605 636.147 Q 1081.575 636.767 1082.948 637.157 L 1082.948 637.157 L 1082.948 637.157 Q 1084.322 637.548 1085.642 637.548 L 1085.642 637.548 L 1085.642 637.548 Q 1088.308 637.548 1088.308 636.228 L 1088.308 636.228 L 1088.308 636.228 Q 1088.308 635.609 1087.581 635.339 L 1087.581 635.339 L 1087.581 635.339 Q 1086.854 635.07 1085.345 634.882 L 1085.345 634.882 L 1085.345 634.882 Q 1083.568 634.612 1082.41 634.262 L 1082.41 634.262 L 1082.41 634.262 Q 1081.251 633.912 1080.403 633.023 L 1080.403 633.023 L 1080.403 633.023 Q 1079.555 632.134 1079.555 630.491 L 1079.555 630.491 L 1079.555 630.491 Q 1079.555 629.118 1080.349 628.054 L 1080.349 628.054 L 1080.349 628.054 Q 1081.144 626.99 1082.665 626.398 L 1082.665 626.398 L 1082.665 626.398 Q 1084.187 625.805 1086.261 625.805 L 1086.261 625.805 L 1086.261 625.805 Q 1087.796 625.805 1089.318 626.142 L 1089.318 626.142 L 1089.318 626.142 Q 1090.84 626.478 1091.836 627.071 L 1091.836 627.071 L 1090.436 630.061 L 1090.436 630.061 Q 1088.523 628.983 1086.261 628.983 L 1086.261 628.983 L 1086.261 628.983 Q 1084.914 628.983 1084.241 629.36 L 1084.241 629.36 L 1084.241 629.36 Q 1083.568 629.737 1083.568 630.33 L 1083.568 630.33 L 1083.568 630.33 Q 1083.568 631.003 1084.295 631.273 L 1084.295 631.273 L 1084.295 631.273 Q 1085.022 631.542 1086.611 631.784 L 1086.611 631.784 L 1086.611 631.784 Q 1088.389 632.081 1089.52 632.417 L 1089.52 632.417 L 1089.52 632.417 Q 1090.651 632.754 1091.486 633.643 L 1091.486 633.643 L 1091.486 633.643 Q 1092.321 634.531 1092.321 636.121 L 1092.321 636.121 L 1092.321 636.121 Q 1092.321 637.467 1091.513 638.518 L 1091.513 638.518 L 1091.513 638.518 Q 1090.705 639.568 1089.156 640.147 L 1089.156 640.147 L 1089.156 640.147 Q 1087.608 640.726 1085.48 640.726 L 1085.48 640.726 L 1085.48 640.726 Z " fill-rule="evenodd" fill="rgb(64,99,184)"/></g><g><path d=" M 829.464 636.523 L 829.464 636.523 Q 829.464 638.047 828.986 638.793 L 828.986 638.793 L 828.986 638.793 Q 828.508 639.54 827.463 639.869 L 827.463 639.869 L 827.463 639.869 Q 828.508 640.197 828.986 640.944 L 828.986 640.944 L 828.986 640.944 Q 829.464 641.69 829.464 643.214 L 829.464 643.214 L 829.464 647.992 L 829.464 647.992 Q 829.464 649.067 830.017 649.635 L 830.017 649.635 L 830.017 649.635 Q 830.569 650.202 831.644 650.202 L 831.644 650.202 L 832.182 650.202 L 832.182 653.846 L 830.45 653.846 L 830.45 653.846 Q 827.672 653.846 826.238 652.472 L 826.238 652.472 L 826.238 652.472 Q 824.805 651.098 824.805 648.5 L 824.805 648.5 L 824.805 643.094 L 824.805 643.094 Q 824.805 642.407 824.461 642.049 L 824.461 642.049 L 824.461 642.049 Q 824.118 641.69 823.491 641.69 L 823.491 641.69 L 822.505 641.69 L 822.505 638.047 L 823.491 638.047 L 823.491 638.047 Q 824.118 638.047 824.461 637.688 L 824.461 637.688 L 824.461 637.688 Q 824.805 637.33 824.805 636.643 L 824.805 636.643 L 824.805 631.237 L 824.805 631.237 Q 824.805 628.639 826.238 627.265 L 826.238 627.265 L 826.238 627.265 Q 827.672 625.891 830.45 625.891 L 830.45 625.891 L 832.182 625.891 L 832.182 629.535 L 831.644 629.535 L 831.644 629.535 Q 830.569 629.535 830.017 630.102 L 830.017 630.102 L 830.017 630.102 Q 829.464 630.67 829.464 631.745 L 829.464 631.745 L 829.464 636.523 L 829.464 636.523 Z  M 850.221 638.047 L 851.207 638.047 L 851.207 641.69 L 850.221 641.69 L 850.221 641.69 Q 849.594 641.69 849.251 642.049 L 849.251 642.049 L 849.251 642.049 Q 848.907 642.407 848.907 643.094 L 848.907 643.094 L 848.907 648.5 L 848.907 648.5 Q 848.907 651.098 847.474 652.472 L 847.474 652.472 L 847.474 652.472 Q 846.04 653.846 843.262 653.846 L 843.262 653.846 L 841.53 653.846 L 841.53 650.202 L 842.068 650.202 L 842.068 650.202 Q 843.143 650.202 843.695 649.635 L 843.695 649.635 L 843.695 649.635 Q 844.248 649.067 844.248 647.992 L 844.248 647.992 L 844.248 643.214 L 844.248 643.214 Q 844.248 641.69 844.726 640.944 L 844.726 640.944 L 844.726 640.944 Q 845.204 640.197 846.249 639.869 L 846.249 639.869 L 846.249 639.869 Q 845.204 639.54 844.726 638.793 L 844.726 638.793 L 844.726 638.793 Q 844.248 638.047 844.248 636.523 L 844.248 636.523 L 844.248 631.745 L 844.248 631.745 Q 844.248 630.67 843.695 630.102 L 843.695 630.102 L 843.695 630.102 Q 843.143 629.535 842.068 629.535 L 842.068 629.535 L 841.53 629.535 L 841.53 625.891 L 843.262 625.891 L 843.262 625.891 Q 846.04 625.891 847.474 627.265 L 847.474 627.265 L 847.474 627.265 Q 848.907 628.639 848.907 631.237 L 848.907 631.237 L 848.907 636.643 L 848.907 636.643 Q 848.907 637.33 849.251 637.688 L 849.251 637.688 L 849.251 637.688 Q 849.594 638.047 850.221 638.047 L 850.221 638.047 L 850.221 638.047 Z " fill-rule="evenodd" fill="rgb(255,255,255)"/></g><path d=" M 849.133 632.863 C 847.529 632.863 846.115 633.667 845.265 634.889 C 844.415 633.667 843 632.863 841.396 632.863 C 838.796 632.863 836.687 634.972 836.687 637.572 C 836.687 638.548 836.983 639.453 837.491 640.205 C 838.337 641.459 842.657 645.393 845.265 648 C 846.863 646.403 852.192 641.459 853.039 640.205 C 853.545 639.453 853.843 638.548 853.843 637.572 C 853.843 634.972 851.733 632.863 849.133 632.863 Z " fill="rgb(46,104,153)"/><g><path d=" M 1087.61 435.664 L 1091.401 435.664 L 1086.045 450.441 L 1081.925 450.441 L 1078.601 441.267 L 1075.168 450.441 L 1071.048 450.441 L 1065.719 435.664 L 1069.757 435.664 L 1073.245 445.662 L 1076.871 435.664 L 1080.497 435.664 L 1084.012 445.662 L 1087.61 435.664 L 1087.61 435.664 Z  M 1112.99 435.664 L 1116.78 435.664 L 1111.424 450.441 L 1107.304 450.441 L 1103.981 441.267 L 1100.547 450.441 L 1096.427 450.441 L 1091.099 435.664 L 1095.136 435.664 L 1098.625 445.662 L 1102.25 435.664 L 1105.876 435.664 L 1109.391 445.662 L 1112.99 435.664 L 1112.99 435.664 Z  M 1138.369 435.664 L 1142.159 435.664 L 1136.803 450.441 L 1132.683 450.441 L 1129.36 441.267 L 1125.926 450.441 L 1121.806 450.441 L 1116.478 435.664 L 1120.515 435.664 L 1124.004 445.662 L 1127.629 435.664 L 1131.255 435.664 L 1134.771 445.662 L 1138.369 435.664 L 1138.369 435.664 Z " fill-rule="evenodd" fill="rgb(255,255,255)"/></g><path d=" M 1031.355 485.333 L 1080.688 485.333 L 1080.688 482.667 L 1031.355 482.667 L 1031.355 485.333 Z " fill="rgb(255,255,255)"/><path d=" M 1046.021 493.333 L 1095.355 493.333 L 1095.355 490.667 L 1046.021 490.667 L 1046.021 493.333 Z " fill="rgb(255,255,255)"/><path d=" M 788.687 414.667 L 838.02 414.667 L 838.02 412 L 788.687 412 L 788.687 414.667 Z " fill="rgb(255,255,255)"/><path d=" M 803.353 422.667 L 852.687 422.667 L 852.687 420 L 803.353 420 L 803.353 422.667 Z " fill="rgb(255,255,255)"/><path d=" M 1115.355 797.333 L 1164.688 797.333 L 1164.688 794.667 L 1115.355 794.667 L 1115.355 797.333 Z " fill="rgb(255,255,255)"/><path d=" M 1130.021 805.333 L 1179.355 805.333 L 1179.355 802.667 L 1130.021 802.667 L 1130.021 805.333 Z " fill="rgb(255,255,255)"/><path d=" M 706.02 752 L 755.354 752 L 755.354 749.333 L 706.02 749.333 L 706.02 752 Z " fill="rgb(255,255,255)"/><path d=" M 720.687 760 L 770.02 760 L 770.02 757.333 L 720.687 757.333 L 720.687 760 Z " fill="rgb(255,255,255)"/><path d=" M 1165.717 900.688 L 757.718 900.688 L 757.718 885.576 L 1165.717 885.576 L 1165.717 900.688 Z " fill="rgb(28,51,89)"/></g></g></svg>