<?xml version="1.0" encoding="UTF-8" standalone="no"?><!-- Generator: Gravit.io --><svg xmlns="http://www.w3.org/2000/svg" xmlns:xlink="http://www.w3.org/1999/xlink" style="isolation:isolate" viewBox="71.554 392.565 812.696 459.723" width="812.696pt" height="459.723pt"><g><g><path d=" M 212.784 704.67 L 279.18 776.811 L 207.038 843.208 L 140.642 771.066 L 212.784 704.67 Z " fill="rgb(223,235,253)"/><path d=" M 212.784 704.67 L 226.156 719.199 L 154.014 785.595 L 140.642 771.066 L 212.784 704.67 Z " fill="rgb(190,215,251)"/><g><path d=" M 423.473 420.479 L 472.94 427.535 L 440.113 405.16 L 438.446 412.332 L 426.413 414.511 L 423.473 420.479" fill="rgb(158,195,246)"/></g><g><path d=" M 472.942 427.533 L 431.778 406.307 L 391.43 404.278 L 472.942 427.533 Z " fill="rgb(205,224,251)"/></g><g><path d=" M 440.113 405.158 L 472.941 427.536 L 447.529 392.565 L 440.113 405.158 Z " fill="rgb(205,224,251)"/></g><g><path d=" M 700.092 518.067 L 687.651 526.997 L 675.144 518.164 C 677.913 514.264 682.494 511.685 687.651 511.685 C 692.775 511.685 697.323 514.2 700.092 518.067 Z " fill="rgb(255,255,255)"/></g><g><path d=" M 687.647 489.928 C 675.141 489.928 664.083 496.149 657.378 505.658 L 665.278 511.202 C 670.24 504.175 678.427 499.598 687.647 499.598 C 696.803 499.598 704.926 504.111 709.892 511.041 L 717.758 505.401 C 711.018 496.02 700.025 489.928 687.647 489.928" fill="rgb(255,255,255)"/></g><g><path d=" M 687.65 448.569 C 661.188 448.569 637.784 461.721 623.603 481.835 L 631.497 487.379 C 643.94 469.779 664.475 458.241 687.65 458.241 C 710.636 458.241 731.041 469.586 743.515 486.96 L 751.347 481.319 C 737.13 461.497 713.892 448.569 687.65 448.569 Z " fill="rgb(255,255,255)"/></g><g><path d=" M 687.654 471.198 C 668.827 471.198 652.128 480.512 641.975 494.793 L 649.873 500.337 C 658.284 488.572 672.085 480.867 687.654 480.867 C 703.092 480.867 716.792 488.442 725.237 500.047 L 733.07 494.438 C 722.886 480.351 706.314 471.198 687.654 471.198" fill="rgb(255,255,255)"/></g><g><path d=" M 364.515 640.689 C 356.848 648.383 348.399 655.068 339.273 660.698 C 317.161 644.538 293.535 630.703 268.92 619.506 C 272.304 613.304 275.639 606.755 278.895 599.918 C 301.426 602.904 323.085 604.696 342.86 605.159 C 348.024 605.308 353.034 605.308 357.896 605.271 C 370.499 605.121 381.721 604.373 391.333 603.027 C 384.599 616.977 375.586 629.619 364.515 640.689 Z  M 224.329 674.853 C 234.596 669.47 244.911 657.113 252.855 645.725 C 256.952 639.853 261.047 633.352 265.089 626.335 C 288.395 636.889 310.805 649.857 331.857 664.963 C 297.157 683.507 258.08 685.606 224.329 674.853 Z  M 137.583 594.323 C 148.262 594.753 168.061 596.371 193.352 602.127 C 195.161 602.539 196.969 602.971 198.777 603.411 C 197.475 611.003 196.515 618.258 195.922 625.076 C 194.798 637.995 194.718 652.893 198.322 663.528 C 187.354 657.354 177.297 649.715 168.271 640.689 C 154.816 627.235 144.462 611.481 137.583 594.323 L 137.583 594.323 Z  M 202.286 585.749 C 201.529 589.124 200.832 592.448 200.192 595.721 C 198.49 595.31 196.787 594.903 195.083 594.515 C 166.297 587.964 144.695 586.63 134.682 586.406 C 132.202 578.934 130.378 571.293 129.223 563.495 C 148.835 571.037 170.911 578.274 202.286 585.749 Z  M 113.477 549.279 C 86.959 536.34 74.841 523.849 80.265 514.983 C 84.64 507.803 100.573 502.941 124.959 501.146 C 120.043 517.736 118.333 534.987 119.349 552.049 C 117.329 551.151 115.385 550.215 113.477 549.279 Z  M 142.389 480.164 L 142.392 480.154 C 159.534 501.581 184.8 523.486 214.321 542.481 C 210.135 555.222 206.564 567.742 203.682 579.742 C 179.205 573.819 150.756 565.443 128.288 555.94 C 126.425 537.308 128.454 518.448 134.048 500.658 C 136.219 493.761 139.1 486.651 142.389 480.164 Z  M 130.834 421.119 C 135.346 413.956 145.428 410.26 159.585 410.26 C 166.356 410.26 174.064 411.106 182.534 412.827 C 185.751 413.478 189.036 414.244 192.377 415.125 L 192.386 415.125 C 172.174 426.815 154.371 443.733 141.117 464.942 L 141.11 464.952 C 128.601 446.377 124.84 430.629 130.834 421.119 L 130.834 421.119 Z  M 266.412 403.75 C 276.025 403.75 285.481 404.718 294.723 406.638 C 283.822 411.385 272.691 424.591 264.242 436.703 C 255.595 449.098 246.96 464.269 238.806 481.25 C 216.796 469.288 196.006 450.957 186.069 429.357 C 209.271 412.856 237.175 403.75 266.412 403.75 Z  M 364.515 444.406 C 382.512 462.403 394.452 484.02 400.491 506.627 C 368.502 508.966 339.191 508.229 312.99 504.437 C 317.148 487.449 319.947 471.468 321.175 457.352 C 322.529 441.765 322.366 423.299 316.045 412.907 C 334.355 419.943 350.71 430.559 364.515 444.406 L 364.515 444.406 Z  M 303.318 510.79 C 299.72 524.329 295.288 538.429 290.125 552.667 C 288.135 558.155 286.074 563.556 283.954 568.851 C 264.558 561.729 243.971 551.542 223.732 538.961 C 224.777 535.904 225.857 532.836 226.972 529.762 C 231.769 516.534 236.975 503.806 242.435 491.882 C 261.538 501.142 282.232 507.117 303.318 510.79 L 303.318 510.79 Z  M 305.042 413.023 C 309.297 414.565 311.458 420.674 312.521 425.527 C 314.201 433.194 314.504 443.967 313.399 456.676 C 312.189 470.586 309.404 486.388 305.258 503.21 C 284.873 499.703 264.502 493.921 245.747 484.818 C 253.74 468.147 262.193 453.281 270.643 441.168 C 277.942 430.706 285.08 422.632 291.285 417.824 C 294.523 415.315 298.88 412.629 302.696 412.629 C 303.507 412.629 304.295 412.75 305.042 413.023 Z  M 179.707 434.165 C 190.86 457.015 212.353 475.84 235.482 488.328 C 229.879 500.537 224.542 513.569 219.634 527.102 C 218.72 529.624 217.83 532.141 216.96 534.654 C 187.648 515.576 162.832 493.68 146.553 472.494 L 146.546 472.484 C 155.138 457.829 166.332 444.887 179.707 434.165 L 179.707 434.165 Z  M 228.711 585.335 C 222.808 584.121 216.991 582.851 211.274 581.534 C 213.965 570.335 217.272 558.661 221.132 546.763 C 241.196 559.097 261.601 569.13 280.921 576.252 C 278.497 582.037 276.007 587.678 273.465 593.14 C 258.79 591.034 243.775 588.425 228.711 585.335 Z  M 261.757 616.337 C 244.151 608.75 226.049 602.48 207.766 597.64 C 208.41 594.323 209.117 590.948 209.884 587.518 C 214.968 588.675 220.124 589.794 225.345 590.871 C 240.623 593.996 255.863 596.65 270.782 598.795 C 267.827 604.909 264.811 610.769 261.757 616.337 Z  M 212.055 669.407 C 207.799 667.863 205.639 661.755 204.576 656.901 C 202.896 649.232 202.592 638.463 203.698 625.752 C 204.256 619.324 205.155 612.492 206.364 605.344 C 223.808 609.993 241.083 615.971 257.904 623.176 C 254.115 629.709 250.284 635.769 246.453 641.26 C 239.154 651.724 232.017 659.795 225.811 664.604 C 221.885 667.645 216.311 670.95 212.055 669.407 L 212.055 669.407 Z  M 394.362 596.368 C 384.378 598.165 371.922 599.212 357.373 599.361 C 334.796 599.637 308.868 597.854 281.544 594.253 C 283.843 589.249 286.097 584.105 288.296 578.845 C 296.775 581.681 305.003 583.928 312.851 585.521 C 321.84 587.345 330.048 588.246 337.37 588.246 C 354.537 588.246 366.832 583.29 372.906 573.649 C 373.906 572.062 374.724 570.376 375.352 568.597 L 366.601 568.597 C 366.454 568.864 366.3 569.126 366.14 569.383 C 361.627 576.547 351.546 580.245 337.391 580.242 C 330.618 580.242 322.91 579.396 314.44 577.678 C 307.056 576.178 299.313 574.075 291.329 571.425 C 293.436 566.155 295.484 560.783 297.462 555.328 C 302.796 540.622 307.362 526.041 311.057 512.04 C 340.991 516.454 372.268 516.585 402.311 514.322 C 404.209 523.538 405.171 532.968 405.171 542.548 C 405.171 561.213 401.542 579.313 394.362 596.368 L 394.362 596.368 Z  M 429.556 572.245 L 418.149 571.982 C 421.816 576.732 422.639 581.111 420.354 584.813 C 418.075 588.589 412.613 591.695 404.462 594.051 C 410.632 577.63 413.738 560.315 413.738 542.548 C 413.738 504.126 398.789 466.519 370.576 438.386 C 343.267 411.077 306.352 395.224 266.412 395.224 C 243.984 395.224 222.313 400.195 202.605 409.699 L 202.585 409.709 C 196.25 407.776 190.078 406.189 184.123 404.984 C 154.063 398.884 132.731 403.099 124.066 416.853 C 115.82 429.937 120.31 449.63 136.672 472.596 L 136.666 472.609 C 133.01 479.362 129.491 487.376 126.904 495.049 C 96.16 496.883 79.703 502.293 73.719 512.092 C 66.763 523.499 76.263 538.808 106.67 553.693 C 110.859 555.751 115.347 557.77 120.06 559.789 C 123.702 591.797 138.282 622.819 162.211 646.749 C 175.75 660.251 191.496 670.874 209.038 678.317 C 262.774 700.984 326.834 690.37 370.576 646.749 C 383.74 633.585 394.176 618.249 401.542 601.269 C 416.54 598.165 426.415 593.304 430.342 586.871 C 433.073 582.419 432.736 577.482 429.556 572.245 Z " fill="rgb(173,203,249)"/></g><path d=" M 361.368 595.238 L 340.994 837.487 C 340.994 837.487 338.858 852.17 349.781 852.197 C 367.741 852.239 439.17 852.197 439.17 852.197 C 439.17 852.197 425.656 849.14 425.819 842.262 C 426.012 834.155 449.631 592.946 449.631 592.946 L 361.368 595.238" fill="rgb(216,103,19)"/><path d=" M 444.967 847.802 C 441.436 847.811 373.212 848.026 355.722 847.802 C 348.098 847.706 346.763 841.024 346.7 836.698 C 346.667 834.626 346.929 833.095 346.929 833.095 L 347.461 826.797 L 348.811 810.748 L 350.004 796.572 L 351.536 778.352 L 352.826 762.974 L 367.303 590.84 L 455.566 588.551 C 455.566 588.551 445.619 689.494 438.584 762.974 C 437.799 771.163 437.05 779.01 436.358 786.338 C 436.135 788.679 435.92 790.966 435.712 793.192 C 435.059 800.146 434.461 806.528 433.942 812.168 C 433.67 815.137 433.416 817.898 433.189 820.426 C 432.289 830.337 431.764 836.665 431.758 837.867 C 431.755 838.568 431.812 839.221 431.93 839.828 C 433.377 847.548 443.641 847.802 444.967 847.802" fill="rgb(249,151,70)"/><g><path d=" M 147.014 463.414 L 196.641 662.754 L 203.436 690.055 L 226.549 782.903 L 655.966 782.903 L 570.773 463.414 L 147.014 463.414 Z " fill="rgb(249,151,70)"/></g><path d=" M 147.013 463.415 L 140.136 465.708 L 217.405 789.839 L 226.55 782.904 L 147.013 463.415 Z " fill="rgb(238,152,73)"/><g><path d=" M 217.406 789.839 L 644.179 789.839 L 655.961 782.904 L 226.55 782.904 L 217.406 789.839 Z " fill="rgb(216,103,19)"/></g><path d=" M 367.276 852.288 L 459.677 852.288 L 459.677 847.899 L 367.276 847.899 L 367.276 852.288 Z " fill="rgb(241,163,79)"/><g><path d=" M 635.161 724.032 L 565.486 467.639 L 146.327 467.639 L 146.327 463.415 L 570.772 463.415 L 640.216 723.463 L 635.161 724.032" fill="rgb(241,163,79)"/></g><path d=" M 436.189 789.836 L 435.712 793.192 L 348.811 810.748 L 350.004 796.572 L 350.572 789.836 L 436.189 789.836 Z " fill="rgb(216,103,19)"/><g><clipPath id="_clipPath_FvXrZgR9iC0ezwNbb92EuBUUfZwe4560"><path d=" M 397.942 847.899 L 377.03 847.899 C 367.908 847.887 360.172 847.86 355.722 847.802 C 348.098 847.706 346.763 841.024 346.7 836.698 L 433.189 820.426 C 432.289 830.337 431.764 836.665 431.758 837.867 C 431.758 837.888 431.758 837.913 431.758 837.934 C 431.758 838.61 431.818 839.242 431.93 839.828 C 433.377 847.548 443.641 847.802 444.967 847.802 C 442.973 847.808 420.388 847.878 397.942 847.899" fill="rgb(255,255,255)"/></clipPath><g clip-path="url(#_clipPath_FvXrZgR9iC0ezwNbb92EuBUUfZwe4560)"><g><path d=" M 346.7 847.899 L 444.967 847.899 L 444.967 820.426 L 346.7 820.426 L 346.7 847.899 Z " fill="rgb(236,132,50)"/></g></g></g><path d=" M 386.75 847.905 C 383.4 847.905 380.135 847.902 377.03 847.899 L 377.03 847.899 L 397.942 847.899 C 394.175 847.902 390.411 847.905 386.75 847.905 Z " fill="rgb(231,139,55)"/><path d=" M 226.549 782.904 L 226.549 782.904 L 203.435 690.056 L 415.183 718.226 L 226.55 782.904" fill="rgb(236,132,50)"/><g><path d=" M 147.014 463.414 L 570.769 463.414 L 639.526 720.184 L 208.753 720.184 L 147.014 463.414 Z " fill="rgb(105,157,238)"/></g><path d=" M 452.639 752.64 C 451.416 746.345 445.32 741.24 439.022 741.24 C 432.724 741.24 428.613 746.345 429.837 752.64 C 431.06 758.938 437.159 764.043 443.453 764.043 C 449.752 764.043 453.866 758.938 452.639 752.64 Z " fill="rgb(216,103,19)"/><g><path d=" M 619.541 709.056 L 222.776 709.056 L 177.841 530.059 L 174.399 516.334 L 171.459 504.625 L 169.107 495.252 L 164.567 477.17 L 555.614 477.17 L 555.886 478.164 L 560.595 495.252 L 563.18 504.625 L 566.409 516.334 L 570.194 530.059 L 619.541 709.056 Z " fill="rgb(233,243,254)"/></g><g><path d=" M 619.541 709.669 L 222.776 709.669 L 177.841 530.671 L 174.399 516.945 L 171.459 505.237 L 169.107 495.863 L 164.567 477.781 L 555.614 477.781 L 555.886 478.775 L 560.595 495.863 L 563.18 505.237 L 566.409 516.945 L 570.194 530.671 L 619.541 709.669 Z " fill="rgb(233,243,254)"/></g><g><path d=" M 560.596 495.251 L 169.108 495.251 L 164.568 477.169 L 555.466 477.169 L 555.891 478.162 L 560.596 495.251 Z " fill="rgb(175,205,251)"/></g><path d=" M 175.445 486.209 C 174.973 484.315 176.126 482.777 178.021 482.777 C 179.917 482.777 181.836 484.315 182.309 486.209 C 182.781 488.106 181.628 489.643 179.733 489.643 C 177.837 489.643 175.918 488.106 175.445 486.209 Z " fill="rgb(233,243,254)"/><path d=" M 186.848 486.209 C 186.376 484.315 187.529 482.777 189.424 482.777 C 191.32 482.777 193.239 484.315 193.712 486.209 C 194.185 488.106 193.031 489.643 191.136 489.643 C 189.24 489.643 187.321 488.106 186.848 486.209 Z " fill="rgb(233,243,254)"/><path d=" M 199.127 486.209 C 198.655 484.315 199.808 482.777 201.704 482.777 C 203.599 482.777 205.519 484.315 205.991 486.209 C 206.464 488.106 205.31 489.643 203.415 489.643 C 201.519 489.643 199.6 488.106 199.127 486.209 Z " fill="rgb(233,243,254)"/><path d=" M 346.371 709.669 L 307.139 709.669 C 306.763 706.603 306.432 703.362 306.135 699.979 C 305.608 693.916 305.205 687.392 304.907 680.607 C 304.836 679.04 304.774 677.463 304.716 675.871 C 304.641 673.847 304.576 671.799 304.518 669.742 C 304.422 666.247 304.347 662.713 304.292 659.158 L 304.289 659.146 C 304.22 654.612 304.186 650.048 304.176 645.502 L 304.176 645.499 C 304.172 644.363 304.172 643.227 304.172 642.097 L 304.172 642.094 C 304.172 641.025 304.176 639.968 304.179 638.908 C 304.213 629.121 304.36 619.521 304.569 610.595 C 305.02 590.843 305.752 574.387 306.141 566.476 L 306.141 566.473 C 306.299 563.226 306.401 561.419 306.401 561.419 L 306.412 561.425 C 306.5 561.438 307.095 561.546 308.032 561.773 C 308.719 561.942 309.591 562.169 310.582 562.474 L 310.586 562.474 C 311.481 562.742 312.469 563.078 313.508 563.473 L 313.519 563.476 C 315.286 564.156 317.19 565.023 318.982 566.114 C 319.009 566.129 319.036 566.141 319.064 566.156 C 321.994 567.974 324.64 570.385 325.845 573.568 C 326.881 576.272 329.307 590.804 332.237 610.106 C 332.319 610.656 332.4 611.208 332.485 611.77 C 334.034 622.019 335.708 633.519 337.39 645.263 C 339.172 657.705 340.951 670.416 342.592 682.193 C 343.987 692.294 345.283 701.706 346.371 709.669" fill="rgb(43,71,139)"/><path d=" M 335.384 709.669 L 289.719 709.669 C 288.843 705.902 288.023 702.268 287.295 698.858 C 285.288 689.464 283.969 681.767 284.04 677.629 C 284.074 675.69 284.806 674.173 286.064 673.007 C 286.925 672.207 288.033 671.573 289.336 671.077 C 293.188 669.612 298.723 669.374 304.518 669.742 C 306.487 669.866 308.483 670.056 310.452 670.295 C 321.306 671.612 331.382 674.3 331.382 674.3 C 331.382 674.3 332.056 677.025 332.85 681.785 C 333.448 685.359 334.116 690.083 334.611 695.662 C 334.898 698.903 335.131 702.434 335.261 706.198 C 335.3 707.331 335.339 708.488 335.384 709.669" fill="rgb(35,56,98)"/><path d=" M 314.295 677.683 L 313.84 680.982 L 311.628 697.003 L 311.252 699.737 L 309.881 709.669 L 262.291 709.669 C 261.922 703.105 261.58 696.707 261.515 691.131 C 261.508 690.515 261.505 689.908 261.505 689.313 C 261.505 680.919 262.243 674.693 264.65 673.119 C 267.378 671.34 276.427 671.826 286.064 673.007 C 287.025 673.122 287.992 673.249 288.96 673.379 C 294.576 674.134 300.197 675.068 304.716 675.871 C 307.061 676.288 309.109 676.672 310.702 676.977 C 312.951 677.409 314.295 677.683 314.295 677.683 Z " fill="rgb(198,84,71)"/><path d=" M 261.505 569.681 C 261.505 569.681 287.65 552.777 306.402 561.422 C 309.391 562.8 312.8 566.645 315.24 569.333 C 322.018 576.804 335.264 695.451 335.264 695.451 C 335.264 695.451 297.664 708.186 261.505 691.131 L 261.505 569.681" fill="rgb(255,255,255)"/><path d=" M 307.89 560.994 C 307.89 560.994 334.357 571.841 337.943 580.175 C 341.528 588.508 353.179 639.69 353.179 645.692 C 353.179 651.694 332.892 647.033 329.627 637.355 C 326.915 629.317 317.767 604.623 312.943 589.004 L 307.89 560.994" fill="rgb(43,71,139)"/><path d=" M 302.393 569.258 C 296.615 570.391 288.127 569.182 281.913 565.09 C 284.719 558.387 285.869 553.095 286.278 549.672 C 286.302 549.491 286.32 549.313 286.338 549.144 C 286.523 547.367 286.496 546.165 286.41 545.613 L 301.347 545.613 C 301.347 545.613 305.431 547.479 305.431 548.769 C 305.431 549.461 305.437 550.119 305.449 550.751 C 305.479 552.469 305.548 553.968 305.638 555.257 C 305.922 559.447 306.402 561.422 306.402 561.422 C 306.402 561.422 308.228 568.113 302.393 569.258" fill="rgb(255,178,125)"/><path d=" M 305.638 555.257 C 294.321 557.441 287.751 551.258 286.278 549.672 C 286.069 549.446 285.961 549.31 285.961 549.31 C 286.081 549.249 286.206 549.198 286.338 549.144 C 290.55 547.437 300.11 548.793 305.449 550.751 C 305.479 552.469 305.548 553.968 305.638 555.257" fill="rgb(226,145,90)"/><path d=" M 282.581 543.157 C 284.604 554.04 298.648 553.684 304.717 552.998 C 306.425 552.811 307.5 552.59 307.5 552.59 C 309.426 552.077 310.5 549.044 310.999 545.069 C 311.99 537.206 310.738 525.664 309.41 522.71 C 307.411 518.27 303.645 513.464 289.502 516.932 C 275.356 520.399 279.986 529.21 282.581 543.157 Z " fill="rgb(255,178,125)"/><path d=" M 309.937 516.639 C 308.004 513.962 303.905 510.694 300.183 508.679 C 292.186 504.354 281.95 508.815 281.907 508.833 C 270.355 513.914 267.338 522.752 273.463 536.52 C 279.94 551.077 286.106 549.44 286.106 549.44 C 286.106 549.44 284.797 548.627 284.916 544.087 C 284.922 543.83 284.933 543.616 284.945 543.429 C 285.004 542.498 284.676 541.568 283.981 540.946 C 282.546 539.665 281.847 535.792 283.048 534.714 C 284.498 533.412 286.535 534.995 287.186 536.209 C 287.754 537.067 288.772 537.369 289.721 536.768 C 293.316 534.497 290.981 529.951 294.416 527.169 C 297.852 524.387 304.824 526.721 309.978 524.504 C 316.724 521.991 311.393 518.656 309.937 516.639" fill="rgb(35,56,98)"/><path d=" M 311.792 709.669 L 254.866 709.669 C 255.273 697.864 255.796 683.77 256.346 669.501 C 256.486 665.8 256.633 662.085 256.777 658.4 C 256.842 656.838 256.9 655.285 256.961 653.733 C 258.22 622.043 259.467 593.426 259.73 591.886 C 260.329 588.397 260.893 585.427 261.505 582.848 C 263.293 575.342 265.515 571.224 270.362 567.684 C 270.834 567.325 274.711 565.373 278.126 563.67 C 280.916 562.286 283.397 561.075 283.473 561.042 L 283.473 561.039 L 283.476 561.039 C 284.04 561.311 284.662 562.099 285.319 563.265 C 285.975 564.428 286.666 565.981 287.373 567.793 C 289.975 574.478 292.785 584.705 294.737 592.345 L 294.744 592.369 L 294.747 592.384 L 294.747 592.387 C 296.005 597.32 296.908 601.159 297.164 602.261 C 297.602 604.122 298.176 607.723 298.856 612.598 L 298.856 612.61 C 299.776 619.261 300.873 628.281 302.036 638.521 L 302.036 638.524 C 302.155 639.578 302.275 640.641 302.394 641.714 C 302.532 642.94 302.671 644.182 302.812 645.435 L 302.812 645.441 C 302.856 645.843 302.901 646.248 302.942 646.649 L 302.942 646.653 C 303.389 650.709 303.841 654.89 304.289 659.146 L 304.292 659.158 C 304.675 662.665 309.994 665.205 310.363 668.779 C 310.391 669.038 310.418 669.564 310.452 670.295 C 310.52 671.808 310.603 674.204 310.702 676.977 C 310.743 678.209 310.787 679.52 310.835 680.855 C 311.044 686.797 311.3 693.306 311.591 696.439 C 311.604 696.587 311.618 696.774 311.628 697.003 C 311.663 697.629 311.69 698.547 311.714 699.704 C 311.762 702.157 311.786 705.67 311.792 709.669" fill="rgb(43,71,139)"/><path d=" M 272.96 604.66 C 272.943 604.732 272.053 636.703 296.104 640.587 C 320.154 644.472 304.174 645.499 304.174 645.499 C 304.174 645.499 258.924 643.574 258.177 642.381 C 257.43 641.185 272.96 604.66 272.96 604.66" fill="rgb(35,56,98)"/><path d=" M 293.28 654.313 C 293.28 654.313 292.829 654.633 291.963 655.192 L 291.918 655.219 C 288.249 657.56 277.359 663.946 261.504 668.226 C 259.84 668.676 258.119 669.105 256.347 669.498 C 256.488 665.8 256.634 662.085 256.777 658.4 C 254.683 658.237 252.679 657.971 250.817 657.575 C 250.88 657.089 250.946 656.602 251.008 656.113 C 253.025 655.285 255.03 654.488 256.963 653.733 C 258.537 653.117 260.061 652.531 261.504 651.99 C 268.017 649.516 272.845 647.84 272.845 647.84 L 292.124 653.944 L 293.28 654.313" fill="rgb(35,56,98)"/><path d=" M 298.383 653.778 C 298.383 653.778 295.906 654.397 291.963 655.192 L 291.921 655.201 C 284.649 656.66 272.424 658.711 261.504 658.599 C 259.894 658.581 258.31 658.521 256.777 658.4 C 254.683 658.237 252.679 657.971 250.817 657.575 C 246.826 656.732 243.483 655.307 241.296 653.077 C 225.052 636.533 250.16 577.151 255.439 571.372 C 261.603 564.627 272.851 562.262 279.062 561.45 C 279.322 561.416 279.57 561.383 279.812 561.353 C 281.996 561.093 283.397 561.039 283.475 561.036 L 283.478 561.036 C 283.478 561.036 282.991 562.604 282.175 565.259 C 281.858 566.286 281.491 567.479 281.088 568.808 C 277.273 581.301 269.911 605.856 266.667 619.705 C 265.477 624.771 264.841 628.405 265.131 629.489 C 266.398 634.217 279.522 636.651 287.837 637.727 C 291.305 638.174 293.937 638.385 294.526 638.43 C 294.568 638.43 294.607 638.433 294.648 638.439 L 295.129 640.412 L 296.28 645.142 L 297.412 649.788 L 298.383 653.778" fill="rgb(43,71,139)"/><path d=" M 343.688 682.242 L 287.901 679.892 L 299.219 610.369 L 355.006 612.719 L 343.688 682.242 Z " fill="rgb(249,151,70)"/><path d=" M 294.649 638.439 C 294.649 638.439 305.508 637.684 306.053 640.216 C 307.323 646.115 296.717 650.96 293.281 650.628 C 289.845 650.298 292.149 638.047 294.649 638.439 Z " fill="rgb(255,178,125)"/><path d=" M 351.956 626.837 C 351.956 626.837 341.565 623.587 340.45 625.925 C 337.849 631.371 347.047 638.539 350.466 639.01 C 353.886 639.482 354.478 627.031 351.956 626.837 Z " fill="rgb(255,178,125)"/><path d=" M 284.604 557.547 C 284.604 557.547 280.036 559.722 277.745 563.008 C 277.745 563.008 294.823 592.659 294.746 592.381 C 294.67 592.103 288.974 561.344 284.604 557.547" fill="rgb(35,56,98)"/><path d=" M 305.874 557.964 C 307.378 558.532 310.263 561.486 310.913 563.12 L 312.943 589.004 C 312.943 589.004 308.609 570.01 306.402 561.422 C 305.842 559.239 305.945 558.577 305.874 557.964" fill="rgb(35,56,98)"/><path d=" M 317.712 611.148 C 317.712 611.148 318.153 609.218 320.692 609.441 C 323.232 609.665 337.496 610.369 337.496 610.369 C 337.496 610.369 340.248 610.323 339.994 612.084 L 317.712 611.148 Z " fill="rgb(198,84,71)"/><path d=" M 301.347 545.613 C 301.347 545.613 303.199 547.301 306.187 546.775 C 307.959 546.467 308.95 544.163 308.95 544.163 C 308.95 544.163 305.546 543.549 301.347 545.613" fill="rgb(255,255,255)"/><g><path d=" M 565.692 567.247 L 524.485 567.401 L 511.12 516.241 L 552.329 516.091 L 565.692 567.247" fill="rgb(255,255,255)"/></g><g><path d=" M 542.112 522.81 L 524.834 522.874 L 524.635 522.117 L 541.913 522.053 L 542.112 522.81 Z " fill="rgb(173,203,249)"/></g><g><path d=" M 544.87 524.911 L 523.174 524.992 L 522.981 524.234 L 544.673 524.157 L 544.87 524.911 Z " fill="rgb(173,203,249)"/></g><g><path d=" M 550.832 535.328 L 522.653 535.429 L 522.458 534.673 L 550.633 534.568 L 550.832 535.328" fill="rgb(173,203,249)"/></g><g><path d=" M 551.487 537.818 L 523.306 537.922 L 523.11 537.168 L 551.288 537.064 L 551.487 537.818" fill="rgb(173,203,249)"/></g><g><path d=" M 552.137 540.315 L 523.961 540.416 L 523.762 539.661 L 551.941 539.556 L 552.137 540.315 Z " fill="rgb(173,203,249)"/></g><g><path d=" M 552.787 542.809 L 524.609 542.914 L 524.41 542.158 L 552.587 542.053 L 552.787 542.809 Z " fill="rgb(173,203,249)"/></g><g><path d=" M 553.442 545.301 L 525.262 545.406 L 525.066 544.649 L 553.242 544.544 L 553.442 545.301 Z " fill="rgb(173,203,249)"/></g><g><path d=" M 555.027 551.372 L 526.846 551.477 L 526.652 550.721 L 554.827 550.616 L 555.027 551.372 Z " fill="rgb(173,203,249)"/></g><g><path d=" M 555.677 553.865 L 527.501 553.971 L 527.301 553.214 L 555.479 553.109 L 555.677 553.865 Z " fill="rgb(173,203,249)"/></g><g><path d=" M 556.327 556.363 L 528.15 556.468 L 527.952 555.711 L 556.129 555.605 L 556.327 556.363 Z " fill="rgb(173,203,249)"/></g><g><path d=" M 556.982 558.854 L 528.803 558.96 L 528.606 558.201 L 556.784 558.099 L 556.982 558.854 Z " fill="rgb(173,203,249)"/></g><g><path d=" M 557.632 561.349 L 529.456 561.455 L 529.257 560.695 L 557.437 560.593 L 557.632 561.349 Z " fill="rgb(173,203,249)"/></g><g><path d=" M 582.299 630.817 L 541.09 630.968 L 527.729 579.81 L 568.935 579.658 L 582.299 630.817" fill="rgb(255,255,255)"/></g><g><path d=" M 558.715 586.38 L 541.437 586.446 L 541.239 585.688 L 558.52 585.625 L 558.715 586.38" fill="rgb(173,203,249)"/></g><g><path d=" M 561.472 588.485 L 539.779 588.565 L 539.583 587.808 L 561.276 587.728 L 561.472 588.485 Z " fill="rgb(173,203,249)"/></g><g><path d=" M 567.439 598.895 L 539.264 598.999 L 539.063 598.242 L 567.244 598.138 L 567.439 598.895 Z " fill="rgb(173,203,249)"/></g><g><path d=" M 568.089 601.391 L 539.911 601.495 L 539.713 600.738 L 567.891 600.634 L 568.089 601.391 Z " fill="rgb(173,203,249)"/></g><g><path d=" M 568.739 603.885 L 540.561 603.989 L 540.366 603.232 L 568.544 603.128 L 568.739 603.885 Z " fill="rgb(173,203,249)"/></g><g><path d=" M 569.394 606.378 L 541.216 606.482 L 541.017 605.725 L 569.198 605.621 L 569.394 606.378 Z " fill="rgb(173,203,249)"/></g><g><path d=" M 570.044 608.874 L 541.864 608.978 L 541.668 608.221 L 569.845 608.117 L 570.044 608.874 Z " fill="rgb(173,203,249)"/></g><g><path d=" M 571.629 614.944 L 543.449 615.048 L 543.253 614.291 L 571.43 614.187 L 571.629 614.944" fill="rgb(173,203,249)"/></g><g><path d=" M 572.279 617.437 L 544.103 617.543 L 543.906 616.785 L 572.083 616.682 L 572.279 617.437 Z " fill="rgb(173,203,249)"/></g><g><path d=" M 572.934 619.931 L 544.759 620.037 L 544.558 619.279 L 572.737 619.176 L 572.934 619.931" fill="rgb(173,203,249)"/></g><g><path d=" M 573.584 622.428 L 545.406 622.53 L 545.209 621.775 L 573.384 621.669 L 573.584 622.428" fill="rgb(173,203,249)"/></g><g><path d=" M 574.234 624.922 L 546.057 625.025 L 545.863 624.27 L 574.037 624.164 L 574.234 624.922 Z " fill="rgb(173,203,249)"/></g><g><path d=" M 599.015 694.817 L 557.805 694.968 L 544.442 643.811 L 585.652 643.657 L 599.015 694.817 Z " fill="rgb(255,255,255)"/></g><g><path d=" M 575.43 650.38 L 558.153 650.444 L 557.952 649.685 L 575.233 649.622 L 575.43 650.38 Z " fill="rgb(173,203,249)"/></g><g><path d=" M 578.188 652.483 L 556.498 652.564 L 556.296 651.806 L 577.992 651.725 L 578.188 652.483 Z " fill="rgb(173,203,249)"/></g><g><path d=" M 584.155 662.894 L 555.98 662.997 L 555.779 662.242 L 583.958 662.136 L 584.155 662.894 Z " fill="rgb(173,203,249)"/></g><g><path d=" M 584.805 665.39 L 556.625 665.493 L 556.431 664.735 L 584.607 664.632 L 584.805 665.39" fill="rgb(173,203,249)"/></g><g><path d=" M 585.46 667.881 L 557.282 667.987 L 557.084 667.229 L 585.262 667.126 L 585.46 667.881 Z " fill="rgb(173,203,249)"/></g><g><path d=" M 586.11 670.376 L 557.935 670.482 L 557.733 669.724 L 585.915 669.621 L 586.11 670.376" fill="rgb(173,203,249)"/></g><g><path d=" M 586.76 672.872 L 558.583 672.975 L 558.385 672.22 L 586.561 672.114 L 586.76 672.872 Z " fill="rgb(173,203,249)"/></g><g><path d=" M 588.345 678.944 L 560.17 679.046 L 559.968 678.288 L 588.146 678.186 L 588.345 678.944 Z " fill="rgb(173,203,249)"/></g><g><path d=" M 589 681.435 L 560.821 681.541 L 560.625 680.782 L 588.801 680.68 L 589 681.435 Z " fill="rgb(173,203,249)"/></g><g><path d=" M 589.65 683.93 L 561.474 684.035 L 561.274 683.277 L 589.454 683.174 L 589.65 683.93" fill="rgb(173,203,249)"/></g><g><path d=" M 590.3 686.426 L 562.123 686.528 L 561.923 685.773 L 590.1 685.667 L 590.3 686.426" fill="rgb(173,203,249)"/></g><g><path d=" M 590.955 688.92 L 562.777 689.022 L 562.581 688.267 L 590.755 688.162 L 590.955 688.92 Z " fill="rgb(173,203,249)"/></g><g><path d=" M 544.83 695.249 L 400.706 695.781 L 359.226 536.977 L 378 516.76 L 498.093 516.318 L 544.83 695.249" fill="rgb(255,255,255)"/></g><path d=" M 458.394 543.154 L 407.599 543.341 L 407.016 541.115 L 457.811 540.928 L 458.394 543.154 Z " fill="rgb(173,203,249)"/><path d=" M 466.504 549.337 L 402.729 549.57 L 402.149 547.346 L 465.921 547.111 L 466.504 549.337" fill="rgb(173,203,249)"/><path d=" M 484.039 579.942 L 401.204 580.247 L 400.621 578.024 L 483.456 577.716 L 484.039 579.942 Z " fill="rgb(173,203,249)"/><path d=" M 485.954 587.276 L 403.119 587.581 L 402.536 585.355 L 485.371 585.05 L 485.954 587.276" fill="rgb(173,203,249)"/><path d=" M 487.869 594.607 L 405.034 594.915 L 404.454 592.689 L 487.286 592.384 L 487.869 594.607 Z " fill="rgb(173,203,249)"/><path d=" M 489.784 601.941 L 406.949 602.246 L 406.369 600.023 L 489.201 599.715 L 489.784 601.941 Z " fill="rgb(173,203,249)"/><path d=" M 491.699 609.275 L 408.864 609.58 L 408.284 607.354 L 491.119 607.049 L 491.699 609.275" fill="rgb(173,203,249)"/><path d=" M 496.36 627.118 L 413.525 627.423 L 412.945 625.2 L 495.78 624.892 L 496.36 627.118" fill="rgb(173,203,249)"/><path d=" M 498.275 634.452 L 415.44 634.757 L 414.86 632.531 L 497.695 632.226 L 498.275 634.452 Z " fill="rgb(173,203,249)"/><path d=" M 500.19 641.783 L 417.355 642.091 L 416.775 639.865 L 499.61 639.56 L 500.19 641.783 Z " fill="rgb(173,203,249)"/><path d=" M 502.105 649.117 L 419.273 649.422 L 418.69 647.196 L 501.525 646.891 L 502.105 649.117" fill="rgb(173,203,249)"/><path d=" M 504.02 656.451 L 421.188 656.757 L 420.605 654.53 L 503.44 654.225 L 504.02 656.451 Z " fill="rgb(173,203,249)"/><path d=" M 359.226 536.977 L 383.258 536.889 L 378 516.759 L 359.226 536.977 Z " fill="rgb(173,203,249)"/><g><path d=" M 706.366 819.792 L 589.034 819.792 L 589.034 778.352 L 706.742 778.352 C 715.892 778.352 723.312 785.771 723.312 794.92 L 723.312 802.846 C 723.312 812.204 715.724 819.792 706.366 819.792 Z " fill="rgb(252,236,219)"/></g><g><path d=" M 823.458 795.4 L 823.458 801.635 C 823.458 804.967 822.565 808.087 820.997 810.769 C 817.849 816.164 811.999 819.792 805.3 819.792 L 585.439 819.792 C 583.984 819.792 582.805 818.611 582.805 817.161 L 582.805 816.224 C 582.805 814.775 583.984 813.594 585.439 813.594 L 719.464 813.594 C 720.184 812.721 720.816 811.775 721.343 810.769 C 722.601 808.404 723.312 805.707 723.312 802.846 L 723.312 794.92 C 723.312 793.464 723.124 792.048 722.769 790.703 C 722.167 788.422 721.097 786.332 719.661 784.55 L 585.439 784.55 C 583.984 784.55 582.805 783.372 582.805 781.916 L 582.805 780.986 C 582.805 779.53 583.984 778.352 585.439 778.352 L 806.41 778.352 C 814.199 778.352 820.765 783.571 822.802 790.703 C 823.231 792.196 823.458 793.772 823.458 795.4" fill="rgb(105,157,238)"/></g><g><path d=" M 822.803 790.703 L 722.768 790.703 C 722.167 788.423 721.097 786.332 719.663 784.55 L 585.441 784.55 C 583.982 784.55 582.804 783.372 582.804 781.916 L 582.804 780.986 C 582.804 779.53 583.982 778.352 585.441 778.352 L 806.41 778.352 C 814.197 778.352 820.763 783.571 822.803 790.703" fill="rgb(84,142,226)"/></g><g><path d=" M 589.032 799.071 L 605.312 799.768 L 589.032 800.188 L 589.032 799.071" fill="rgb(244,210,184)"/></g><g><path d=" M 589.034 805.574 L 627.764 806.272 L 589.034 806.691 L 589.034 805.574" fill="rgb(244,210,184)"/></g><g><path d=" M 617.016 851.938 L 741.918 851.938 L 741.918 819.705 L 616.001 819.705 C 607.38 819.705 600.394 826.694 600.394 835.315 L 600.394 835.315 C 600.394 844.495 607.832 851.938 617.016 851.938" fill="rgb(43,71,139)"/></g><g><path d=" M 734.749 851.937 L 876.904 851.937 L 876.904 819.704 L 734.391 819.704 C 725.627 819.704 718.519 826.809 718.519 835.574 L 718.519 835.707 C 718.519 844.67 725.79 851.937 734.749 851.937 Z " fill="rgb(252,236,219)"/></g><g><path d=" M 709.031 851.937 L 881.841 851.937 C 883.173 851.937 884.25 850.859 884.25 849.527 C 884.25 848.194 883.173 847.116 881.841 847.116 L 709.031 847.116 C 707.694 847.116 706.617 848.194 706.617 849.527 C 706.617 850.859 707.694 851.937 709.031 851.937 Z " fill="rgb(43,71,139)"/></g><g><path d=" M 709.031 824.525 L 881.841 824.525 C 883.173 824.525 884.25 823.447 884.25 822.114 C 884.25 820.783 883.173 819.704 881.841 819.704 L 709.031 819.704 C 707.694 819.704 706.617 820.783 706.617 822.114 C 706.617 823.447 707.694 824.525 709.031 824.525 Z " fill="rgb(43,71,139)"/></g><g><path d=" M 876.904 835.822 L 857.702 836.363 L 876.904 836.689 L 876.904 835.822 Z " fill="rgb(244,210,184)"/></g><g><path d=" M 876.904 828.404 L 831.22 828.944 L 876.904 829.271 L 876.904 828.404 Z " fill="rgb(244,210,184)"/></g><g><path d=" M 831.691 828.836 C 831.691 828.836 833.648 830.222 834.297 832.5 C 834.409 832.895 834.485 833.324 834.5 833.772 C 834.607 836.798 834.5 843.643 834.5 843.643 L 840.277 840.22 L 846.043 843.643 L 846.043 834.363 C 846.043 832.608 845.546 830.905 844.628 829.787 C 844.187 829.243 843.644 828.836 843.03 828.836 L 831.691 828.836" fill="rgb(105,157,238)"/></g><g><path d=" M 831.688 828.836 C 831.688 828.836 833.646 830.222 834.295 832.5 L 845.875 832.636 C 845.875 832.636 845.424 829.373 843.031 828.836 L 831.688 828.836" fill="rgb(86,140,219)"/></g><g><path d=" M 720.212 778.439 L 847.83 778.439 L 847.83 731.082 L 719.795 731.082 C 709.575 731.082 701.29 739.364 701.29 749.586 L 701.29 759.515 C 701.29 769.966 709.763 778.439 720.212 778.439" fill="rgb(252,236,219)"/></g><g><path d=" M 704.294 749.456 L 704.294 759.648 C 704.324 764.001 706.731 767.776 710.275 769.797 C 712.018 770.788 714.029 771.353 716.174 771.353 L 854.76 771.353 C 856.385 771.353 857.702 772.669 857.702 774.295 L 857.702 775.497 C 857.702 777.122 856.385 778.439 854.76 778.439 L 615.347 778.439 C 608.476 778.439 602.407 775.023 598.74 769.797 C 596.431 766.502 595.068 762.493 595.068 758.161 L 595.068 750.121 C 595.068 747.151 595.747 744.342 596.961 741.841 C 600.041 735.471 606.558 731.082 614.107 731.082 L 854.76 731.082 C 856.385 731.082 857.702 732.395 857.702 734.02 L 857.702 735.223 C 857.702 736.845 856.385 738.162 854.76 738.162 L 715.752 738.162 C 712.43 738.162 709.421 739.578 707.318 741.841 C 705.461 743.844 704.309 746.514 704.294 749.456 Z " fill="rgb(181,69,60)"/></g><g><path d=" M 847.83 754.76 L 830.062 755.555 L 847.83 756.035 L 847.83 754.76 Z " fill="rgb(244,210,184)"/></g><g><path d=" M 847.83 743.862 L 805.56 744.657 L 847.83 745.137 L 847.83 743.862 Z " fill="rgb(244,210,184)"/></g><g><path d=" M 805.993 744.5 C 805.993 744.5 808.786 746.001 809.707 748.469 C 809.87 748.901 809.974 749.363 809.999 749.85 C 810.152 753.13 809.999 760.552 809.999 760.552 L 818.233 756.842 L 826.447 760.552 L 826.447 750.493 C 826.447 748.59 825.744 746.741 824.432 745.527 C 823.798 744.941 823.03 744.5 822.159 744.5 L 805.993 744.5" fill="rgb(249,151,70)"/></g><g><path d=" M 805.996 744.5 C 805.996 744.5 808.782 746.001 809.708 748.469 L 826.21 748.617 C 826.21 748.617 825.562 745.083 822.157 744.5 L 805.996 744.5 Z " fill="rgb(237,125,43)"/></g><g><path d=" M 722.436 713.523 C 729.739 726.234 738.925 731.142 738.925 731.142 L 777.146 731.142 C 777.146 731.142 716.862 703.823 722.436 713.523" fill="rgb(35,56,98)"/></g><g><path d=" M 751.787 811.887 C 752.786 813.028 752.912 814.303 752.422 815.665 L 752.408 815.684 C 751.495 818.203 748.489 821.018 744.988 823.828 C 744.538 824.187 744.142 824.516 743.795 824.818 C 743.705 824.899 743.615 824.978 743.525 825.06 C 743.458 825.12 743.39 825.187 743.323 825.244 C 740.06 828.252 741.289 828.941 735.425 835.043 C 728.743 841.996 724.144 842.12 722.834 841.489 C 721.727 840.948 723.977 837.26 726.47 833.116 C 726.592 832.916 726.709 832.714 726.83 832.512 C 727.163 831.959 727.492 831.4 727.825 830.847 C 730.745 825.857 729.994 823.516 729.305 816.095 C 728.743 810.059 719.918 782.39 719.918 782.39 L 732.725 780.182 C 732.725 780.182 736.582 802.217 740.83 805.61 C 743.102 807.419 745.645 807.443 747.832 808.784 C 747.985 808.875 748.138 808.972 748.286 809.071 C 749.528 809.893 750.788 810.742 751.787 811.887" fill="rgb(255,178,125)"/></g><g><path d=" M 751.787 811.887 C 752.786 813.028 752.912 814.303 752.422 815.665 L 752.408 815.684 C 751.292 818.2 748.358 821 744.974 823.8 C 744.533 824.165 744.142 824.504 743.795 824.818 C 743.705 824.899 743.615 824.978 743.525 825.06 C 743.458 825.12 743.39 825.187 743.323 825.244 C 740.06 828.252 741.289 828.941 735.425 835.043 C 728.743 841.996 724.144 842.12 722.834 841.489 C 721.727 840.948 723.977 837.26 726.47 833.116 C 727.771 832.639 733.814 830.182 738.382 824.338 C 742.405 819.203 745.087 812.606 747.832 808.784 C 747.985 808.875 748.138 808.972 748.286 809.071 C 749.528 809.893 750.788 810.742 751.787 811.887" fill="rgb(35,56,98)"/></g><g><path d=" M 648.521 803.888 C 647.729 807.842 642.096 807.181 635.801 805.644 C 629.501 804.106 631 805.933 622.041 804.943 C 613.078 803.949 610.368 800.608 610.093 799.276 C 609.846 798.095 614.275 797.678 619.025 797.131 C 619.621 797.065 620.221 796.989 620.821 796.917 C 626.183 796.243 630.109 792.785 634.977 789.942 C 639.59 787.251 646.474 776.286 646.474 776.286 L 658.763 777.258 C 658.763 777.258 652.314 787.054 649.824 791.311 C 648.353 793.815 648.431 797.128 648.615 799.684 C 648.71 801.076 648.8 802.496 648.521 803.888" fill="rgb(255,178,125)"/></g><g><path d=" M 635.801 805.643 C 629.503 804.106 631.002 805.933 622.043 804.942 C 613.081 803.949 610.367 800.608 610.092 799.276 C 609.849 798.094 614.278 797.678 619.024 797.131 L 619.07 797.222 C 619.07 797.222 624.445 801.031 631.901 801.209 C 637.979 801.357 644.42 799.617 648.617 799.683 C 648.714 801.076 648.802 802.496 648.52 803.888 C 647.729 807.842 642.095 807.18 635.801 805.643 Z " fill="rgb(35,56,98)"/></g><g><path d=" M 695.613 725.318 L 707.098 756.225 L 722.096 796.584 C 722.096 796.584 726.163 796.98 730.064 795.856 C 733.651 794.82 737.767 792.107 737.767 792.107 C 737.767 792.107 733.607 748.773 725.837 723.899 C 723.845 717.513 721.611 712.348 719.152 709.442 C 707.111 695.209 695.613 725.318 695.613 725.318" fill="rgb(35,56,98)"/></g><g><path d=" M 707.291 676.231 C 714.816 673.802 736.276 676.92 757.835 681.139 L 762.354 673.693 L 808.923 670.057 C 808.923 670.057 824.29 704.135 815.876 725.851 C 814.641 729.04 812.182 731.088 807.995 731.155 L 807.313 731.155 C 807.313 731.155 779.597 731.14 770.595 731.14 C 747.436 731.14 721.581 715.221 718.238 714.55 C 712.762 713.457 710.574 724.404 705.098 735.9 C 699.622 747.397 653.64 786.813 653.64 786.813 C 653.64 786.813 646.574 786.882 643.65 785.789 C 640.515 784.611 639.364 783.083 639.364 783.083 C 639.364 783.083 690.319 681.704 707.291 676.231" fill="rgb(43,71,139)"/></g><g><path d=" M 762.63 609.56 C 779.208 618.691 812.85 637.621 813.028 637.497 C 813.028 637.497 825.391 642.158 832.405 637.497 C 844.1 629.734 850.371 608.835 828.99 590.851 C 818.32 581.881 810.744 579.698 809.597 565.376 C 808.97 557.606 798.351 531.963 780.702 534.335 C 779.229 534.533 770.149 534.957 764.185 538.089 C 748.983 546.073 737.767 606.026 762.63 609.56" fill="rgb(35,56,98)"/></g><g><path d=" M 776.528 601.787 C 776.456 601.834 784.686 604.645 790.193 602.207 C 795.37 599.919 799.293 591.398 799.216 591.394 C 796.862 591.285 794.274 589.226 792.283 575.712 L 791.279 576.071 L 774.413 582.14 C 774.413 582.14 775.633 587.552 776.423 592.705 C 777.092 597.031 777.446 601.176 776.528 601.787" fill="rgb(255,178,125)"/></g><g><path d=" M 774.41 582.141 C 774.41 582.141 775.631 587.553 776.422 592.706 C 786.111 590.962 789.913 581.31 791.277 576.072 L 774.41 582.141 Z " fill="rgb(237,151,93)"/></g><g><path d=" M 771.898 587.512 C 771.898 587.512 794.975 584.415 792.824 570.074 C 790.678 555.733 792.206 545.675 777.379 547.047 C 762.558 548.417 760.522 554.318 760.074 559.279 C 759.627 564.24 765.841 587.949 771.898 587.512" fill="rgb(255,178,125)"/></g><g><path d=" M 760.914 551.418 C 760.914 551.418 775.69 564.148 785.736 565.174 C 795.783 566.201 799.588 562.975 799.588 562.975 C 799.588 562.975 793.663 558.058 790.102 550.122 C 789.053 547.783 786.833 546.178 784.277 545.958 C 777.102 545.338 763.499 545.055 760.914 551.418" fill="rgb(35,56,98)"/></g><g><path d=" M 770.15 550.278 C 770.15 550.278 765.208 555.056 763.651 558.6 C 762.15 562.02 761.703 570.199 762.896 573.448 C 762.896 573.448 755.2 558.477 759.557 551.203 C 764.176 543.489 770.15 550.278 770.15 550.278 Z " fill="rgb(35,56,98)"/></g><g><path d=" M 757.095 635.78 C 757.794 682.492 757.287 672.732 762.4 677.163 C 763.63 678.23 767.094 678.867 771.645 679.166 C 785.968 680.118 811.146 677.758 812.105 675.113 C 815.407 665.951 813.08 663.105 815.835 649.084 C 816.12 647.594 816.475 645.978 816.893 644.22 C 819.191 634.591 821.429 631.313 813.276 615.842 C 805.881 601.825 798.2 590.45 797.511 590.86 C 778.002 602.441 776.428 592.707 776.428 592.707 C 776.428 592.707 756.756 612.995 757.095 635.78" fill="rgb(255,255,255)"/></g><g><path d=" M 707.098 756.225 L 722.096 796.584 C 722.096 796.584 726.163 796.98 730.064 795.856 C 733.651 794.82 737.767 792.107 737.767 792.107 C 737.767 792.107 733.607 748.773 725.837 723.899 L 707.098 756.225" fill="rgb(43,71,139)"/></g><g><path d=" M 776.423 592.705 C 776.423 592.705 756.35 596.108 753.995 604.751 C 751.636 613.394 737.764 664.203 737.764 664.203 C 737.764 664.203 747.967 666.036 752.686 661.321 C 757.4 656.609 769.089 617.585 769.089 617.585 L 776.423 592.705" fill="rgb(255,255,255)"/></g><g><path d=" M 771.642 679.167 C 785.968 680.118 811.146 677.759 812.103 675.114 C 815.406 665.952 813.076 663.107 815.831 649.085 L 808.922 629.632 C 808.922 629.632 810.066 651.296 803.675 656.993 C 797.294 662.69 777.52 667.991 774.412 672.751 C 772.912 675.038 771.93 677.328 771.642 679.167" fill="rgb(235,243,255)"/></g><g><path d=" M 788.057 670.056 C 788.057 670.056 773.924 666.912 771.647 668.165 C 769.364 669.418 763.79 673.986 763.092 675.575 C 762.395 677.163 768.171 674.367 770.048 673.865 C 771.265 673.539 774.467 674.65 776.051 675.179 C 782.719 677.402 786.808 676.257 786.808 676.257 L 788.057 670.056" fill="rgb(255,178,125)"/></g><g><path d=" M 797.523 590.85 C 797.523 590.85 816.494 592.019 823.062 601.18 C 832.308 614.076 850.651 669.035 840.141 676.366 C 828.299 684.622 786.263 678.525 786.263 678.525 C 786.263 678.525 784.86 671.986 786.808 668.823 C 788.757 665.661 820.39 660.55 821.848 659.091 C 823.307 657.629 803.597 630.621 803.597 626.242 C 803.597 621.861 797.523 590.85 797.523 590.85" fill="rgb(255,255,255)"/></g><g><path d=" M 770.957 672.099 C 770.957 672.099 767.997 675.917 767.029 676.373 C 766.056 676.829 765.429 676.714 765.429 676.714 L 767.426 673.123 L 770.957 672.099" fill="rgb(255,178,125)"/></g><g><path d=" M 771.647 668.165 L 763.04 672.345 C 763.04 672.345 763.404 672.943 764.466 672.895 C 765.523 672.847 768.199 671.868 768.199 671.868 L 771.647 668.165 Z " fill="rgb(255,178,125)"/></g><g><path d=" M 767.028 682.224 L 698.935 682.224 L 678.447 631.284 L 746.439 631.284 L 767.028 682.224 Z " fill="rgb(249,151,70)"/></g><g><path d=" M 698.134 680.239 L 788.057 680.239 L 788.057 682.223 L 698.936 682.223 L 698.134 680.239 Z " fill="rgb(237,125,43)"/></g><g><path d=" M 716.121 656.754 C 715.607 654.963 716.644 653.513 718.435 653.513 C 720.227 653.513 722.092 654.963 722.606 656.754 C 723.119 658.545 722.083 659.995 720.292 659.995 C 718.504 659.995 716.635 658.545 716.121 656.754 Z " fill="rgb(255,255,255)"/></g><path d=" M 148.227 702.229 L 146.777 703.232 C 145.229 704.307 143.096 703.921 142.023 702.371 L 133.589 690.204 C 132.516 688.654 132.902 686.522 134.451 685.449 L 136.528 684.009 C 136.831 683.8 137.248 683.876 137.458 684.178 C 137.668 684.483 137.593 684.897 137.289 685.108 L 135.212 686.549 C 134.27 687.201 134.035 688.5 134.688 689.443 L 143.122 701.61 C 143.775 702.552 145.073 702.788 146.015 702.135 L 147.465 701.13 C 148.408 700.477 148.643 699.178 147.99 698.236 L 142.391 690.159 C 142.181 689.854 142.256 689.437 142.56 689.228 C 142.863 689.017 143.28 689.092 143.49 689.397 L 149.089 697.475 C 150.162 699.021 149.775 701.154 148.227 702.229 Z " fill="rgb(175,205,251)"/><path d=" M 157.473 714.227 L 154.873 716.03 C 152.459 717.704 149.037 716.961 147.244 714.375 L 134.564 696.079 C 134.354 695.777 134.43 695.36 134.733 695.149 C 135.036 694.94 135.453 695.016 135.663 695.318 L 148.343 713.611 C 149.716 715.592 152.303 716.184 154.111 714.931 L 156.711 713.13 C 158.519 711.877 158.873 709.246 157.5 707.264 L 143.057 686.428 C 141.685 684.447 139.097 683.855 137.289 685.108 C 136.986 685.32 136.569 685.244 136.359 684.939 C 136.149 684.637 136.224 684.22 136.528 684.009 C 138.942 682.335 142.364 683.078 144.156 685.667 L 158.599 706.503 C 160.392 709.089 159.886 712.557 157.473 714.227" fill="rgb(175,205,251)"/><path d=" M 174.916 809.779 L 175.229 812.355 C 175.562 815.107 173.596 817.617 170.845 817.949 L 149.222 820.574 C 146.471 820.907 143.961 818.94 143.627 816.191 L 143.179 812.5 C 143.114 811.959 143.498 811.47 144.037 811.404 C 144.576 811.34 145.066 811.724 145.132 812.261 L 145.58 815.953 C 145.783 817.629 147.311 818.825 148.985 818.623 L 170.608 815.998 C 172.282 815.796 173.479 814.267 173.276 812.594 L 172.963 810.014 C 172.76 808.341 171.232 807.145 169.558 807.347 L 155.204 809.09 C 154.665 809.153 154.175 808.77 154.109 808.232 C 154.044 807.691 154.428 807.202 154.967 807.135 L 169.321 805.396 C 172.072 805.06 174.582 807.027 174.916 809.779" fill="rgb(175,205,251)"/><path d=" M 196.877 805.982 L 197.438 810.603 C 197.958 814.892 194.643 818.834 190.047 819.393 L 157.539 823.338 C 157 823.405 156.51 823.018 156.444 822.48 C 156.378 821.94 156.763 821.45 157.302 821.384 L 189.81 817.439 C 193.329 817.013 195.875 814.053 195.485 810.839 L 194.924 806.22 C 194.534 803.006 191.354 800.741 187.836 801.167 L 150.807 805.661 C 147.288 806.09 144.742 809.051 145.132 812.261 C 145.197 812.802 144.813 813.292 144.274 813.358 C 143.735 813.421 143.245 813.038 143.179 812.5 C 142.659 808.211 145.974 804.266 150.569 803.71 L 187.598 799.215 C 192.194 798.657 196.356 801.692 196.877 805.982 Z " fill="rgb(175,205,251)"/><g><path d=" M 543.373 503.796 C 543.373 502.141 544.712 500.798 546.367 500.798 C 548.025 500.798 549.365 502.141 549.365 503.796 C 549.365 505.451 548.025 506.794 546.367 506.794 C 544.712 506.794 543.373 505.451 543.373 503.796 Z " fill="rgb(249,151,70)"/></g></g></g></svg>