<?xml version="1.0" encoding="UTF-8" standalone="no"?><!-- Generator: Gravit.io --><svg xmlns="http://www.w3.org/2000/svg" xmlns:xlink="http://www.w3.org/1999/xlink" style="isolation:isolate" viewBox="-6486.004 -5175.877 446.81 503.223" width="446.81pt" height="503.223pt"><g><g><path d=" M -6368.803 -4849.356 C -6369.556 -4840.981 -6377.439 -4835.293 -6384.55 -4832.228 C -6392.295 -4828.891 -6400.81 -4827.544 -6409.212 -4827.652 C -6417.788 -4827.763 -6426.544 -4829.404 -6434.278 -4833.208 C -6441.026 -4836.529 -6448.188 -4842.552 -6448.166 -4850.744 C -6448.182 -4844.779 -6447.764 -4839.849 -6443.466 -4835.192 C -6437.931 -4829.197 -6429.599 -4825.968 -6421.762 -4824.349 C -6406.47 -4821.193 -6385.65 -4822.717 -6374.034 -4834.489 C -6369.36 -4839.225 -6368.722 -4844.217 -6368.704 -4850.517 C -6368.72 -4850.129 -6368.754 -4849.741 -6368.803 -4849.356 Z " fill="rgb(181,205,237)"/><path d=" M -6380.442 -4866.915 C -6364.876 -4857.927 -6364.775 -4843.355 -6380.24 -4834.368 C -6395.704 -4825.38 -6420.882 -4825.38 -6436.446 -4834.368 C -6452.012 -4843.355 -6452.076 -4857.927 -6436.611 -4866.915 C -6421.147 -4875.901 -6396.006 -4875.901 -6380.442 -4866.915 Z " fill="rgb(231,239,250)"/><path d=" M -6401.356 -4885.08 L -6401.455 -4850.349 L -6407.53 -4846.819 L -6407.432 -4881.548 L -6401.356 -4885.08" fill="rgb(205,218,242)"/><path d=" M -6407.432 -4881.548 L -6407.53 -4846.819 L -6413.646 -4850.349 L -6413.548 -4885.08 L -6407.432 -4881.548 Z " fill="rgb(139,170,222)"/><path d=" M -6401.356 -4885.08 L -6407.432 -4881.548 L -6413.548 -4885.08 L -6407.471 -4888.611 L -6401.356 -4885.08 Z " fill="rgb(95,166,223)"/><path d=" M -6446.948 -4997.687 C -6446.948 -4997.687 -6459.401 -4994.365 -6462.722 -4986.895 C -6466.043 -4979.423 -6465.213 -4922.969 -6447.779 -4899.723 C -6430.344 -4876.479 -6397.967 -4873.156 -6390.495 -4876.479 C -6383.024 -4879.799 -6339.854 -4901.383 -6336.532 -4912.176 C -6333.212 -4922.969 -6349.815 -4931.271 -6358.947 -4935.421 C -6368.08 -4939.572 -6373.891 -4945.384 -6378.872 -4960.328 C -6383.854 -4975.271 -6386.344 -5001.008 -6392.156 -5005.159 C -6397.967 -5009.309 -6412.08 -5015.951 -6446.948 -4997.687" fill="rgb(95,174,228)"/><path d=" M -6372.514 -5012.708 C -6372.514 -5012.708 -6392.943 -5029.62 -6397.096 -5030.012 C -6402.08 -5030.401 -6408.298 -5028.708 -6409.92 -5021.643 C -6411.544 -5014.577 -6407.779 -5009.201 -6404.032 -5007.145 C -6400.286 -5005.089 -6367.411 -4989.489 -6361.599 -4989.52 C -6355.788 -4989.551 -6352.079 -4994.551 -6355.847 -5000.757 C -6359.615 -5006.964 -6372.514 -5012.708 -6372.514 -5012.708" fill="rgb(228,234,245)"/><path d=" M -6407.828 -5033.873 C -6407.828 -5033.873 -6407.87 -5033.613 -6407.787 -5033.203 C -6407.483 -5031.687 -6406.53 -5027.816 -6406.307 -5026.191 C -6406.095 -5024.633 -6407.736 -5021.836 -6411.964 -5021.713 C -6416.192 -5021.591 -6423.446 -5023.004 -6426.079 -5027.92 C -6425.93 -5028.824 -6426.691 -5038.131 -6427.515 -5042.748 L -6407.828 -5033.873 Z " fill="rgb(226,87,54)"/><path d=" M -6398.744 -5064.621 C -6401.799 -5077.42 -6412.395 -5084.249 -6423.838 -5080.971 C -6423.838 -5080.971 -6436.324 -5079.096 -6441.356 -5067.797 C -6446.388 -5056.501 -6437.743 -5047.637 -6432.211 -5042.052 C -6429.882 -5039.761 -6428.12 -5037.992 -6427.007 -5036.864 C -6426.604 -5036.439 -6426.207 -5036.005 -6425.788 -5035.62 L -6425.67 -5035.499 L -6425.658 -5035.511 C -6421.9 -5032.107 -6417.692 -5030.281 -6414.611 -5029.527 C -6409.488 -5028.273 -6403.56 -5029.427 -6400.508 -5033.023 C -6397.456 -5036.619 -6395.69 -5051.82 -6398.744 -5064.621" fill="rgb(244,113,71)"/><path d=" M -6425.136 -5032.869 C -6425.136 -5032.869 -6445.248 -5016.948 -6447.066 -5011.892 C -6448.883 -5006.836 -6448.644 -4993.024 -6443.895 -4984.044 C -6439.144 -4975.064 -6439.048 -4941.164 -6437.175 -4934.625 C -6435.302 -4928.087 -6417.358 -4926.879 -6406.423 -4929.557 C -6395.488 -4932.236 -6378.119 -4941.391 -6381.61 -4953.804 C -6386.766 -4972.136 -6385.54 -4990.603 -6385.126 -4996.436 C -6384.711 -5002.269 -6386.191 -5016.796 -6389.364 -5026.427 C -6390.032 -5028.459 -6397.198 -5031.297 -6397.198 -5031.297 C -6397.198 -5031.297 -6404.628 -5034.755 -6425.136 -5032.869" fill="rgb(39,70,162)"/><path d=" M -6421.49 -4957.007 C -6429.791 -4967.523 -6417.615 -5003.497 -6432.004 -5013.46 C -6436.394 -5016.499 -6440.162 -5017.265 -6443.283 -5016.872 C -6445.212 -5014.848 -6446.64 -5013.072 -6447.066 -5011.892 C -6448.883 -5006.836 -6448.644 -4993.024 -6443.895 -4984.044 C -6439.144 -4975.064 -6439.048 -4941.165 -6437.175 -4934.625 C -6435.47 -4928.673 -6420.462 -4927.149 -6409.532 -4928.943 L -6393.816 -4945.384 C -6393.816 -4945.384 -6413.187 -4946.491 -6421.49 -4957.007" fill="rgb(39,60,128)"/><path d=" M -6425.816 -5030.172 C -6408.331 -5031.779 -6400.284 -5028.771 -6398.286 -5027.847 C -6397.98 -5024.328 -6397.835 -5019.68 -6398.54 -5015.428 C -6399.91 -5007.164 -6403.2 -4984.463 -6403.2 -4984.463 C -6403.2 -4984.463 -6413.988 -5003.113 -6421.091 -5010.789 C -6426.09 -5016.192 -6431.011 -5021.283 -6433.494 -5023.831 C -6429.303 -5027.408 -6425.816 -5030.172 -6425.816 -5030.172" fill="rgb(228,234,245)"/><path d=" M -6407.828 -5033.873 C -6407.828 -5033.873 -6407.87 -5033.613 -6407.787 -5033.203 C -6407.483 -5031.687 -6406.53 -5027.816 -6406.307 -5026.191 C -6406.095 -5024.633 -6407.736 -5021.836 -6411.964 -5021.713 C -6416.192 -5021.591 -6423.446 -5023.004 -6426.079 -5027.92 C -6425.93 -5028.824 -6426.691 -5038.131 -6427.515 -5042.748 L -6407.828 -5033.873 Z " fill="rgb(244,113,71)"/><path d=" M -6398.744 -5064.621 C -6401.799 -5077.42 -6412.395 -5084.249 -6423.838 -5080.971 C -6423.838 -5080.971 -6436.324 -5079.096 -6441.356 -5067.797 C -6446.388 -5056.501 -6437.743 -5047.637 -6432.211 -5042.052 C -6429.882 -5039.761 -6428.12 -5037.992 -6427.007 -5036.864 C -6426.604 -5036.439 -6426.207 -5036.005 -6425.788 -5035.62 L -6425.67 -5035.499 L -6425.658 -5035.511 C -6421.9 -5032.107 -6417.692 -5030.281 -6414.611 -5029.527 C -6409.488 -5028.273 -6403.56 -5029.427 -6400.508 -5033.023 C -6397.456 -5036.619 -6395.69 -5051.82 -6398.744 -5064.621" fill="rgb(247,141,101)"/><path d=" M -6400.76 -5010.811 L -6408.554 -5017.713 L -6414.788 -5006.803 L -6421.075 -5010.772 C -6413.972 -5003.085 -6403.2 -4984.463 -6403.2 -4984.463 C -6403.2 -4984.463 -6400.455 -5003.4 -6398.936 -5012.977 L -6400.76 -5010.811" fill="rgb(210,221,231)"/><path d=" M -6401.296 -4997.44 L -6404.768 -5009.697 L -6404.244 -5013.896 L -6408.554 -5017.713 L -6411.579 -5012.42 L -6408.108 -5009.252 L -6407.164 -4991.053 C -6404.799 -4987.224 -6403.2 -4984.463 -6403.2 -4984.463 C -6403.2 -4984.463 -6402.328 -4990.477 -6401.296 -4997.44 Z " fill="rgb(89,157,219)"/><path d=" M -6442.798 -5069.084 C -6442.798 -5069.084 -6447.779 -5059.952 -6441.552 -5050.404 C -6435.326 -5040.856 -6428.652 -5036.608 -6427.007 -5036.864 C -6425.363 -5037.121 -6424.534 -5037.536 -6424.948 -5038.781 C -6425.363 -5040.027 -6427.439 -5044.177 -6427.439 -5044.177 C -6427.439 -5044.177 -6434.496 -5045.008 -6434.496 -5049.573 C -6434.496 -5054.14 -6432.004 -5054.971 -6429.099 -5053.725 C -6426.194 -5052.48 -6425.778 -5050.404 -6424.118 -5048.744 C -6422.458 -5047.083 -6422.043 -5042.932 -6420.798 -5043.347 C -6419.552 -5043.763 -6418.722 -5045.008 -6418.722 -5047.083 C -6418.722 -5049.159 -6418.722 -5051.649 -6421.212 -5054.14 C -6423.703 -5056.631 -6420.798 -5060.781 -6423.288 -5064.103 C -6425.778 -5067.423 -6427.439 -5068.668 -6427.439 -5068.668 C -6427.439 -5068.668 -6425.778 -5066.177 -6417.476 -5067.839 C -6409.175 -5069.499 -6405.439 -5069.084 -6402.118 -5071.159 C -6398.798 -5073.235 -6399.627 -5077.8 -6401.703 -5079.46 C -6403.778 -5081.121 -6408.759 -5081.952 -6414.571 -5084.027 C -6420.383 -5086.103 -6423.703 -5084.857 -6430.759 -5083.197 C -6437.816 -5081.536 -6444.458 -5074.065 -6442.798 -5069.084" fill="rgb(226,87,54)"/><path d=" M -6325.74 -4819.195 C -6325.74 -4819.195 -6326.016 -4815.043 -6321.588 -4811.999 C -6317.162 -4808.955 -6316.331 -4807.019 -6312.734 -4805.635 C -6309.136 -4804.251 -6305.815 -4799.545 -6307.475 -4796.225 C -6309.136 -4792.905 -6316.884 -4792.352 -6321.866 -4793.735 C -6326.847 -4795.119 -6327.676 -4799.545 -6332.382 -4801.205 C -6337.086 -4802.868 -6338.747 -4804.804 -6340.13 -4806.188 C -6341.514 -4807.572 -6340.96 -4813.105 -6340.96 -4813.105 L -6324.08 -4818.641" fill="rgb(50,36,65)"/><path d=" M -6304.155 -4835.245 C -6304.155 -4835.245 -6304.431 -4831.093 -6300.003 -4828.049 C -6295.576 -4825.005 -6294.746 -4823.068 -6291.148 -4821.685 C -6287.551 -4820.301 -6284.23 -4815.596 -6285.89 -4812.276 C -6287.551 -4808.955 -6295.299 -4808.401 -6300.28 -4809.785 C -6305.262 -4811.169 -6306.092 -4815.596 -6310.796 -4817.257 C -6315.5 -4818.917 -6317.162 -4820.855 -6318.544 -4822.239 C -6319.928 -4823.621 -6319.375 -4829.156 -6319.375 -4829.156 L -6302.495 -4834.692" fill="rgb(50,36,65)"/><path d=" M -6435.879 -4934.453 C -6435.879 -4934.453 -6435.05 -4931.132 -6435.05 -4928.227 C -6435.05 -4925.321 -6437.124 -4917.019 -6432.974 -4907.056 C -6428.823 -4897.093 -6401.011 -4895.019 -6391.879 -4890.868 C -6382.747 -4886.716 -6377.351 -4882.981 -6375.69 -4881.736 C -6374.03 -4880.489 -6371.678 -4862.919 -6364.482 -4852.403 C -6357.287 -4841.885 -6345.111 -4820.855 -6342.344 -4811.999 C -6342.344 -4811.999 -6334.47 -4810.141 -6327.4 -4814.765 C -6323.699 -4817.188 -6324.08 -4818.641 -6324.08 -4818.641 C -6324.08 -4818.641 -6338.47 -4850.188 -6341.79 -4863.472 C -6345.111 -4876.755 -6348.986 -4892.252 -6355.074 -4896.125 C -6361.162 -4900 -6380.532 -4913.837 -6384.96 -4916.604 C -6389.388 -4919.371 -6401.319 -4928.12 -6403.656 -4933.431 C -6405.992 -4938.743 -6428.684 -4947.321 -6435.879 -4934.453" fill="rgb(147,159,194)"/><path d=" M -6413.05 -4948.151 C -6413.05 -4948.151 -6412.219 -4944.831 -6412.219 -4941.925 C -6412.219 -4939.019 -6414.294 -4930.717 -6410.143 -4920.755 C -6405.992 -4910.792 -6378.18 -4908.717 -6369.048 -4904.567 C -6359.916 -4900.416 -6354.52 -4896.679 -6352.859 -4895.433 C -6351.199 -4894.189 -6348.847 -4876.616 -6341.652 -4866.1 C -6334.456 -4855.585 -6322.28 -4834.552 -6319.514 -4825.697 C -6319.514 -4825.697 -6311.639 -4823.84 -6304.57 -4828.465 C -6300.868 -4830.885 -6301.248 -4832.339 -6301.248 -4832.339 C -6301.248 -4832.339 -6315.639 -4863.887 -6318.96 -4877.169 C -6322.28 -4890.453 -6326.155 -4905.949 -6332.243 -4909.824 C -6338.331 -4913.699 -6357.702 -4927.535 -6362.13 -4930.303 C -6366.558 -4933.069 -6378.49 -4941.819 -6380.826 -4947.129 C -6383.162 -4952.441 -6405.854 -4961.019 -6413.05 -4948.151" fill="rgb(147,159,194)"/><path d=" M -6300.979 -4843.192 L -6301.218 -4758.769 L -6315.987 -4750.188 L -6315.747 -4834.608 L -6300.979 -4843.192" fill="rgb(205,218,242)"/><path d=" M -6315.747 -4834.608 L -6315.987 -4750.188 L -6330.852 -4758.769 L -6330.614 -4843.192 L -6315.747 -4834.608" fill="rgb(139,170,222)"/><path d=" M -6300.979 -4843.192 L -6315.747 -4834.608 L -6330.614 -4843.192 L -6315.844 -4851.773 L -6300.979 -4843.192" fill="rgb(95,166,223)"/><path d=" M -6058.13 -4901.021 C -6058.151 -4900.775 -6058.168 -4900.529 -6058.214 -4900.284 C -6058.251 -4900.084 -6058.311 -4899.883 -6058.364 -4899.684 C -6058.426 -4899.449 -6058.483 -4899.216 -6058.564 -4898.984 C -6058.632 -4898.793 -6058.723 -4898.603 -6058.806 -4898.413 C -6058.912 -4898.168 -6059.018 -4897.925 -6059.148 -4897.684 C -6059.242 -4897.508 -6059.355 -4897.336 -6059.462 -4897.163 C -6059.631 -4896.888 -6059.811 -4896.615 -6060.012 -4896.345 C -6060.207 -4896.087 -6060.407 -4895.827 -6060.631 -4895.573 L -6060.784 -4895.393 C -6061.087 -4895.064 -6061.42 -4894.741 -6061.772 -4894.425 C -6061.996 -4894.221 -6062.247 -4894.027 -6062.492 -4893.828 C -6062.708 -4893.656 -6062.915 -4893.481 -6063.147 -4893.313 C -6063.412 -4893.119 -6063.706 -4892.935 -6063.992 -4892.749 C -6064.284 -4892.557 -6064.563 -4892.361 -6064.88 -4892.177 L -6254.775 -4781.823 C -6256.338 -4780.915 -6258.068 -4780.161 -6259.91 -4779.565 C -6261.331 -4779.104 -6262.819 -4778.736 -6264.346 -4778.461 C -6265.328 -4778.284 -6266.327 -4778.145 -6267.334 -4778.044 C -6268.195 -4777.959 -6269.063 -4777.901 -6269.932 -4777.871 C -6270.731 -4777.844 -6271.532 -4777.84 -6272.332 -4777.86 C -6273.104 -4777.879 -6273.875 -4777.921 -6274.64 -4777.983 L -6274.679 -4764.448 C -6273.914 -4764.385 -6273.142 -4764.344 -6272.371 -4764.325 C -6271.571 -4764.305 -6270.77 -4764.309 -6269.971 -4764.336 C -6269.102 -4764.367 -6268.234 -4764.424 -6267.372 -4764.509 C -6266.364 -4764.609 -6265.366 -4764.749 -6264.384 -4764.927 C -6262.858 -4765.201 -6261.37 -4765.569 -6259.947 -4766.031 C -6258.107 -4766.627 -6256.376 -4767.379 -6254.812 -4768.288 L -6064.919 -4878.643 L -6064.632 -4878.812 C -6064.419 -4878.94 -6064.236 -4879.08 -6064.034 -4879.211 C -6063.746 -4879.399 -6063.451 -4879.584 -6063.184 -4879.777 C -6062.954 -4879.945 -6062.747 -4880.12 -6062.532 -4880.293 C -6062.286 -4880.491 -6062.035 -4880.687 -6061.81 -4880.889 L -6061.664 -4881.009 C -6061.364 -4881.287 -6061.087 -4881.571 -6060.824 -4881.859 L -6060.667 -4882.039 C -6060.512 -4882.216 -6060.354 -4882.392 -6060.212 -4882.572 L -6060.051 -4882.811 C -6059.848 -4883.08 -6059.67 -4883.353 -6059.499 -4883.628 L -6059.27 -4883.972 L -6059.186 -4884.149 C -6059.055 -4884.389 -6058.95 -4884.633 -6058.844 -4884.877 C -6058.782 -4885.02 -6058.699 -4885.16 -6058.644 -4885.304 L -6058.603 -4885.449 C -6058.52 -4885.683 -6058.463 -4885.916 -6058.402 -4886.149 C -6058.36 -4886.308 -6058.298 -4886.464 -6058.267 -4886.623 L -6058.252 -4886.749 C -6058.207 -4886.993 -6058.19 -4887.24 -6058.167 -4887.487 C -6058.154 -4887.648 -6058.116 -4887.807 -6058.112 -4887.967 L -6058.108 -4888.172 L -6058.071 -4901.707 C -6058.071 -4901.479 -6058.108 -4901.249 -6058.13 -4901.021" fill="rgb(181,205,237)"/><path d=" M -6276.918 -4778.239 C -6277.702 -4778.349 -6278.478 -4778.483 -6279.242 -4778.643 C -6280.071 -4778.815 -6280.887 -4779.013 -6281.686 -4779.241 C -6282.663 -4779.52 -6283.614 -4779.84 -6284.531 -4780.203 C -6285.72 -4780.672 -6286.854 -4781.212 -6287.911 -4781.823 L -6479.048 -4892.176 C -6483.668 -4894.843 -6485.975 -4898.344 -6485.965 -4901.84 L -6486.004 -4888.305 C -6486.013 -4884.809 -6483.706 -4881.308 -6479.086 -4878.641 L -6287.95 -4768.288 C -6286.892 -4767.677 -6285.759 -4767.137 -6284.57 -4766.667 C -6283.652 -4766.305 -6282.702 -4765.984 -6281.724 -4765.705 C -6280.926 -4765.48 -6280.108 -4765.279 -6279.279 -4765.107 C -6278.516 -4764.949 -6277.74 -4764.815 -6276.956 -4764.704 C -6276.203 -4764.596 -6275.443 -4764.512 -6274.679 -4764.448 L -6274.64 -4777.983 C -6275.406 -4778.047 -6276.166 -4778.132 -6276.918 -4778.239" fill="rgb(181,205,237)"/><path d=" M -6064.988 -4910.836 C -6055.807 -4905.536 -6055.759 -4896.941 -6064.88 -4891.641 L -6254.775 -4781.287 C -6263.895 -4775.985 -6278.731 -4775.985 -6287.911 -4781.287 L -6479.048 -4891.64 C -6488.228 -4896.94 -6488.277 -4905.533 -6479.157 -4910.833 L -6289.262 -5021.188 C -6280.14 -5026.488 -6265.306 -5026.488 -6256.124 -5021.188 L -6064.988 -4910.836 Z " fill="rgb(231,239,250)"/><path d=" M -6270.418 -4870.867 L -6218.092 -4840.457 L -6181.286 -4861.707 L -6233.61 -4892.116 L -6270.418 -4870.867" fill="rgb(255,255,255)"/><path d=" M -6225.944 -4878.432 L -6234.178 -4873.649 L -6244.603 -4876.72 C -6241.692 -4880.049 -6234.666 -4881.373 -6228.908 -4879.677 C -6227.758 -4879.337 -6226.86 -4878.961 -6225.944 -4878.432 Z " fill="rgb(240,57,99)"/><path d=" M -6224.058 -4877.812 C -6218.526 -4874.616 -6218.498 -4869.436 -6223.995 -4866.243 C -6229.491 -4863.048 -6238.432 -4863.047 -6243.964 -4866.243 C -6248.391 -4868.799 -6249.431 -4872.52 -6246.615 -4875.74 L -6234.012 -4872.027 L -6224.058 -4877.812" fill="rgb(163,134,202)"/><path d=" M -6231.627 -4855.075 C -6232.087 -4854.809 -6232.09 -4854.387 -6231.634 -4854.123 C -6231.178 -4853.859 -6230.448 -4853.859 -6229.991 -4854.123 L -6206.632 -4867.608 C -6206.174 -4867.873 -6206.171 -4868.295 -6206.627 -4868.56 C -6207.083 -4868.824 -6207.811 -4868.824 -6208.27 -4868.56 L -6231.627 -4855.075 Z " fill="rgb(181,205,237)"/><path d=" M -6215.491 -4861.272 C -6215.94 -4861.013 -6215.942 -4860.581 -6215.496 -4860.321 C -6215.04 -4860.056 -6214.295 -4860.056 -6213.844 -4860.316 L -6203.932 -4866.039 C -6203.474 -4866.304 -6203.48 -4866.731 -6203.936 -4866.995 C -6204.383 -4867.256 -6205.119 -4867.26 -6205.578 -4866.995 L -6215.491 -4861.272 Z " fill="rgb(214,218,225)"/><path d=" M -6218.564 -4856.575 C -6219.023 -4856.311 -6219.034 -4855.883 -6218.578 -4855.619 C -6218.122 -4855.353 -6217.386 -4855.359 -6216.927 -4855.623 L -6201.418 -4864.579 C -6200.959 -4864.843 -6200.956 -4865.264 -6201.412 -4865.529 C -6201.868 -4865.795 -6202.596 -4865.795 -6203.054 -4865.529 L -6218.564 -4856.575" fill="rgb(214,218,225)"/><path d=" M -6208.811 -4827.556 C -6207.538 -4826.82 -6207.534 -4825.632 -6208.795 -4824.899 L -6246.144 -4803.212 C -6247.41 -4802.479 -6249.459 -4802.479 -6250.732 -4803.212 L -6276.802 -4818.264 C -6278.072 -4818.997 -6278.082 -4820.187 -6276.816 -4820.921 L -6239.467 -4842.607 C -6238.206 -4843.34 -6236.151 -4843.34 -6234.88 -4842.607 L -6208.811 -4827.556" fill="rgb(246,251,254)"/><g><clipPath id="_clipPath_XPOoGbOdvFiE9SU4y47auppB2pCoLsrs"><path d=" M -6207.86 -4826.123 L -6207.872 -4826.021 L -6207.892 -4825.937 L -6207.92 -4825.841 L -6207.954 -4825.761 L -6208 -4825.661 L -6208.044 -4825.591 L -6208.12 -4825.476 L -6208.172 -4825.411 L -6208.311 -4825.263 L -6208.364 -4825.209 L -6208.464 -4825.128 L -6208.555 -4825.056 L -6208.671 -4824.979 L -6208.795 -4824.899 L -6246.144 -4803.212 C -6246.286 -4803.131 -6246.44 -4803.061 -6246.598 -4802.997 L -6246.724 -4802.949 L -6247.03 -4802.857 L -6247.354 -4802.775 C -6247.483 -4802.749 -6247.614 -4802.724 -6247.747 -4802.708 L -6247.843 -4802.695 C -6248.024 -4802.675 -6248.207 -4802.665 -6248.388 -4802.664 L -6248.475 -4802.664 C -6248.656 -4802.665 -6248.835 -4802.675 -6249.014 -4802.695 L -6249.094 -4802.704 C -6249.271 -4802.724 -6249.444 -4802.755 -6249.614 -4802.792 L -6249.708 -4802.816 C -6249.863 -4802.853 -6250.012 -4802.9 -6250.159 -4802.952 L -6250.236 -4802.98 C -6250.411 -4803.045 -6250.578 -4803.124 -6250.732 -4803.212 L -6276.802 -4818.264 C -6277.282 -4818.54 -6277.582 -4818.883 -6277.7 -4819.241 C -6277.74 -4819.36 -6277.76 -4819.481 -6277.76 -4819.601 L -6277.77 -4818.105 L -6277.754 -4817.925 C -6277.686 -4817.503 -6277.371 -4817.092 -6276.811 -4816.768 L -6250.742 -4801.716 C -6250.595 -4801.632 -6250.438 -4801.557 -6250.272 -4801.492 L -6250.246 -4801.483 L -6250.167 -4801.456 L -6249.878 -4801.359 L -6249.718 -4801.319 L -6249.623 -4801.296 L -6249.539 -4801.275 L -6249.219 -4801.219 L -6249.103 -4801.207 L -6249.023 -4801.199 L -6248.903 -4801.185 L -6248.584 -4801.167 L -6248.484 -4801.168 L -6248.398 -4801.168 L -6248.254 -4801.169 C -6248.132 -4801.173 -6248.012 -4801.181 -6247.894 -4801.193 L -6247.852 -4801.199 L -6247.756 -4801.212 L -6247.482 -4801.251 L -6247.363 -4801.28 L -6247.038 -4801.361 L -6246.867 -4801.403 L -6246.734 -4801.453 L -6246.607 -4801.501 C -6246.447 -4801.565 -6246.295 -4801.635 -6246.154 -4801.716 L -6208.804 -4823.403 L -6208.764 -4823.427 L -6208.68 -4823.483 L -6208.564 -4823.56 L -6208.474 -4823.632 L -6208.374 -4823.713 L -6208.354 -4823.731 L -6208.32 -4823.767 L -6208.182 -4823.915 L -6208.152 -4823.947 L -6208.13 -4823.98 L -6208.052 -4824.093 L -6208.022 -4824.141 L -6208.01 -4824.165 L -6207.963 -4824.265 L -6207.935 -4824.325 L -6207.93 -4824.345 L -6207.902 -4824.441 L -6207.883 -4824.508 L -6207.882 -4824.525 L -6207.87 -4824.628 L -6207.862 -4824.695 L -6207.86 -4824.723 L -6207.852 -4826.217 L -6207.86 -4826.123 Z " fill="rgb(255,255,255)"/></clipPath><g clip-path="url(#_clipPath_XPOoGbOdvFiE9SU4y47auppB2pCoLsrs)"><g><linearGradient id="_lgradient_3" x1="0.3457416377436191" y1="4.149989354907387" x2="0.47097696327090866" y2="3.1862168998175666" gradientTransform="matrix(69.917,0,0,-25.051,-6277.77,-4801.167)" gradientUnits="userSpaceOnUse"><stop offset="0%" stop-opacity="1" style="stop-color:rgb(205,234,250)"/><stop offset="100%" stop-opacity="1" style="stop-color:rgb(145,149,211)"/></linearGradient><path d=" M -6207.86 -4826.123 L -6207.872 -4826.021 L -6207.892 -4825.937 L -6207.92 -4825.841 L -6207.954 -4825.761 L -6208 -4825.661 L -6208.044 -4825.591 L -6208.12 -4825.476 L -6208.172 -4825.411 L -6208.311 -4825.263 L -6208.364 -4825.209 L -6208.464 -4825.128 L -6208.555 -4825.056 L -6208.671 -4824.979 L -6208.795 -4824.899 L -6246.144 -4803.212 C -6246.286 -4803.131 -6246.44 -4803.061 -6246.598 -4802.997 L -6246.724 -4802.949 L -6247.03 -4802.857 L -6247.354 -4802.775 C -6247.483 -4802.749 -6247.614 -4802.724 -6247.747 -4802.708 L -6247.843 -4802.695 C -6248.024 -4802.675 -6248.207 -4802.665 -6248.388 -4802.664 L -6248.475 -4802.664 C -6248.656 -4802.665 -6248.835 -4802.675 -6249.014 -4802.695 L -6249.094 -4802.704 C -6249.271 -4802.724 -6249.444 -4802.755 -6249.614 -4802.792 L -6249.708 -4802.816 C -6249.863 -4802.853 -6250.012 -4802.9 -6250.159 -4802.952 L -6250.236 -4802.98 C -6250.411 -4803.045 -6250.578 -4803.124 -6250.732 -4803.212 L -6276.802 -4818.264 C -6277.282 -4818.54 -6277.582 -4818.883 -6277.7 -4819.241 C -6277.74 -4819.36 -6277.76 -4819.481 -6277.76 -4819.601 L -6277.77 -4818.105 L -6277.754 -4817.925 C -6277.686 -4817.503 -6277.371 -4817.092 -6276.811 -4816.768 L -6250.742 -4801.716 C -6250.595 -4801.632 -6250.438 -4801.557 -6250.272 -4801.492 L -6250.246 -4801.483 L -6250.167 -4801.456 L -6249.878 -4801.359 L -6249.718 -4801.319 L -6249.623 -4801.296 L -6249.539 -4801.275 L -6249.219 -4801.219 L -6249.103 -4801.207 L -6249.023 -4801.199 L -6248.903 -4801.185 L -6248.584 -4801.167 L -6248.484 -4801.168 L -6248.398 -4801.168 L -6248.254 -4801.169 C -6248.132 -4801.173 -6248.012 -4801.181 -6247.894 -4801.193 L -6247.852 -4801.199 L -6247.756 -4801.212 L -6247.482 -4801.251 L -6247.363 -4801.28 L -6247.038 -4801.361 L -6246.867 -4801.403 L -6246.734 -4801.453 L -6246.607 -4801.501 C -6246.447 -4801.565 -6246.295 -4801.635 -6246.154 -4801.716 L -6208.804 -4823.403 L -6208.764 -4823.427 L -6208.68 -4823.483 L -6208.564 -4823.56 L -6208.474 -4823.632 L -6208.374 -4823.713 L -6208.354 -4823.731 L -6208.32 -4823.767 L -6208.182 -4823.915 L -6208.152 -4823.947 L -6208.13 -4823.98 L -6208.052 -4824.093 L -6208.022 -4824.141 L -6208.01 -4824.165 L -6207.963 -4824.265 L -6207.935 -4824.325 L -6207.93 -4824.345 L -6207.902 -4824.441 L -6207.883 -4824.508 L -6207.882 -4824.525 L -6207.87 -4824.628 L -6207.862 -4824.695 L -6207.86 -4824.723 L -6207.852 -4826.217 L -6207.86 -4826.123" fill="url(#_lgradient_3)"/></g></g></g><g><clipPath id="_clipPath_gfcRFz8CroztWuUQh2oXf6WgwZZxPpK4"><path d=" M -6212.662 -4827.083 C -6212.254 -4826.848 -6212.251 -4826.465 -6212.659 -4826.228 L -6248.108 -4805.627 C -6248.515 -4805.391 -6249.176 -4805.391 -6249.583 -4805.625 L -6273.067 -4819.184 C -6273.476 -4819.42 -6273.478 -4819.804 -6273.072 -4820.039 L -6237.622 -4840.641 C -6237.215 -4840.876 -6236.552 -4840.876 -6236.144 -4840.641 L -6212.662 -4827.083 Z " fill="rgb(255,255,255)"/></clipPath><g clip-path="url(#_clipPath_gfcRFz8CroztWuUQh2oXf6WgwZZxPpK4)"><g><linearGradient id="_lgradient_4" x1="0.23445822846118247" y1="-0.526207885495503" x2="0.6438593330268407" y2="0.3908558328414712" gradientTransform="matrix(61.021,0,0,-35.368,-6273.375,-4805.449)" gradientUnits="userSpaceOnUse"><stop offset="0%" stop-opacity="1" style="stop-color:rgb(115,209,234)"/><stop offset="100%" stop-opacity="1" style="stop-color:rgb(237,241,240)"/></linearGradient><path d=" M -6212.662 -4827.083 C -6212.254 -4826.848 -6212.251 -4826.465 -6212.659 -4826.228 L -6248.108 -4805.627 C -6248.515 -4805.391 -6249.176 -4805.391 -6249.583 -4805.625 L -6273.067 -4819.184 C -6273.476 -4819.42 -6273.478 -4819.804 -6273.072 -4820.039 L -6237.622 -4840.641 C -6237.215 -4840.876 -6236.552 -4840.876 -6236.144 -4840.641 L -6212.662 -4827.083 Z " fill="url(#_lgradient_4)"/></g></g></g><path d=" M -6386.644 -4950.565 L -6334.32 -4920.156 L -6297.514 -4941.407 L -6349.838 -4971.815 L -6386.644 -4950.565 Z " fill="rgb(255,255,255)"/><path d=" M -6342.172 -4958.132 L -6350.406 -4953.348 L -6360.831 -4956.42 C -6357.92 -4959.748 -6350.894 -4961.072 -6345.136 -4959.376 C -6343.984 -4959.037 -6343.088 -4958.66 -6342.172 -4958.132 Z " fill="rgb(163,134,202)"/><path d=" M -6340.286 -4957.511 C -6334.752 -4954.316 -6334.724 -4949.136 -6340.222 -4945.941 C -6345.719 -4942.747 -6354.66 -4942.747 -6360.192 -4945.941 C -6364.619 -4948.497 -6365.659 -4952.219 -6362.843 -4955.439 L -6350.24 -4951.725 L -6340.286 -4957.511 Z " fill="rgb(96,204,245)"/><path d=" M -6347.855 -4934.773 C -6348.314 -4934.508 -6348.316 -4934.087 -6347.86 -4933.821 C -6347.406 -4933.557 -6346.676 -4933.557 -6346.219 -4933.821 L -6322.86 -4947.308 C -6322.402 -4947.572 -6322.399 -4947.993 -6322.855 -4948.259 C -6323.311 -4948.524 -6324.039 -4948.524 -6324.498 -4948.259 L -6347.855 -4934.773" fill="rgb(181,205,237)"/><path d=" M -6331.718 -4940.972 C -6332.167 -4940.712 -6332.17 -4940.28 -6331.723 -4940.02 C -6331.267 -4939.756 -6330.523 -4939.756 -6330.072 -4940.015 L -6320.16 -4945.737 C -6319.7 -4946.003 -6319.707 -4946.429 -6320.163 -4946.695 C -6320.61 -4946.955 -6321.347 -4946.959 -6321.806 -4946.695 L -6331.718 -4940.972" fill="rgb(214,218,225)"/><path d=" M -6334.792 -4936.273 C -6335.25 -4936.009 -6335.262 -4935.583 -6334.806 -4935.317 C -6334.35 -4935.052 -6333.614 -4935.057 -6333.155 -4935.321 L -6317.644 -4944.277 C -6317.187 -4944.541 -6317.184 -4944.963 -6317.639 -4945.228 C -6318.095 -4945.493 -6318.823 -4945.493 -6319.282 -4945.228 L -6334.792 -4936.273" fill="rgb(96,204,245)"/><path d=" M -6302.495 -4856.837 L -6302.503 -4853.695 L -6309.752 -4849.481 L -6309.744 -4852.624 L -6302.495 -4856.837 Z " fill="rgb(80,59,157)"/><path d=" M -6309.744 -4852.624 L -6309.752 -4849.481 L -6371.398 -4885.071 L -6371.388 -4888.213 L -6309.744 -4852.624 Z " fill="rgb(63,44,140)"/><path d=" M -6302.495 -4856.837 L -6309.744 -4852.624 L -6371.388 -4888.213 L -6364.138 -4892.427 L -6302.495 -4856.837" fill="rgb(109,102,185)"/><path d=" M -6329.892 -4856.232 L -6329.902 -4853.089 L -6337.147 -4848.877 L -6337.138 -4852.021 L -6329.892 -4856.232 Z " fill="rgb(82,123,199)"/><path d=" M -6337.138 -4852.021 L -6337.147 -4848.877 L -6385.57 -4876.835 L -6385.56 -4879.979 L -6337.138 -4852.021 Z " fill="rgb(71,79,170)"/><path d=" M -6329.892 -4856.232 L -6337.138 -4852.021 L -6385.56 -4879.979 L -6378.315 -4884.189 L -6329.892 -4856.232 Z " fill="rgb(115,171,225)"/><path d=" M -6370.334 -4863.156 L -6370.343 -4860.013 L -6377.588 -4855.804 L -6377.579 -4858.947 L -6370.334 -4863.156 Z " fill="rgb(237,22,105)"/><path d=" M -6377.579 -4858.947 L -6377.588 -4855.804 L -6399.747 -4868.596 L -6399.738 -4871.74 L -6377.579 -4858.947 Z " fill="rgb(238,32,142)"/><path d=" M -6370.334 -4863.156 L -6377.579 -4858.947 L -6399.738 -4871.74 L -6392.492 -4875.949 L -6370.334 -4863.156 Z " fill="rgb(238,31,154)"/><path d=" M -6419.239 -4880.52 C -6419.962 -4880.101 -6419.966 -4879.437 -6419.247 -4879.02 C -6418.53 -4878.603 -6417.382 -4878.603 -6416.659 -4879.02 L -6379.842 -4900.276 C -6379.118 -4900.695 -6379.114 -4901.359 -6379.832 -4901.776 C -6380.551 -4902.195 -6381.698 -4902.195 -6382.422 -4901.776 L -6419.239 -4880.52 Z " fill="rgb(181,205,237)"/><path d=" M -6393.803 -4890.289 C -6394.512 -4889.88 -6394.516 -4889.2 -6393.811 -4888.791 C -6393.092 -4888.372 -6391.918 -4888.372 -6391.208 -4888.783 L -6375.584 -4897.804 C -6374.862 -4898.22 -6374.871 -4898.893 -6375.59 -4899.311 C -6376.295 -4899.72 -6377.455 -4899.728 -6378.179 -4899.311 L -6393.803 -4890.289" fill="rgb(181,205,237)"/><path d=" M -6398.648 -4882.884 C -6399.371 -4882.468 -6399.388 -4881.795 -6398.67 -4881.377 C -6397.951 -4880.96 -6396.791 -4880.968 -6396.068 -4881.385 L -6371.62 -4895.5 C -6370.898 -4895.917 -6370.894 -4896.583 -6371.612 -4896.999 C -6372.331 -4897.417 -6373.478 -4897.417 -6374.202 -4896.999 L -6398.648 -4882.884" fill="rgb(181,205,237)"/><path d=" M -6400.858 -4916.939 L -6406.708 -4913.539 C -6412.019 -4916.437 -6420.363 -4916.388 -6425.531 -4913.385 L -6425.84 -4913.195 L -6431.731 -4916.596 L -6431.416 -4916.784 C -6423.02 -4921.664 -6409.419 -4921.715 -6400.858 -4916.939" fill="rgb(144,207,242)"/><path d=" M -6399.955 -4916.407 C -6393.004 -4912.055 -6392.286 -4905.571 -6397.818 -4900.799 L -6403.888 -4904.304 C -6401.454 -4907.093 -6402.096 -4910.556 -6405.814 -4913.003 L -6399.955 -4916.407 Z " fill="rgb(144,207,242)"/><path d=" M -6398.576 -4900.185 C -6399.154 -4899.747 -6399.787 -4899.323 -6400.479 -4898.923 C -6408.755 -4894.112 -6422.083 -4893.992 -6430.664 -4898.561 L -6424.807 -4901.965 C -6419.486 -4899.271 -6411.41 -4899.388 -6406.364 -4902.319 C -6405.664 -4902.727 -6405.062 -4903.168 -6404.55 -4903.635 L -6398.576 -4900.185" fill="rgb(103,165,222)"/><path d=" M -6426.674 -4912.627 C -6430.671 -4909.616 -6430.354 -4905.301 -6425.735 -4902.481 L -6431.586 -4899.081 C -6439.452 -4903.783 -6439.798 -4911.137 -6432.592 -4916.044 L -6426.674 -4912.627" fill="rgb(103,165,222)"/><path d=" M -6284.951 -5074.067 C -6282.263 -5072.516 -6280.083 -5068.74 -6280.092 -5065.651 L -6280.144 -5018.596 C -6280.154 -5015.508 -6282.348 -5014.257 -6285.035 -5015.809 L -6298.158 -5023.385 L -6298.796 -5022.496 L -6301.356 -5018.892 L -6303.896 -5025.44 L -6304.527 -5027.063 L -6317.648 -5034.639 C -6320.336 -5036.191 -6322.508 -5039.961 -6322.499 -5043.049 L -6322.447 -5090.104 C -6322.438 -5093.193 -6320.252 -5094.448 -6317.564 -5092.896 L -6284.951 -5074.067" fill="rgb(115,171,225)"/><path d=" M -6307.7 -5073.563 L -6307.704 -5072.237 C -6307.707 -5071.457 -6308.552 -5070.972 -6309.227 -5071.364 L -6315.472 -5074.987 C -6315.787 -5075.169 -6315.979 -5075.505 -6315.978 -5075.867 L -6315.974 -5077.191 C -6315.972 -5077.972 -6315.127 -5078.457 -6314.451 -5078.065 L -6308.206 -5074.441 C -6307.892 -5074.26 -6307.699 -5073.925 -6307.7 -5073.563" fill="rgb(255,255,255)"/><path d=" M -6287.943 -5055.573 L -6287.947 -5054.247 C -6287.948 -5053.467 -6288.794 -5052.981 -6289.468 -5053.371 L -6315.49 -5068.395 C -6315.804 -5068.576 -6315.998 -5068.913 -6315.998 -5069.276 L -6315.994 -5070.603 C -6315.991 -5071.383 -6315.147 -5071.868 -6314.471 -5071.479 L -6288.45 -5056.455 C -6288.136 -5056.273 -6287.942 -5055.937 -6287.943 -5055.573" fill="rgb(181,205,237)"/><path d=" M -6309.278 -5056.093 L -6309.282 -5054.575 L -6312.806 -5042.543 L -6314.315 -5043.415 L -6310.806 -5055.421 L -6315.407 -5058.077 L -6315.403 -5059.628 L -6309.278 -5056.093" fill="rgb(255,255,255)"/><path d=" M -6302.122 -5051.961 L -6302.127 -5050.411 L -6306.104 -5052.705 L -6306.335 -5048.045 C -6305.896 -5048.645 -6305.228 -5048.693 -6304.314 -5048.165 C -6302.572 -5047.159 -6301.807 -5045.247 -6301.812 -5043.029 L -6301.822 -5039.993 C -6301.828 -5037.608 -6302.82 -5036.627 -6304.88 -5037.817 C -6306.956 -5039.016 -6307.924 -5041.128 -6307.918 -5043.513 L -6307.915 -5044.547 L -6306.492 -5043.727 L -6306.496 -5042.575 C -6306.499 -5041.175 -6306.008 -5040.039 -6304.92 -5039.411 C -6303.846 -5038.789 -6303.335 -5039.347 -6303.331 -5040.748 L -6303.323 -5043.767 C -6303.319 -5045.168 -6303.824 -5046.312 -6304.899 -5046.932 C -6305.726 -5047.409 -6306.294 -5047.203 -6306.427 -5046.144 L -6306.428 -5045.793 L -6307.851 -5046.616 L -6307.448 -5055.037 L -6302.122 -5051.961" fill="rgb(255,255,255)"/><path d=" M -6290.896 -5032.249 L -6290.882 -5037.303 C -6290.88 -5038.153 -6291.168 -5038.871 -6291.836 -5039.257 C -6292.518 -5039.651 -6292.81 -5039.268 -6292.812 -5038.417 L -6292.827 -5033.364 C -6292.83 -5032.529 -6292.54 -5031.779 -6291.859 -5031.384 C -6291.191 -5030.999 -6290.899 -5031.416 -6290.896 -5032.249 M -6291.832 -5040.275 C -6290.498 -5039.503 -6289.906 -5038.159 -6289.91 -5036.675 L -6289.923 -5031.788 C -6289.928 -5030.269 -6290.526 -5029.613 -6291.86 -5030.384 C -6293.182 -5031.147 -6293.803 -5032.508 -6293.799 -5034.025 L -6293.784 -5038.912 C -6293.78 -5040.396 -6293.154 -5041.037 -6291.832 -5040.275" fill="rgb(255,255,255)"/><path d=" M -6297.527 -5041.875 L -6297.514 -5046.945 C -6297.511 -5047.779 -6297.799 -5048.531 -6298.482 -5048.924 C -6299.179 -5049.325 -6299.442 -5048.893 -6299.443 -5048.06 L -6299.458 -5042.989 C -6299.46 -5042.139 -6299.2 -5041.437 -6298.504 -5041.035 C -6297.822 -5040.641 -6297.53 -5041.024 -6297.527 -5041.875 M -6296.555 -5041.397 C -6296.559 -5039.896 -6297.186 -5039.255 -6298.507 -5040.017 C -6299.814 -5040.772 -6300.435 -5042.133 -6300.43 -5043.633 L -6300.416 -5048.555 C -6300.412 -5050.039 -6299.784 -5050.696 -6298.479 -5049.941 C -6297.158 -5049.179 -6296.536 -5047.801 -6296.54 -5046.316 L -6296.555 -5041.397 Z " fill="rgb(255,255,255)"/><path d=" M -6292.978 -5046.681 L -6292.079 -5046.163 L -6297.448 -5033.677 L -6298.363 -5034.204 L -6292.978 -5046.681" fill="rgb(255,255,255)"/><path d=" M -6225.471 -4976.5 C -6209.906 -4967.513 -6209.806 -4952.94 -6225.271 -4943.953 C -6240.734 -4934.967 -6265.911 -4934.967 -6281.476 -4943.953 C -6297.042 -4952.94 -6297.106 -4967.513 -6281.642 -4976.5 C -6266.178 -4985.487 -6241.036 -4985.487 -6225.471 -4976.5 Z " fill="rgb(181,205,237)"/><path d=" M -6225.106 -4986.127 L -6225.12 -4980.405 L -6235.014 -4974.656 L -6234.998 -4980.379 L -6225.106 -4986.127" fill="rgb(204,16,107)"/><path d=" M -6264.894 -4976.344 L -6264.692 -4976.427 C -6264.139 -4976.637 -6263.571 -4976.827 -6262.996 -4977.008 C -6262.598 -4977.133 -6262.19 -4977.244 -6261.782 -4977.355 C -6261.471 -4977.439 -6261.164 -4977.529 -6260.85 -4977.605 C -6260.42 -4977.709 -6259.983 -4977.796 -6259.547 -4977.884 C -6259.227 -4977.949 -6258.912 -4978.021 -6258.59 -4978.079 C -6258.458 -4978.101 -6258.324 -4978.12 -6258.192 -4978.141 C -6257.65 -4978.231 -6257.103 -4978.308 -6256.552 -4978.373 C -6256.394 -4978.393 -6256.235 -4978.413 -6256.076 -4978.431 C -6255.439 -4978.499 -6254.799 -4978.553 -6254.156 -4978.591 L -6253.8 -4978.609 C -6253.37 -4978.631 -6252.936 -4978.637 -6252.503 -4978.645 C -6252.071 -4978.652 -6251.64 -4978.656 -6251.208 -4978.651 C -6250.847 -4978.647 -6250.487 -4978.635 -6250.126 -4978.621 C -6249.724 -4978.605 -6249.327 -4978.584 -6248.928 -4978.557 C -6248.562 -4978.532 -6248.199 -4978.501 -6247.835 -4978.465 C -6247.442 -4978.427 -6247.048 -4978.384 -6246.656 -4978.333 C -6246.302 -4978.288 -6245.948 -4978.239 -6245.599 -4978.184 C -6245.178 -4978.119 -6244.762 -4978.045 -6244.346 -4977.967 C -6243.911 -4977.884 -6243.475 -4977.801 -6243.047 -4977.704 L -6242.739 -4977.633 C -6242.136 -4977.491 -6241.544 -4977.329 -6240.959 -4977.156 C -6240.791 -4977.107 -6240.626 -4977.053 -6240.46 -4977.001 C -6239.975 -4976.848 -6239.496 -4976.685 -6239.024 -4976.511 C -6238.887 -4976.46 -6238.748 -4976.413 -6238.612 -4976.36 C -6238.184 -4976.195 -6237.774 -4976.011 -6237.36 -4975.828 C -6237.158 -4975.737 -6236.946 -4975.656 -6236.747 -4975.561 C -6236.152 -4975.279 -6235.571 -4974.979 -6235.014 -4974.656 L -6234.998 -4981.329 C -6235.555 -4981.652 -6236.135 -4981.952 -6236.731 -4982.235 C -6236.93 -4982.329 -6237.138 -4982.411 -6237.339 -4982.5 C -6237.694 -4982.657 -6238.042 -4982.82 -6238.407 -4982.964 L -6238.598 -4983.035 C -6238.732 -4983.087 -6238.871 -4983.133 -6239.007 -4983.184 C -6239.479 -4983.359 -6239.958 -4983.521 -6240.444 -4983.675 C -6240.61 -4983.727 -6240.775 -4983.78 -6240.942 -4983.829 L -6241.276 -4983.933 C -6241.752 -4984.068 -6242.235 -4984.192 -6242.722 -4984.308 L -6243.031 -4984.377 C -6243.268 -4984.431 -6243.502 -4984.488 -6243.742 -4984.537 C -6243.935 -4984.577 -6244.135 -4984.603 -6244.331 -4984.64 C -6244.746 -4984.719 -6245.162 -4984.792 -6245.583 -4984.857 C -6245.751 -4984.884 -6245.915 -4984.921 -6246.084 -4984.945 C -6246.268 -4984.971 -6246.455 -4984.984 -6246.639 -4985.007 C -6247.032 -4985.057 -6247.424 -4985.1 -6247.82 -4985.139 C -6248.007 -4985.157 -6248.194 -4985.187 -6248.383 -4985.203 C -6248.558 -4985.216 -6248.735 -4985.217 -6248.911 -4985.231 C -6249.31 -4985.257 -6249.71 -4985.279 -6250.108 -4985.293 C -6250.31 -4985.303 -6250.51 -4985.321 -6250.711 -4985.327 C -6250.871 -4985.331 -6251.031 -4985.321 -6251.191 -4985.324 C -6251.624 -4985.329 -6252.055 -4985.327 -6252.488 -4985.317 C -6252.702 -4985.315 -6252.916 -4985.323 -6253.131 -4985.316 C -6253.348 -4985.308 -6253.566 -4985.293 -6253.783 -4985.283 L -6254.14 -4985.264 C -6254.679 -4985.232 -6255.218 -4985.193 -6255.752 -4985.14 L -6256.059 -4985.104 C -6256.219 -4985.087 -6256.378 -4985.065 -6256.538 -4985.047 C -6257.087 -4984.981 -6257.632 -4984.904 -6258.174 -4984.816 C -6258.307 -4984.793 -6258.442 -4984.775 -6258.575 -4984.752 L -6258.767 -4984.72 C -6259.024 -4984.675 -6259.272 -4984.609 -6259.527 -4984.559 C -6259.966 -4984.469 -6260.404 -4984.383 -6260.834 -4984.279 C -6261.148 -4984.203 -6261.452 -4984.113 -6261.762 -4984.029 C -6262.171 -4983.917 -6262.58 -4983.807 -6262.98 -4983.681 L -6263.24 -4983.607 C -6263.727 -4983.449 -6264.206 -4983.279 -6264.676 -4983.1 L -6264.879 -4983.017 C -6265.394 -4982.816 -6265.898 -4982.599 -6266.39 -4982.371 C -6266.536 -4982.304 -6266.682 -4982.236 -6266.824 -4982.167 C -6267.371 -4981.903 -6267.907 -4981.627 -6268.419 -4981.329 L -6268.707 -4981.159 L -6268.967 -4980.996 C -6269.111 -4980.905 -6269.255 -4980.816 -6269.395 -4980.724 C -6269.524 -4980.64 -6269.647 -4980.555 -6269.772 -4980.469 C -6269.907 -4980.376 -6270.042 -4980.283 -6270.172 -4980.187 L -6270.523 -4979.925 C -6270.648 -4979.828 -6270.772 -4979.732 -6270.894 -4979.635 L -6271.219 -4979.364 L -6271.559 -4979.065 L -6271.699 -4978.944 L -6271.818 -4978.827 C -6272.003 -4978.651 -6272.182 -4978.473 -6272.352 -4978.293 L -6272.526 -4978.113 C -6272.743 -4977.877 -6272.948 -4977.64 -6273.139 -4977.399 L -6273.166 -4977.368 L -6273.288 -4977.2 C -6273.403 -4977.048 -6273.516 -4976.896 -6273.622 -4976.743 L -6273.787 -4976.488 C -6273.878 -4976.349 -6273.964 -4976.209 -6274.046 -4976.069 L -6274.116 -4975.956 L -6274.206 -4975.784 L -6274.388 -4975.428 L -6274.527 -4975.131 C -6274.58 -4975.011 -6274.631 -4974.892 -6274.679 -4974.772 L -6274.746 -4974.612 L -6274.794 -4974.467 L -6274.907 -4974.124 L -6274.998 -4973.813 L -6275.082 -4973.468 L -6275.128 -4973.281 L -6275.147 -4973.155 L -6275.203 -4972.801 L -6275.243 -4972.491 L -6275.268 -4972.133 L -6275.283 -4971.925 L -6275.286 -4970.767 L -6275.303 -4965.044 C -6275.302 -4965.183 -6275.292 -4965.321 -6275.284 -4965.46 L -6275.259 -4965.817 L -6275.219 -4966.128 L -6275.164 -4966.481 L -6275.099 -4966.795 L -6275.015 -4967.14 L -6274.923 -4967.452 L -6274.81 -4967.793 L -6274.694 -4968.099 L -6274.544 -4968.457 L -6274.404 -4968.756 L -6274.222 -4969.111 L -6274.062 -4969.397 C -6273.98 -4969.537 -6273.892 -4969.676 -6273.803 -4969.816 L -6273.638 -4970.068 C -6273.532 -4970.223 -6273.419 -4970.373 -6273.304 -4970.525 L -6273.155 -4970.725 C -6272.964 -4970.965 -6272.759 -4971.204 -6272.543 -4971.44 L -6272.37 -4971.62 C -6272.198 -4971.8 -6272.02 -4971.977 -6271.834 -4972.152 L -6271.576 -4972.393 L -6271.236 -4972.689 L -6270.91 -4972.961 C -6270.788 -4973.059 -6270.664 -4973.155 -6270.539 -4973.251 L -6270.188 -4973.513 C -6270.058 -4973.608 -6269.924 -4973.703 -6269.788 -4973.795 C -6269.664 -4973.88 -6269.54 -4973.967 -6269.411 -4974.051 C -6269.271 -4974.143 -6269.127 -4974.232 -6268.982 -4974.321 C -6268.802 -4974.435 -6268.623 -4974.547 -6268.435 -4974.656 C -6267.923 -4974.955 -6267.386 -4975.229 -6266.84 -4975.493 C -6266.698 -4975.564 -6266.552 -4975.631 -6266.408 -4975.697 C -6265.914 -4975.925 -6265.411 -4976.143 -6264.894 -4976.344" fill="rgb(204,16,107)"/><path d=" M -6268.31 -4961.019 L -6268.327 -4955.297 L -6278.219 -4949.548 L -6278.203 -4955.271 L -6268.31 -4961.019" fill="rgb(204,16,107)"/><path d=" M -6278.203 -4955.271 L -6278.219 -4949.548 C -6285.647 -4953.837 -6289.356 -4959.465 -6289.34 -4965.084 L -6289.324 -4970.805 C -6289.339 -4965.187 -6285.631 -4959.559 -6278.203 -4955.271" fill="rgb(204,16,107)"/><path d=" M -6225.106 -4986.127 L -6234.998 -4980.379 C -6244.256 -4985.724 -6259.22 -4985.724 -6268.419 -4980.377 C -6277.618 -4975.033 -6277.568 -4966.365 -6268.31 -4961.019 L -6278.203 -4955.271 C -6292.966 -4963.793 -6293.038 -4977.607 -6278.376 -4986.127 C -6263.715 -4994.648 -6239.867 -4994.649 -6225.106 -4986.127" fill="rgb(240,57,99)"/><path d=" M -6234.998 -4978.627 L -6235.014 -4974.656 C -6230.358 -4971.968 -6228.032 -4968.439 -6228.043 -4964.913 L -6228.026 -4970.635 C -6228.015 -4974.16 -6230.342 -4975.939 -6234.998 -4978.627" fill="rgb(71,114,193)"/><path d=" M -6225.23 -4953.356 L -6225.246 -4949.385 L -6235.204 -4955.135 L -6235.187 -4959.105 L -6225.23 -4953.356 Z " fill="rgb(71,114,193)"/><path d=" M -6214.016 -4969.932 C -6214.027 -4969.743 -6214.039 -4969.552 -6214.058 -4969.363 C -6214.074 -4969.199 -6214.098 -4969.033 -6214.119 -4968.869 C -6214.147 -4968.68 -6214.174 -4968.492 -6214.21 -4968.304 C -6214.239 -4968.137 -6214.275 -4967.972 -6214.312 -4967.807 C -6214.354 -4967.623 -6214.398 -4967.439 -6214.446 -4967.256 C -6214.492 -4967.091 -6214.542 -4966.924 -6214.592 -4966.759 C -6214.648 -4966.577 -6214.708 -4966.395 -6214.774 -4966.213 C -6214.831 -4966.051 -6214.892 -4965.889 -6214.956 -4965.727 C -6215.032 -4965.536 -6215.112 -4965.345 -6215.198 -4965.156 C -6215.268 -4964.997 -6215.342 -4964.839 -6215.419 -4964.68 C -6215.511 -4964.491 -6215.61 -4964.303 -6215.711 -4964.115 C -6215.794 -4963.963 -6215.878 -4963.811 -6215.966 -4963.659 C -6216.096 -4963.435 -6216.235 -4963.212 -6216.379 -4962.989 C -6216.466 -4962.856 -6216.55 -4962.72 -6216.64 -4962.587 C -6216.808 -4962.343 -6216.99 -4962.099 -6217.174 -4961.857 L -6217.41 -4961.541 C -6217.715 -4961.156 -6218.043 -4960.777 -6218.387 -4960.401 L -6218.664 -4960.113 C -6218.938 -4959.828 -6219.22 -4959.544 -6219.518 -4959.264 C -6219.652 -4959.137 -6219.788 -4959.009 -6219.928 -4958.883 C -6220.106 -4958.723 -6220.287 -4958.565 -6220.472 -4958.408 C -6220.643 -4958.263 -6220.815 -4958.119 -6220.991 -4957.976 C -6221.183 -4957.82 -6221.382 -4957.667 -6221.582 -4957.513 C -6221.766 -4957.373 -6221.95 -4957.232 -6222.142 -4957.093 C -6222.348 -4956.943 -6222.563 -4956.795 -6222.778 -4956.647 C -6222.976 -4956.509 -6223.174 -4956.373 -6223.379 -4956.24 C -6223.603 -4956.093 -6223.831 -4955.949 -6224.063 -4955.807 C -6224.351 -4955.627 -6224.635 -4955.448 -6224.936 -4955.273 L -6225.23 -4955.108 L -6225.246 -4949.385 L -6224.951 -4949.551 C -6224.796 -4949.641 -6224.644 -4949.732 -6224.492 -4949.823 C -6224.351 -4949.908 -6224.219 -4949.997 -6224.082 -4950.084 C -6223.85 -4950.228 -6223.618 -4950.372 -6223.394 -4950.519 C -6223.191 -4950.652 -6222.994 -4950.788 -6222.796 -4950.924 C -6222.58 -4951.072 -6222.366 -4951.221 -6222.158 -4951.372 C -6221.966 -4951.511 -6221.782 -4951.651 -6221.599 -4951.792 C -6221.398 -4951.945 -6221.2 -4952.099 -6221.007 -4952.255 C -6220.831 -4952.397 -6220.659 -4952.541 -6220.488 -4952.685 C -6220.304 -4952.844 -6220.122 -4953.001 -6219.944 -4953.161 L -6219.72 -4953.356 L -6219.534 -4953.543 C -6219.236 -4953.823 -6218.952 -4954.105 -6218.68 -4954.392 L -6218.403 -4954.679 C -6218.058 -4955.055 -6217.731 -4955.435 -6217.427 -4955.819 L -6217.386 -4955.868 L -6217.19 -4956.136 C -6217.006 -4956.377 -6216.826 -4956.62 -6216.658 -4956.865 C -6216.566 -4956.999 -6216.482 -4957.135 -6216.394 -4957.269 C -6216.251 -4957.491 -6216.111 -4957.712 -6215.982 -4957.936 L -6215.868 -4958.12 L -6215.727 -4958.393 C -6215.626 -4958.581 -6215.528 -4958.768 -6215.436 -4958.957 C -6215.359 -4959.116 -6215.284 -4959.276 -6215.214 -4959.435 C -6215.128 -4959.624 -6215.05 -4959.815 -6214.974 -4960.005 L -6214.866 -4960.26 L -6214.788 -4960.492 C -6214.724 -4960.673 -6214.664 -4960.855 -6214.608 -4961.037 C -6214.556 -4961.203 -6214.507 -4961.368 -6214.463 -4961.535 C -6214.414 -4961.717 -6214.371 -4961.9 -6214.33 -4962.084 L -6214.256 -4962.381 L -6214.224 -4962.583 C -6214.191 -4962.769 -6214.163 -4962.957 -6214.136 -4963.147 C -6214.112 -4963.312 -6214.091 -4963.476 -6214.074 -4963.641 C -6214.055 -4963.831 -6214.044 -4964.02 -6214.034 -4964.209 L -6214.01 -4964.543 L -6214.004 -4964.873 L -6213.988 -4970.595 C -6213.99 -4970.373 -6214.004 -4970.153 -6214.016 -4969.932" fill="rgb(71,114,193)"/><path d=" M -6225.106 -4984.376 C -6210.347 -4975.856 -6210.275 -4962.041 -6224.936 -4953.521 L -6225.23 -4953.356 L -6235.187 -4959.105 L -6234.892 -4959.271 C -6225.695 -4964.616 -6225.743 -4973.284 -6234.998 -4978.627 L -6225.106 -4984.376" fill="rgb(115,171,225)"/><path d=" M -6230.824 -4946.776 C -6230.411 -4946.933 -6230.004 -4947.097 -6229.603 -4947.267 C -6229.36 -4947.368 -6229.119 -4947.468 -6228.882 -4947.572 C -6228.454 -4947.76 -6228.035 -4947.956 -6227.619 -4948.156 C -6227.42 -4948.252 -6227.219 -4948.344 -6227.023 -4948.441 C -6226.419 -4948.744 -6225.824 -4949.057 -6225.246 -4949.385 L -6225.23 -4950.661 C -6225.807 -4950.333 -6226.402 -4950.02 -6227.006 -4949.717 C -6227.203 -4949.62 -6227.406 -4949.528 -6227.606 -4949.432 C -6228.02 -4949.232 -6228.439 -4949.036 -6228.866 -4948.848 C -6229.103 -4948.744 -6229.344 -4948.644 -6229.586 -4948.543 C -6229.99 -4948.375 -6230.395 -4948.209 -6230.807 -4948.052 C -6231.059 -4947.955 -6231.312 -4947.86 -6231.567 -4947.767 C -6231.99 -4947.613 -6232.416 -4947.467 -6232.846 -4947.324 C -6233.115 -4947.233 -6233.384 -4947.143 -6233.658 -4947.056 C -6233.864 -4946.992 -6234.071 -4946.931 -6234.279 -4946.868 C -6234.658 -4946.755 -6235.039 -4946.645 -6235.423 -4946.54 C -6235.636 -4946.481 -6235.85 -4946.423 -6236.064 -4946.367 C -6236.47 -4946.26 -6236.879 -4946.161 -6237.288 -4946.064 C -6237.479 -4946.019 -6237.666 -4945.972 -6237.856 -4945.928 C -6238.455 -4945.793 -6239.072 -4945.665 -6239.68 -4945.549 L -6239.68 -4944.273 C -6239.072 -4944.389 -6238.47 -4944.517 -6237.872 -4944.653 C -6237.682 -4944.696 -6237.496 -4944.743 -6237.307 -4944.788 C -6236.895 -4944.884 -6236.487 -4944.984 -6236.08 -4945.091 C -6235.866 -4945.147 -6235.652 -4945.205 -6235.439 -4945.264 C -6235.055 -4945.369 -6234.674 -4945.479 -6234.296 -4945.592 C -6234.088 -4945.653 -6233.88 -4945.716 -6233.672 -4945.781 L -6233.352 -4945.877 C -6233.186 -4945.931 -6233.027 -4945.993 -6232.862 -4946.048 C -6232.432 -4946.191 -6232.006 -4946.337 -6231.584 -4946.491 C -6231.33 -4946.584 -6231.075 -4946.679 -6230.824 -4946.776" fill="rgb(223,153,24)"/><path d=" M -6225.23 -4950.661 C -6229.446 -4948.263 -6234.395 -4946.561 -6239.664 -4945.549 L -6244.27 -4953.241 C -6240.958 -4953.863 -6237.84 -4954.921 -6235.187 -4956.411 L -6225.23 -4950.661" fill="rgb(250,183,39)"/><path d=" M -6241.288 -4946.379 C -6241.666 -4946.317 -6242.043 -4946.253 -6242.423 -4946.199 C -6242.864 -4946.135 -6243.31 -4946.083 -6243.755 -4946.028 C -6244.134 -4945.981 -6244.511 -4945.932 -6244.892 -4945.892 C -6245.598 -4945.819 -6246.303 -4945.757 -6247.012 -4945.707 L -6247.203 -4945.692 C -6247.988 -4945.639 -6248.775 -4945.604 -6249.563 -4945.58 C -6249.764 -4945.573 -6249.964 -4945.572 -6250.164 -4945.568 C -6250.746 -4945.556 -6251.328 -4945.551 -6251.91 -4945.553 C -6252.151 -4945.556 -6252.391 -4945.557 -6252.632 -4945.561 C -6253.275 -4945.572 -6253.918 -4945.592 -6254.559 -4945.621 C -6254.682 -4945.627 -6254.804 -4945.629 -6254.927 -4945.636 C -6255.684 -4945.675 -6256.44 -4945.729 -6257.192 -4945.795 C -6257.391 -4945.812 -6257.588 -4945.833 -6257.787 -4945.852 C -6258.371 -4945.909 -6258.952 -4945.973 -6259.531 -4946.045 C -6259.74 -4946.072 -6259.951 -4946.097 -6260.16 -4946.125 C -6260.911 -4946.227 -6261.658 -4946.339 -6262.399 -4946.467 L -6262.414 -4946.469 C -6263.15 -4946.596 -6263.878 -4946.743 -6264.602 -4946.897 C -6264.859 -4946.952 -6265.115 -4947.012 -6265.371 -4947.071 C -6265.867 -4947.183 -6266.36 -4947.301 -6266.85 -4947.427 C -6267.118 -4947.496 -6267.386 -4947.567 -6267.651 -4947.639 C -6268.074 -4947.755 -6268.492 -4947.879 -6268.91 -4948.005 C -6269.292 -4948.12 -6269.675 -4948.236 -6270.052 -4948.36 C -6270.438 -4948.485 -6270.819 -4948.619 -6271.198 -4948.752 C -6271.57 -4948.884 -6271.94 -4949.016 -6272.306 -4949.156 C -6272.862 -4949.369 -6273.414 -4949.587 -6273.954 -4949.817 L -6274.116 -4949.884 C -6274.748 -4950.159 -6275.366 -4950.449 -6275.974 -4950.749 C -6276.12 -4950.821 -6276.267 -4950.895 -6276.412 -4950.969 C -6277.022 -4951.279 -6277.622 -4951.596 -6278.203 -4951.931 L -6278.219 -4949.548 C -6277.638 -4949.212 -6277.038 -4948.896 -6276.428 -4948.587 C -6276.283 -4948.512 -6276.136 -4948.439 -6275.99 -4948.367 C -6275.382 -4948.065 -6274.764 -4947.776 -6274.132 -4947.501 L -6273.971 -4947.435 C -6273.572 -4947.264 -6273.17 -4947.095 -6272.762 -4946.935 C -6272.618 -4946.877 -6272.468 -4946.829 -6272.323 -4946.775 C -6271.956 -4946.633 -6271.584 -4946.501 -6271.211 -4946.369 C -6270.832 -4946.235 -6270.455 -4946.103 -6270.071 -4945.977 C -6269.692 -4945.853 -6269.308 -4945.736 -6268.923 -4945.621 C -6268.69 -4945.551 -6268.462 -4945.472 -6268.226 -4945.404 C -6268.043 -4945.352 -6267.854 -4945.308 -6267.668 -4945.257 C -6267.402 -4945.184 -6267.134 -4945.113 -6266.864 -4945.044 C -6266.376 -4944.919 -6265.884 -4944.8 -6265.388 -4944.688 C -6265.132 -4944.629 -6264.876 -4944.568 -6264.618 -4944.513 L -6264.282 -4944.437 C -6263.668 -4944.312 -6263.052 -4944.195 -6262.431 -4944.087 L -6262.408 -4944.083 C -6261.796 -4943.976 -6261.182 -4943.879 -6260.563 -4943.792 C -6260.435 -4943.773 -6260.304 -4943.76 -6260.176 -4943.743 C -6259.967 -4943.715 -6259.756 -4943.689 -6259.547 -4943.663 C -6258.968 -4943.591 -6258.387 -4943.527 -6257.803 -4943.471 C -6257.606 -4943.451 -6257.408 -4943.429 -6257.208 -4943.412 L -6256.903 -4943.383 C -6256.251 -4943.329 -6255.599 -4943.287 -6254.944 -4943.253 C -6254.82 -4943.247 -6254.695 -4943.244 -6254.571 -4943.237 C -6254.114 -4943.217 -6253.656 -4943.196 -6253.196 -4943.184 C -6253.014 -4943.179 -6252.831 -4943.181 -6252.65 -4943.179 C -6252.407 -4943.175 -6252.166 -4943.173 -6251.926 -4943.171 C -6251.343 -4943.168 -6250.763 -4943.173 -6250.18 -4943.185 C -6249.98 -4943.189 -6249.779 -4943.191 -6249.579 -4943.197 L -6249.336 -4943.201 C -6248.63 -4943.225 -6247.924 -4943.261 -6247.219 -4943.309 L -6247.028 -4943.324 C -6246.404 -4943.368 -6245.78 -4943.417 -6245.162 -4943.48 L -6244.91 -4943.509 C -6244.528 -4943.549 -6244.15 -4943.599 -6243.771 -4943.645 C -6243.326 -4943.7 -6242.88 -4943.752 -6242.439 -4943.816 C -6242.058 -4943.871 -6241.682 -4943.935 -6241.304 -4943.996 C -6240.979 -4944.049 -6240.651 -4944.093 -6240.328 -4944.152 C -6240.111 -4944.192 -6239.895 -4944.232 -6239.68 -4944.273 L -6239.664 -4946.656 C -6240.202 -4946.553 -6240.746 -4946.468 -6241.288 -4946.379" fill="rgb(109,102,185)"/><path d=" M -6244.27 -4954.355 L -6239.664 -4946.663 C -6252.743 -4944.149 -6267.752 -4945.904 -6278.203 -4951.937 L -6268.31 -4957.687 C -6261.79 -4953.923 -6252.439 -4952.815 -6244.27 -4954.355 Z " fill="rgb(163,134,202)"/><g><clipPath id="_clipPath_IXqUymD5yOlyUKskP2VU3DqfCgbPNK2X"><path d=" M -6222.98 -5174.584 L -6223.279 -5174.752 C -6223.408 -5174.821 -6223.538 -5174.889 -6223.666 -5174.952 C -6223.794 -5175.015 -6223.922 -5175.075 -6224.048 -5175.132 C -6224.174 -5175.188 -6224.3 -5175.241 -6224.426 -5175.292 C -6224.552 -5175.343 -6224.679 -5175.391 -6224.806 -5175.436 L -6224.879 -5175.459 L -6224.906 -5175.468 L -6225.183 -5175.559 C -6225.314 -5175.597 -6225.443 -5175.633 -6225.571 -5175.665 C -6225.702 -5175.699 -6225.831 -5175.727 -6225.958 -5175.752 C -6226.098 -5175.779 -6226.234 -5175.801 -6226.371 -5175.819 L -6226.647 -5175.848 L -6226.688 -5175.852 L -6226.788 -5175.863 C -6226.939 -5175.873 -6227.086 -5175.879 -6227.231 -5175.877 C -6227.396 -5175.876 -6227.559 -5175.869 -6227.719 -5175.853 C -6227.904 -5175.837 -6228.086 -5175.811 -6228.262 -5175.775 L -6228.275 -5175.772 L -6228.291 -5175.767 C -6228.507 -5175.723 -6228.718 -5175.665 -6228.92 -5175.595 C -6229.186 -5175.5 -6229.44 -5175.383 -6229.68 -5175.241 L -6235.926 -5171.613 C -6235.5 -5171.86 -6235.035 -5172.035 -6234.536 -5172.139 L -6234.518 -5172.144 C -6234.022 -5172.244 -6233.491 -5172.272 -6232.932 -5172.224 L -6232.888 -5172.22 C -6232.334 -5172.168 -6231.752 -5172.044 -6231.15 -5171.84 L -6231.122 -5171.831 C -6230.508 -5171.621 -6229.874 -5171.331 -6229.223 -5170.956 L -6054.824 -5070.265 L -6048.58 -5073.895 L -6222.98 -5174.584 Z " fill="rgb(255,255,255)"/></clipPath><g clip-path="url(#_clipPath_IXqUymD5yOlyUKskP2VU3DqfCgbPNK2X)"><g><linearGradient id="_lgradient_5" x1="0.6449622444113898" y1="-1.4140790371349166" x2="0.43654000811335925" y2="0.13487512238510702" gradientTransform="matrix(187.345,0,0,-105.612,-6235.926,-5070.265)" gradientUnits="userSpaceOnUse"><stop offset="0%" stop-opacity="1" style="stop-color:rgb(115,209,234)"/><stop offset="70.4338%" stop-opacity="1" style="stop-color:rgb(237,241,240)"/><stop offset="100%" stop-opacity="1" style="stop-color:rgb(237,241,240)"/></linearGradient><path d=" M -6222.98 -5174.584 L -6223.279 -5174.752 C -6223.408 -5174.821 -6223.538 -5174.889 -6223.666 -5174.952 C -6223.794 -5175.015 -6223.922 -5175.075 -6224.048 -5175.132 C -6224.174 -5175.188 -6224.3 -5175.241 -6224.426 -5175.292 C -6224.552 -5175.343 -6224.679 -5175.391 -6224.806 -5175.436 L -6224.879 -5175.459 L -6224.906 -5175.468 L -6225.183 -5175.559 C -6225.314 -5175.597 -6225.443 -5175.633 -6225.571 -5175.665 C -6225.702 -5175.699 -6225.831 -5175.727 -6225.958 -5175.752 C -6226.098 -5175.779 -6226.234 -5175.801 -6226.371 -5175.819 L -6226.647 -5175.848 L -6226.688 -5175.852 L -6226.788 -5175.863 C -6226.939 -5175.873 -6227.086 -5175.879 -6227.231 -5175.877 C -6227.396 -5175.876 -6227.559 -5175.869 -6227.719 -5175.853 C -6227.904 -5175.837 -6228.086 -5175.811 -6228.262 -5175.775 L -6228.275 -5175.772 L -6228.291 -5175.767 C -6228.507 -5175.723 -6228.718 -5175.665 -6228.92 -5175.595 C -6229.186 -5175.5 -6229.44 -5175.383 -6229.68 -5175.241 L -6235.926 -5171.613 C -6235.5 -5171.86 -6235.035 -5172.035 -6234.536 -5172.139 L -6234.518 -5172.144 C -6234.022 -5172.244 -6233.491 -5172.272 -6232.932 -5172.224 L -6232.888 -5172.22 C -6232.334 -5172.168 -6231.752 -5172.044 -6231.15 -5171.84 L -6231.122 -5171.831 C -6230.508 -5171.621 -6229.874 -5171.331 -6229.223 -5170.956 L -6054.824 -5070.265 L -6048.58 -5073.895 L -6222.98 -5174.584" fill="url(#_lgradient_5)"/></g></g></g><g><clipPath id="_clipPath_SNksovGD4X1GuqJZv6wpLHIC9TjkRIiY"><path d=" M -6039.199 -5058.061 C -6039.204 -5058.213 -6039.211 -5058.365 -6039.22 -5058.517 C -6039.23 -5058.671 -6039.242 -5058.823 -6039.258 -5058.976 C -6039.272 -5059.129 -6039.288 -5059.284 -6039.308 -5059.437 C -6039.328 -5059.595 -6039.35 -5059.753 -6039.376 -5059.911 L -6039.379 -5059.924 L -6039.38 -5059.935 C -6039.403 -5060.085 -6039.43 -5060.236 -6039.458 -5060.388 C -6039.49 -5060.551 -6039.522 -5060.715 -6039.558 -5060.879 C -6039.594 -5061.043 -6039.632 -5061.207 -6039.672 -5061.372 C -6039.715 -5061.539 -6039.758 -5061.705 -6039.804 -5061.872 C -6039.839 -5062.001 -6039.879 -5062.131 -6039.918 -5062.26 L -6039.927 -5062.289 L -6039.948 -5062.371 C -6039.999 -5062.532 -6040.052 -5062.695 -6040.106 -5062.857 C -6040.16 -5063.016 -6040.215 -5063.177 -6040.274 -5063.337 C -6040.328 -5063.491 -6040.386 -5063.644 -6040.446 -5063.796 C -6040.504 -5063.949 -6040.566 -5064.101 -6040.63 -5064.255 L -6040.779 -5064.604 L -6040.788 -5064.625 L -6040.823 -5064.704 C -6040.89 -5064.857 -6040.959 -5065.009 -6041.031 -5065.16 C -6041.108 -5065.327 -6041.187 -5065.491 -6041.27 -5065.655 C -6041.364 -5065.844 -6041.46 -5066.032 -6041.56 -5066.219 C -6041.667 -5066.42 -6041.782 -5066.617 -6041.895 -5066.816 L -6041.954 -5066.92 L -6042.024 -5067.045 C -6042.247 -5067.423 -6042.48 -5067.793 -6042.722 -5068.157 C -6042.915 -5068.445 -6043.114 -5068.729 -6043.319 -5069.007 C -6043.455 -5069.192 -6043.595 -5069.375 -6043.736 -5069.556 C -6043.856 -5069.707 -6043.978 -5069.857 -6044.1 -5070.004 C -6044.219 -5070.148 -6044.34 -5070.289 -6044.464 -5070.429 C -6044.584 -5070.567 -6044.707 -5070.703 -6044.831 -5070.836 L -6044.904 -5070.913 L -6044.931 -5070.941 L -6045.215 -5071.239 C -6045.346 -5071.372 -6045.478 -5071.503 -6045.611 -5071.631 C -6045.748 -5071.761 -6045.886 -5071.891 -6046.026 -5072.016 C -6046.164 -5072.141 -6046.303 -5072.263 -6046.444 -5072.381 L -6046.658 -5072.556 L -6046.706 -5072.595 L -6046.864 -5072.724 C -6047 -5072.832 -6047.139 -5072.937 -6047.276 -5073.04 C -6047.414 -5073.14 -6047.551 -5073.236 -6047.687 -5073.331 C -6047.82 -5073.423 -6047.954 -5073.511 -6048.088 -5073.596 C -6048.219 -5073.68 -6048.354 -5073.761 -6048.487 -5073.84 L -6048.58 -5073.895 L -6054.824 -5070.265 C -6054.18 -5069.895 -6053.554 -5069.456 -6052.947 -5068.965 L -6052.902 -5068.928 C -6052.303 -5068.439 -6051.724 -5067.899 -6051.174 -5067.313 L -6051.148 -5067.285 C -6050.038 -5066.101 -6049.039 -5064.741 -6048.198 -5063.292 L -6048.139 -5063.187 C -6047.731 -5062.476 -6047.359 -5061.744 -6047.034 -5060.999 L -6047.022 -5060.972 C -6046.69 -5060.211 -6046.403 -5059.437 -6046.17 -5058.661 L -6046.162 -5058.631 C -6045.927 -5057.853 -6045.746 -5057.075 -6045.623 -5056.305 L -6045.622 -5056.296 C -6045.498 -5055.52 -6045.435 -5054.755 -6045.438 -5054.008 L -6045.775 -4934.847 C -6045.776 -4934.116 -6045.844 -4933.44 -6045.966 -4932.819 L -6045.979 -4932.761 C -6046.103 -4932.152 -6046.28 -4931.597 -6046.51 -4931.103 L -6046.523 -4931.071 C -6046.719 -4930.655 -6046.968 -4930.308 -6047.23 -4929.979 L -6047.492 -4929.653 C -6047.803 -4929.323 -6048.139 -4929.027 -6048.52 -4928.805 L -6042.276 -4932.433 C -6041.895 -4932.656 -6041.559 -4932.951 -6041.248 -4933.283 L -6040.987 -4933.605 C -6040.875 -4933.747 -6040.748 -4933.869 -6040.647 -4934.027 C -6040.519 -4934.228 -6040.4 -4934.443 -6040.292 -4934.671 L -6040.279 -4934.701 L -6040.267 -4934.729 C -6040.196 -4934.883 -6040.127 -4935.04 -6040.066 -4935.205 C -6040.006 -4935.365 -6039.951 -4935.531 -6039.902 -4935.701 C -6039.855 -4935.857 -6039.814 -4936.017 -6039.775 -4936.183 L -6039.734 -4936.389 L -6039.723 -4936.448 L -6039.683 -4936.644 C -6039.659 -4936.791 -6039.636 -4936.941 -6039.616 -4937.093 C -6039.598 -4937.243 -6039.582 -4937.395 -6039.57 -4937.548 C -6039.556 -4937.693 -6039.55 -4937.843 -6039.542 -4937.992 C -6039.536 -4938.143 -6039.532 -4938.295 -6039.531 -4938.449 L -6039.531 -4938.476 L -6039.194 -5057.636 C -6039.192 -5057.777 -6039.195 -5057.92 -6039.199 -5058.061 L -6039.199 -5058.061 Z " fill="rgb(255,255,255)"/></clipPath><g clip-path="url(#_clipPath_SNksovGD4X1GuqJZv6wpLHIC9TjkRIiY)"><g><linearGradient id="_lgradient_6" x1="0.9999778108149187" y1="0.4999954051297135" x2="0.00004265025211225293" y2="0.4999954051297134" gradientTransform="matrix(15.631,0,0,-145.089,-6054.824,-4928.805)" gradientUnits="userSpaceOnUse"><stop offset="0%" stop-opacity="1" style="stop-color:rgb(82,82,173)"/><stop offset="100%" stop-opacity="1" style="stop-color:rgb(132,214,228)"/></linearGradient><path d=" M -6039.199 -5058.061 C -6039.204 -5058.213 -6039.211 -5058.365 -6039.22 -5058.517 C -6039.23 -5058.671 -6039.242 -5058.823 -6039.258 -5058.976 C -6039.272 -5059.129 -6039.288 -5059.284 -6039.308 -5059.437 C -6039.328 -5059.595 -6039.35 -5059.753 -6039.376 -5059.911 L -6039.379 -5059.924 L -6039.38 -5059.935 C -6039.403 -5060.085 -6039.43 -5060.236 -6039.458 -5060.388 C -6039.49 -5060.551 -6039.522 -5060.715 -6039.558 -5060.879 C -6039.594 -5061.043 -6039.632 -5061.207 -6039.672 -5061.372 C -6039.715 -5061.539 -6039.758 -5061.705 -6039.804 -5061.872 C -6039.839 -5062.001 -6039.879 -5062.131 -6039.918 -5062.26 L -6039.927 -5062.289 L -6039.948 -5062.371 C -6039.999 -5062.532 -6040.052 -5062.695 -6040.106 -5062.857 C -6040.16 -5063.016 -6040.215 -5063.177 -6040.274 -5063.337 C -6040.328 -5063.491 -6040.386 -5063.644 -6040.446 -5063.796 C -6040.504 -5063.949 -6040.566 -5064.101 -6040.63 -5064.255 L -6040.779 -5064.604 L -6040.788 -5064.625 L -6040.823 -5064.704 C -6040.89 -5064.857 -6040.959 -5065.009 -6041.031 -5065.16 C -6041.108 -5065.327 -6041.187 -5065.491 -6041.27 -5065.655 C -6041.364 -5065.844 -6041.46 -5066.032 -6041.56 -5066.219 C -6041.667 -5066.42 -6041.782 -5066.617 -6041.895 -5066.816 L -6041.954 -5066.92 L -6042.024 -5067.045 C -6042.247 -5067.423 -6042.48 -5067.793 -6042.722 -5068.157 C -6042.915 -5068.445 -6043.114 -5068.729 -6043.319 -5069.007 C -6043.455 -5069.192 -6043.595 -5069.375 -6043.736 -5069.556 C -6043.856 -5069.707 -6043.978 -5069.857 -6044.1 -5070.004 C -6044.219 -5070.148 -6044.34 -5070.289 -6044.464 -5070.429 C -6044.584 -5070.567 -6044.707 -5070.703 -6044.831 -5070.836 L -6044.904 -5070.913 L -6044.931 -5070.941 L -6045.215 -5071.239 C -6045.346 -5071.372 -6045.478 -5071.503 -6045.611 -5071.631 C -6045.748 -5071.761 -6045.886 -5071.891 -6046.026 -5072.016 C -6046.164 -5072.141 -6046.303 -5072.263 -6046.444 -5072.381 L -6046.658 -5072.556 L -6046.706 -5072.595 L -6046.864 -5072.724 C -6047 -5072.832 -6047.139 -5072.937 -6047.276 -5073.04 C -6047.414 -5073.14 -6047.551 -5073.236 -6047.687 -5073.331 C -6047.82 -5073.423 -6047.954 -5073.511 -6048.088 -5073.596 C -6048.219 -5073.68 -6048.354 -5073.761 -6048.487 -5073.84 L -6048.58 -5073.895 L -6054.824 -5070.265 C -6054.18 -5069.895 -6053.554 -5069.456 -6052.947 -5068.965 L -6052.902 -5068.928 C -6052.303 -5068.439 -6051.724 -5067.899 -6051.174 -5067.313 L -6051.148 -5067.285 C -6050.038 -5066.101 -6049.039 -5064.741 -6048.198 -5063.292 L -6048.139 -5063.187 C -6047.731 -5062.476 -6047.359 -5061.744 -6047.034 -5060.999 L -6047.022 -5060.972 C -6046.69 -5060.211 -6046.403 -5059.437 -6046.17 -5058.661 L -6046.162 -5058.631 C -6045.927 -5057.853 -6045.746 -5057.075 -6045.623 -5056.305 L -6045.622 -5056.296 C -6045.498 -5055.52 -6045.435 -5054.755 -6045.438 -5054.008 L -6045.775 -4934.847 C -6045.776 -4934.116 -6045.844 -4933.44 -6045.966 -4932.819 L -6045.979 -4932.761 C -6046.103 -4932.152 -6046.28 -4931.597 -6046.51 -4931.103 L -6046.523 -4931.071 C -6046.719 -4930.655 -6046.968 -4930.308 -6047.23 -4929.979 L -6047.492 -4929.653 C -6047.803 -4929.323 -6048.139 -4929.027 -6048.52 -4928.805 L -6042.276 -4932.433 C -6041.895 -4932.656 -6041.559 -4932.951 -6041.248 -4933.283 L -6040.987 -4933.605 C -6040.875 -4933.747 -6040.748 -4933.869 -6040.647 -4934.027 C -6040.519 -4934.228 -6040.4 -4934.443 -6040.292 -4934.671 L -6040.279 -4934.701 L -6040.267 -4934.729 C -6040.196 -4934.883 -6040.127 -4935.04 -6040.066 -4935.205 C -6040.006 -4935.365 -6039.951 -4935.531 -6039.902 -4935.701 C -6039.855 -4935.857 -6039.814 -4936.017 -6039.775 -4936.183 L -6039.734 -4936.389 L -6039.723 -4936.448 L -6039.683 -4936.644 C -6039.659 -4936.791 -6039.636 -4936.941 -6039.616 -4937.093 C -6039.598 -4937.243 -6039.582 -4937.395 -6039.57 -4937.548 C -6039.556 -4937.693 -6039.55 -4937.843 -6039.542 -4937.992 C -6039.536 -4938.143 -6039.532 -4938.295 -6039.531 -4938.449 L -6039.531 -4938.476 L -6039.194 -5057.636 C -6039.192 -5057.777 -6039.195 -5057.92 -6039.199 -5058.061" fill="url(#_lgradient_6)"/></g></g></g><path d=" M -6054.823 -5070.265 C -6049.619 -5067.261 -6045.42 -5059.987 -6045.438 -5054.008 L -6045.775 -4934.847 C -6045.791 -4928.868 -6050.019 -4926.459 -6055.223 -4929.463 L -6229.622 -5030.153 C -6234.826 -5033.157 -6239.026 -5040.432 -6239.008 -5046.411 L -6238.671 -5165.572 C -6238.654 -5171.551 -6234.427 -5173.96 -6229.223 -5170.956 L -6054.823 -5070.265" fill="rgb(51,56,151)"/><path d=" M -6105.359 -5119.125 C -6103.723 -5118.181 -6102.404 -5115.895 -6102.41 -5114.015 L -6102.515 -5076.56 C -6102.52 -5074.68 -6103.85 -5073.924 -6105.486 -5074.868 L -6160.303 -5106.517 C -6161.939 -5107.461 -6163.259 -5109.748 -6163.254 -5111.627 L -6163.148 -5149.083 C -6163.142 -5150.961 -6161.814 -5151.719 -6160.178 -5150.775 L -6105.359 -5119.125" fill="rgb(82,123,199)"/><path d=" M -6209.135 -5135.747 L -6209.139 -5134.045 C -6209.143 -5133.044 -6210.228 -5132.42 -6211.095 -5132.923 L -6219.115 -5137.576 C -6219.518 -5137.809 -6219.766 -5138.24 -6219.764 -5138.707 L -6219.759 -5140.407 C -6219.756 -5141.408 -6218.67 -5142.032 -6217.803 -5141.529 L -6209.783 -5136.876 C -6209.382 -5136.643 -6209.134 -5136.212 -6209.135 -5135.747" fill="rgb(255,255,255)"/><path d=" M -6183.764 -5112.648 L -6183.77 -5110.944 C -6183.772 -5109.943 -6184.856 -5109.319 -6185.722 -5109.82 L -6219.136 -5129.112 C -6219.542 -5129.345 -6219.788 -5129.776 -6219.787 -5130.243 L -6219.783 -5131.947 C -6219.78 -5132.948 -6218.696 -5133.572 -6217.83 -5133.071 L -6184.415 -5113.779 C -6184.011 -5113.545 -6183.763 -5113.115 -6183.764 -5112.648" fill="rgb(116,210,234)"/><path d=" M -6224.206 -5056.373 L -6211.451 -5062.88 L -6203.032 -5049.283 L -6192.907 -5038.981 L -6182.816 -5045.071 L -6162.61 -5051.588 L -6153.47 -5038.531 L -6144.104 -5030.836 L -6134.97 -5017.405 L -6123.211 -5042.115 L -6109.376 -5035.527 L -6101.95 -5041.603 L -6086.939 -5037.644 L -6064.234 -5039.663 L -6064.351 -5040.991 L -6086.824 -5038.993 L -6102.268 -5043.065 L -6109.566 -5037.095 L -6123.843 -5043.892 L -6135.175 -5020.077 L -6143.11 -5031.745 L -6152.483 -5039.445 L -6162.082 -5053.16 L -6183.372 -5046.292 L -6192.694 -5040.667 L -6201.978 -5050.111 L -6210.963 -5064.625 L -6224.811 -5057.561 L -6224.206 -5056.373" fill="rgb(85,199,217)"/><path d=" M -6145.85 -5133.549 C -6150.899 -5136.464 -6155.68 -5135.721 -6157.655 -5131.127 C -6160.126 -5125.381 -6157.316 -5115.705 -6151.367 -5109.012 L -6149.987 -5112.225 C -6154.016 -5116.928 -6155.894 -5123.573 -6154.183 -5127.545 C -6152.79 -5130.785 -6149.422 -5131.308 -6145.862 -5129.252 C -6144.995 -5128.752 -6144.115 -5128.097 -6143.251 -5127.293 L -6141.871 -5130.505 C -6143.184 -5131.769 -6144.527 -5132.785 -6145.85 -5133.549" fill="rgb(244,244,244)"/><path d=" M -6141.871 -5130.505 L -6143.25 -5127.295 C -6143.032 -5127.092 -6142.815 -5126.88 -6142.6 -5126.657 C -6138.019 -5121.937 -6135.78 -5114.687 -6137.599 -5110.456 C -6137.666 -5110.305 -6137.736 -5110.159 -6137.812 -5110.016 L -6137.896 -5109.865 C -6139.222 -5107.533 -6141.76 -5106.963 -6144.574 -5108.092 C -6145.014 -5108.267 -6145.46 -5108.485 -6145.912 -5108.745 L -6146.274 -5108.963 C -6146.494 -5109.1 -6146.662 -5109.213 -6146.827 -5109.325 L -6146.902 -5109.379 C -6147.263 -5109.635 -6147.622 -5109.911 -6147.983 -5110.22 L -6148.119 -5110.339 C -6148.252 -5110.455 -6148.386 -5110.575 -6148.518 -5110.699 L -6148.664 -5110.837 C -6148.839 -5111 -6149.012 -5111.171 -6149.183 -5111.345 C -6149.46 -5111.632 -6149.726 -5111.927 -6149.987 -5112.225 L -6151.367 -5109.012 C -6151.104 -5108.717 -6150.838 -5108.424 -6150.563 -5108.143 C -6150.318 -5107.891 -6150.071 -5107.649 -6149.823 -5107.415 L -6149.611 -5107.216 C -6149.424 -5107.041 -6149.234 -5106.871 -6149.043 -5106.704 L -6148.851 -5106.537 C -6148.339 -5106.103 -6147.826 -5105.701 -6147.314 -5105.343 L -6147.191 -5105.26 C -6146.956 -5105.093 -6146.722 -5104.943 -6146.491 -5104.795 L -6146.41 -5104.745 C -6146.251 -5104.647 -6146.091 -5104.551 -6145.932 -5104.459 C -6145.552 -5104.24 -6145.176 -5104.041 -6144.8 -5103.863 C -6144.518 -5103.729 -6144.251 -5103.615 -6143.984 -5103.508 C -6139.691 -5101.805 -6135.846 -5102.88 -6134.128 -5106.88 C -6131.55 -5112.879 -6134.724 -5123.171 -6141.219 -5129.864 C -6141.438 -5130.085 -6141.654 -5130.299 -6141.871 -5130.505" fill="rgb(249,178,13)"/><path d=" M -6122.126 -5112.796 L -6122.13 -5111.815 C -6122.131 -5111.235 -6122.759 -5110.875 -6123.26 -5111.165 L -6127.895 -5113.855 C -6128.128 -5113.989 -6128.271 -5114.239 -6128.271 -5114.507 L -6128.268 -5115.491 C -6128.266 -5116.069 -6127.638 -5116.429 -6127.136 -5116.139 L -6122.5 -5113.449 C -6122.27 -5113.315 -6122.126 -5113.067 -6122.126 -5112.796" fill="rgb(255,255,255)"/><path d=" M -6107.463 -5099.447 L -6107.466 -5098.461 C -6107.467 -5097.883 -6108.094 -5097.523 -6108.595 -5097.812 L -6127.907 -5108.961 C -6128.142 -5109.096 -6128.284 -5109.345 -6128.283 -5109.616 L -6128.28 -5110.6 C -6128.279 -5111.179 -6127.654 -5111.54 -6127.152 -5111.251 L -6107.839 -5100.1 C -6107.607 -5099.965 -6107.462 -5099.716 -6107.463 -5099.447 Z " fill="rgb(255,255,255)"/><path d=" M -6116.21 -5092.521 C -6116.335 -5092.521 -6116.463 -5092.553 -6116.584 -5092.623 L -6127.936 -5099.176 C -6128.168 -5099.312 -6128.312 -5099.561 -6128.312 -5099.831 L -6128.31 -5100.815 C -6128.307 -5101.253 -6127.947 -5101.567 -6127.555 -5101.567 C -6127.43 -5101.567 -6127.3 -5101.535 -6127.179 -5101.465 L -6115.83 -5094.912 C -6115.596 -5094.777 -6115.452 -5094.528 -6115.452 -5094.259 L -6115.455 -5093.273 C -6115.458 -5092.835 -6115.818 -5092.521 -6116.21 -5092.521 Z " fill="rgb(164,199,236)"/><path d=" M -6110.472 -5096.283 L -6110.475 -5095.297 C -6110.476 -5094.719 -6111.103 -5094.359 -6111.604 -5094.648 L -6127.922 -5104.069 C -6128.155 -5104.204 -6128.299 -5104.453 -6128.298 -5104.723 L -6128.295 -5105.708 C -6128.294 -5106.287 -6127.667 -5106.647 -6127.166 -5106.357 L -6110.847 -5096.936 C -6110.614 -5096.801 -6110.471 -5096.552 -6110.472 -5096.283" fill="rgb(115,171,225)"/><path d=" M -6064.247 -5052.683 C -6069.872 -5055.931 -6074.463 -5053.316 -6074.482 -5046.851 C -6074.499 -5040.387 -6069.939 -5032.515 -6064.314 -5029.267 C -6058.687 -5026.019 -6054.122 -5028.621 -6054.103 -5035.085 C -6054.084 -5041.549 -6058.62 -5049.435 -6064.247 -5052.683 Z " fill="rgb(239,39,112)"/><path d=" M -6064.272 -5046.268 C -6066.815 -5047.736 -6068.89 -5046.553 -6068.899 -5043.631 C -6068.907 -5040.708 -6066.844 -5037.149 -6064.302 -5035.681 C -6061.759 -5034.213 -6059.694 -5035.389 -6059.686 -5038.312 C -6059.678 -5041.235 -6061.728 -5044.799 -6064.272 -5046.268 Z " fill="rgb(42,47,113)"/><path d=" M -6208.432 -5113.727 L -6208.432 -5111.973 C -6208.432 -5110.94 -6209.551 -5110.293 -6210.446 -5110.809 L -6218.732 -5115.583 C -6219.15 -5115.823 -6219.406 -5116.267 -6219.406 -5116.747 L -6219.406 -5118.5 C -6219.406 -5119.535 -6218.287 -5120.181 -6217.391 -5119.664 L -6209.106 -5114.891 C -6208.688 -5114.651 -6208.432 -5114.207 -6208.432 -5113.727 Z " fill="rgb(116,210,234)"/><path d=" M -6182.19 -5089.983 L -6182.19 -5088.224 C -6182.19 -5087.192 -6183.306 -5086.545 -6184.202 -5087.059 L -6218.728 -5106.852 C -6219.146 -5107.091 -6219.403 -5107.536 -6219.403 -5108.016 L -6219.404 -5109.775 C -6219.404 -5110.807 -6218.288 -5111.453 -6217.392 -5110.94 L -6182.866 -5091.147 C -6182.447 -5090.908 -6182.19 -5090.463 -6182.19 -5089.983 Z " fill="rgb(116,210,234)"/><path d=" M -6197.766 -5077.576 C -6197.988 -5077.576 -6198.216 -5077.632 -6198.432 -5077.756 L -6218.723 -5089.388 C -6219.142 -5089.627 -6219.399 -5090.072 -6219.399 -5090.553 L -6219.399 -5092.311 C -6219.399 -5093.095 -6218.756 -5093.657 -6218.055 -5093.657 C -6217.832 -5093.657 -6217.604 -5093.6 -6217.388 -5093.477 L -6197.096 -5081.844 C -6196.679 -5081.604 -6196.422 -5081.16 -6196.422 -5080.679 L -6196.422 -5078.921 C -6196.42 -5078.137 -6197.064 -5077.576 -6197.766 -5077.576 Z " fill="rgb(71,148,212)"/><path d=" M -6187.543 -5084.319 L -6187.542 -5082.563 C -6187.542 -5081.529 -6188.658 -5080.883 -6189.552 -5081.396 L -6218.726 -5098.12 C -6219.143 -5098.359 -6219.4 -5098.804 -6219.4 -5099.285 L -6219.402 -5101.043 C -6219.402 -5102.075 -6218.286 -5102.721 -6217.39 -5102.208 L -6188.218 -5085.484 C -6187.8 -5085.245 -6187.543 -5084.8 -6187.543 -5084.319" fill="rgb(116,210,234)"/><path d=" M -6089.302 -4965.16 L -6084.594 -4967.896 L -6084.684 -4935.936 L -6089.391 -4933.2 L -6089.302 -4965.16 Z " fill="rgb(48,174,65)"/><path d=" M -6079.69 -4966.013 L -6079.69 -4966.052 L -6079.692 -4966.091 L -6079.695 -4966.129 L -6079.699 -4966.169 L -6079.706 -4966.208 L -6079.712 -4966.249 L -6079.72 -4966.291 L -6079.722 -4966.3 L -6079.723 -4966.303 L -6079.73 -4966.333 L -6079.742 -4966.375 L -6079.754 -4966.419 L -6079.768 -4966.461 L -6079.782 -4966.501 L -6079.798 -4966.543 L -6079.814 -4966.584 L -6079.831 -4966.625 L -6079.851 -4966.668 L -6079.872 -4966.711 L -6079.872 -4966.711 L -6094.527 -4995.887 L -6094.546 -4995.921 L -6094.584 -4995.992 L -6094.656 -4996.107 L -6094.704 -4996.173 L -6094.738 -4996.219 L -6094.771 -4996.259 L -6094.802 -4996.295 L -6094.819 -4996.313 L -6094.82 -4996.316 L -6094.834 -4996.331 L -6094.868 -4996.365 L -6094.903 -4996.4 L -6094.94 -4996.435 L -6094.978 -4996.468 L -6095.014 -4996.497 L -6095.052 -4996.527 L -6095.087 -4996.552 L -6095.123 -4996.575 L -6095.158 -4996.596 L -6095.164 -4996.6 L -6095.192 -4996.616 L -6095.226 -4996.633 L -6095.259 -4996.649 L -6095.292 -4996.663 L -6095.327 -4996.676 L -6095.36 -4996.687 L -6095.394 -4996.696 L -6095.43 -4996.704 L -6095.466 -4996.709 L -6095.479 -4996.711 L -6095.48 -4996.712 L -6095.502 -4996.713 L -6095.542 -4996.715 L -6095.583 -4996.713 L -6095.63 -4996.707 L -6095.687 -4996.691 L -6095.756 -4996.66 L -6100.464 -4993.924 L -6100.188 -4993.976 L -6100.187 -4993.976 L -6099.874 -4993.865 C -6099.755 -4993.797 -6099.638 -4993.7 -6099.528 -4993.58 L -6099.527 -4993.577 C -6099.418 -4993.457 -6099.318 -4993.313 -6099.235 -4993.149 L -6084.58 -4963.976 C -6084.508 -4963.833 -6084.46 -4963.696 -6084.431 -4963.567 L -6084.431 -4963.565 C -6084.402 -4963.436 -6084.392 -4963.316 -6084.4 -4963.208 L -6084.4 -4963.207 L -6084.475 -4962.929 L -6084.478 -4962.924 L -6084.642 -4962.747 L -6079.935 -4965.483 L -6079.791 -4965.621 L -6079.771 -4965.66 L -6079.767 -4965.665 L -6079.759 -4965.679 L -6079.738 -4965.731 L -6079.722 -4965.773 L -6079.712 -4965.817 L -6079.703 -4965.857 L -6079.698 -4965.899 L -6079.694 -4965.936 L -6079.692 -4965.943 L -6079.692 -4965.944 L -6079.691 -4965.976 L -6079.69 -4966.013" fill="rgb(107,198,47)"/><path d=" M -6099.874 -4993.865 C -6099.636 -4993.728 -6099.4 -4993.477 -6099.235 -4993.149 L -6084.58 -4963.976 C -6084.147 -4963.108 -6084.534 -4962.408 -6085.224 -4962.807 L -6089.302 -4965.16 L -6089.391 -4933.2 L -6110.8 -4945.56 L -6110.71 -4977.521 L -6114.651 -4979.796 C -6115.35 -4980.2 -6115.731 -4981.343 -6115.286 -4981.704 L -6100.514 -4993.889 C -6100.347 -4994.023 -6100.11 -4994.003 -6099.874 -4993.865" fill="rgb(70,187,58)"/><path d=" M -6251.82 -4925.725 L -6209.468 -4882.493 L -6168.335 -4893.189 L -6210.687 -4936.42 L -6251.82 -4925.725" fill="rgb(255,255,255)"/><path d=" M -6206.347 -4923.076 L -6210.402 -4921.543 C -6213.452 -4923.933 -6218.732 -4924.78 -6222.314 -4923.427 L -6222.528 -4923.339 L -6225.892 -4926.107 L -6225.675 -4926.193 C -6219.856 -4928.393 -6211.255 -4926.995 -6206.347 -4923.076" fill="rgb(231,239,250)"/><path d=" M -6205.832 -4922.645 C -6201.898 -4919.164 -6202.126 -4914.991 -6206.123 -4912.557 L -6209.592 -4915.411 C -6207.76 -4916.917 -6207.802 -4919.173 -6209.892 -4921.111 L -6205.832 -4922.645" fill="rgb(231,239,250)"/><path d=" M -6206.667 -4912.249 C -6207.079 -4912.033 -6207.524 -4911.832 -6208.003 -4911.651 C -6213.739 -4909.483 -6222.174 -4910.808 -6227.115 -4914.597 L -6223.056 -4916.132 C -6219.978 -4913.871 -6214.862 -4913.095 -6211.366 -4914.417 C -6210.88 -4914.601 -6210.452 -4914.816 -6210.08 -4915.057 L -6206.667 -4912.249" fill="rgb(103,165,222)"/><path d=" M -6223.115 -4923.067 C -6225.958 -4921.584 -6226.211 -4918.824 -6223.59 -4916.557 L -6227.644 -4915.023 C -6232.12 -4918.821 -6231.564 -4923.507 -6226.496 -4925.848 L -6223.115 -4923.067" fill="rgb(103,165,222)"/><path d=" M -6210.551 -4711.891 C -6210.551 -4711.891 -6213.871 -4709.608 -6210.758 -4704.212 C -6207.644 -4698.816 -6204.946 -4702.137 -6197.888 -4696.74 C -6190.832 -4691.344 -6188.342 -4690.307 -6184.607 -4690.721 C -6180.871 -4691.137 -6178.587 -4693.004 -6177.964 -4695.08 C -6177.342 -4697.155 -6179.211 -4700.684 -6179.211 -4700.684 L -6210.551 -4711.891" fill="rgb(147,159,194)"/><path d=" M -6180.663 -4711.684 C -6180.663 -4711.684 -6179.211 -4704.626 -6178.38 -4699.231 C -6178.172 -4696.74 -6181.494 -4693.35 -6186.267 -4693.557 C -6191.04 -4693.765 -6193.739 -4695.217 -6195.399 -4697.293 C -6197.059 -4699.369 -6207.438 -4703.381 -6209.304 -4705.041 C -6211.172 -4706.702 -6211.588 -4711.684 -6210.758 -4712.928 C -6209.928 -4714.175 -6206.815 -4716.251 -6203.494 -4714.797 C -6200.172 -4713.344 -6197.475 -4710.647 -6190.832 -4710.231 C -6184.191 -4709.816 -6180.663 -4711.684 -6180.663 -4711.684" fill="rgb(50,36,65)"/><path d=" M -6177.619 -4729.879 C -6177.619 -4729.879 -6180.94 -4727.595 -6177.827 -4722.2 C -6174.714 -4716.804 -6172.015 -4720.124 -6164.958 -4714.728 C -6157.902 -4709.331 -6155.411 -4708.293 -6151.675 -4708.708 C -6147.94 -4709.124 -6145.656 -4710.992 -6145.034 -4713.068 C -6144.411 -4715.144 -6146.279 -4718.671 -6146.279 -4718.671 L -6177.619 -4729.879" fill="rgb(147,159,194)"/><path d=" M -6147.731 -4729.671 C -6147.731 -4729.671 -6146.279 -4722.615 -6145.448 -4717.219 C -6145.242 -4714.728 -6148.562 -4711.337 -6153.335 -4711.545 C -6158.108 -4711.753 -6160.807 -4713.205 -6162.468 -4715.281 C -6164.128 -4717.357 -6174.506 -4721.369 -6176.374 -4723.031 C -6178.242 -4724.691 -6178.658 -4729.671 -6177.827 -4730.917 C -6176.996 -4732.161 -6173.883 -4734.237 -6170.562 -4732.784 C -6167.242 -4731.332 -6164.544 -4728.633 -6157.902 -4728.219 C -6151.26 -4727.804 -6147.731 -4729.671 -6147.731 -4729.671" fill="rgb(50,36,65)"/><path d=" M -6173.538 -4787.093 C -6171.878 -4773.811 -6165.235 -4738.941 -6164.128 -4726.765 C -6164.128 -4726.765 -6161.36 -4722.337 -6153.059 -4723.444 L -6149.118 -4725.087 C -6147.531 -4725.748 -6146.579 -4727.379 -6146.791 -4729.085 C -6147.626 -4735.8 -6149.503 -4752.708 -6148.631 -4762.741 C -6147.524 -4775.471 -6150.844 -4783.219 -6150.844 -4783.219 C -6150.568 -4787.371 -6150.015 -4801.76 -6158.318 -4805.635 C -6158.318 -4805.635 -6178.658 -4809.371 -6173.538 -4787.093" fill="rgb(40,56,122)"/><path d=" M -6156.656 -4799.545 L -6158.871 -4795.119 C -6158.871 -4795.119 -6192.908 -4793.459 -6202.04 -4783.496 C -6202.04 -4783.496 -6208.128 -4782.388 -6206.468 -4769.105 C -6204.808 -4755.823 -6198.166 -4720.955 -6197.059 -4708.777 C -6197.059 -4708.777 -6194.292 -4704.35 -6185.991 -4705.457 L -6182.05 -4707.099 C -6180.462 -4707.76 -6179.51 -4709.391 -6179.722 -4711.097 C -6180.556 -4717.813 -6182.435 -4734.72 -6181.562 -4744.753 C -6180.455 -4757.483 -6183.775 -4765.232 -6183.775 -4765.232 C -6183.775 -4765.232 -6168.832 -4762.464 -6152.782 -4755.823 C -6136.731 -4749.181 -6122.895 -4756.929 -6116.807 -4760.251 C -6110.719 -4763.571 -6108.504 -4765.785 -6108.504 -4765.785 C -6108.504 -4765.785 -6100.756 -4765.785 -6093.562 -4771.872 C -6086.367 -4777.961 -6085.26 -4794.012 -6093.007 -4803.421 C -6100.756 -4812.829 -6156.656 -4799.545 -6156.656 -4799.545 Z " fill="rgb(42,60,142)"/><path d=" M -6144.48 -4883.673 C -6144.48 -4883.673 -6138.98 -4885.711 -6139.342 -4893.059 C -6141.011 -4900.293 -6143.03 -4900.78 -6143.03 -4900.78 C -6143.03 -4900.78 -6135.334 -4907.891 -6126.054 -4905.649 C -6126.054 -4905.649 -6120.322 -4894.019 -6113.836 -4889.037 C -6113.836 -4889.037 -6119.02 -4875.371 -6144.48 -4883.673" fill="rgb(205,109,73)"/><path d=" M -6132.442 -4879.523 C -6132.442 -4879.523 -6112.103 -4896.54 -6107.951 -4896.956 C -6102.971 -4897.371 -6096.744 -4895.711 -6095.083 -4888.653 C -6093.423 -4881.597 -6097.159 -4876.201 -6100.895 -4874.125 C -6104.631 -4872.049 -6137.424 -4856.276 -6143.235 -4856.276 C -6149.047 -4856.276 -6152.782 -4861.259 -6149.047 -4867.483 C -6145.311 -4873.709 -6132.442 -4879.523 -6132.442 -4879.523" fill="rgb(223,153,24)"/><path d=" M -6126.216 -4890.868 C -6126.216 -4890.868 -6147.8 -4883.673 -6153.888 -4873.709 C -6159.978 -4863.748 -6158.871 -4852.679 -6154.442 -4837.181 C -6150.015 -4821.685 -6158.871 -4807.848 -6156.656 -4799.545 C -6154.442 -4791.244 -6138.946 -4783.496 -6116.254 -4787.371 C -6093.562 -4791.244 -6091.9 -4800.099 -6090.24 -4805.081 C -6088.58 -4810.061 -6094.668 -4833.861 -6089.134 -4853.232 C -6083.599 -4872.603 -6094.668 -4885.887 -6099.096 -4889.207 C -6103.524 -4892.528 -6112.38 -4896.956 -6126.216 -4890.868 Z " fill="rgb(250,183,39)"/><path d=" M -6099.096 -4889.207 C -6103.524 -4892.529 -6112.38 -4896.956 -6126.216 -4890.868 C -6126.216 -4890.868 -6147.8 -4883.673 -6153.888 -4873.709 C -6155.364 -4871.296 -6156.41 -4868.816 -6157.095 -4866.224 C -6148.355 -4877.585 -6135.95 -4882.573 -6127.876 -4863.195 C -6120.34 -4845.109 -6139.512 -4791.952 -6156.264 -4808.664 C -6156.968 -4805.179 -6157.336 -4802.099 -6156.656 -4799.545 C -6154.442 -4791.244 -6138.946 -4783.496 -6116.254 -4787.371 C -6093.562 -4791.244 -6091.9 -4800.099 -6090.24 -4805.081 C -6088.58 -4810.061 -6094.668 -4833.861 -6089.134 -4853.232 C -6083.599 -4872.603 -6094.668 -4885.887 -6099.096 -4889.207 Z " fill="rgb(223,153,24)"/><path d=" M -6146.832 -4881.459 C -6146.832 -4881.459 -6141.02 -4877.723 -6126.494 -4879.799 C -6111.964 -4881.873 -6111.134 -4892.252 -6112.38 -4893.083 C -6113.624 -4893.912 -6116.115 -4897.232 -6116.115 -4897.232 C -6116.115 -4897.232 -6131.474 -4890.176 -6136.871 -4888.1 C -6142.267 -4886.025 -6145.171 -4884.78 -6145.171 -4884.78 L -6146.832 -4881.459" fill="rgb(255,255,255)"/><path d=" M -6156.38 -4926.704 C -6156.38 -4926.704 -6157.624 -4911.761 -6149.738 -4901.799 C -6141.851 -4891.836 -6133.964 -4897.648 -6128.983 -4900.139 C -6124.002 -4902.629 -6121.927 -4906.78 -6120.267 -4918.817 C -6118.607 -4930.856 -6118.607 -4942.479 -6127.323 -4946.215 C -6136.04 -4949.951 -6145.587 -4950.78 -6150.984 -4941.648 C -6156.38 -4932.516 -6156.38 -4926.704 -6156.38 -4926.704" fill="rgb(248,155,117)"/><path d=" M -6150.568 -4944.553 C -6150.568 -4944.553 -6157.624 -4939.157 -6157.211 -4931.271 C -6156.795 -4923.384 -6159.284 -4922.139 -6158.455 -4917.988 C -6157.624 -4913.837 -6150.984 -4912.592 -6150.568 -4906.78 C -6150.154 -4900.969 -6141.436 -4898.893 -6136.871 -4897.232 C -6132.304 -4895.572 -6124.831 -4900.969 -6122.756 -4903.873 C -6120.682 -4906.78 -6121.096 -4914.252 -6118.607 -4920.893 C -6116.115 -4927.535 -6117.36 -4935.837 -6119.436 -4941.648 C -6121.511 -4947.46 -6125.663 -4948.704 -6125.663 -4948.704 C -6125.663 -4948.704 -6127.738 -4953.271 -6132.719 -4954.101 C -6137.7 -4954.931 -6153.059 -4954.101 -6150.568 -4944.553" fill="rgb(68,40,96)"/><path d=" M -6084.046 -4699.091 C -6084.799 -4690.714 -6092.68 -4685.028 -6099.792 -4681.962 C -6107.538 -4678.625 -6116.052 -4677.279 -6124.455 -4677.387 C -6133.031 -4677.497 -6141.787 -4679.138 -6149.52 -4682.943 C -6156.27 -4686.262 -6163.431 -4692.286 -6163.408 -4700.479 C -6163.424 -4694.513 -6163.006 -4689.584 -6158.708 -4684.926 C -6153.174 -4678.931 -6144.842 -4675.702 -6137.003 -4674.084 C -6121.714 -4670.926 -6100.891 -4672.452 -6089.276 -4684.224 C -6084.603 -4688.96 -6083.964 -4693.953 -6083.946 -4700.252 C -6083.963 -4699.864 -6083.996 -4699.476 -6084.046 -4699.091" fill="rgb(181,205,237)"/><path d=" M -6095.683 -4716.649 C -6080.118 -4707.661 -6080.018 -4693.089 -6095.483 -4684.101 C -6110.946 -4675.114 -6136.123 -4675.114 -6151.688 -4684.101 C -6167.255 -4693.089 -6167.319 -4707.661 -6151.854 -4716.649 C -6136.39 -4725.636 -6111.25 -4725.636 -6095.683 -4716.649" fill="rgb(231,239,250)"/><path d=" M -6116.599 -4734.815 L -6116.698 -4700.084 L -6122.774 -4696.553 L -6122.674 -4731.283 L -6116.599 -4734.815 Z " fill="rgb(205,218,242)"/><path d=" M -6122.674 -4731.283 L -6122.774 -4696.553 L -6128.888 -4700.084 L -6128.79 -4734.815 L -6122.674 -4731.283" fill="rgb(139,170,222)"/><path d=" M -6116.599 -4734.815 L -6122.674 -4731.283 L -6128.79 -4734.815 L -6122.715 -4738.345 L -6116.599 -4734.815 Z " fill="rgb(95,166,223)"/><path d=" M -6045.767 -4853.395 C -6045.942 -4858.209 -6050.719 -4861.481 -6055.267 -4859.885 C -6075.119 -4852.923 -6120.624 -4836.429 -6123.548 -4830.583 C -6126.334 -4825.011 -6135.335 -4793.885 -6139.768 -4778.293 C -6141.05 -4773.788 -6146.24 -4771.724 -6150.275 -4774.104 L -6177.778 -4790.323 C -6183.01 -4793.409 -6189.463 -4788.98 -6188.466 -4782.988 L -6184.05 -4756.493 C -6183.698 -4754.379 -6182.415 -4752.536 -6180.556 -4751.468 L -6151.13 -4734.563 C -6134.684 -4725.115 -6114.599 -4724.535 -6097.634 -4733.017 L -6074.948 -4744.36 C -6055.108 -4754.28 -6042.894 -4774.876 -6043.704 -4797.043 L -6045.767 -4853.395" fill="rgb(71,114,193)"/><path d=" M -6123.548 -4830.583 C -6126.334 -4825.011 -6135.335 -4793.885 -6139.768 -4778.293 C -6141.05 -4773.788 -6146.24 -4771.724 -6150.275 -4774.104 L -6177.778 -4790.323 C -6183.01 -4793.409 -6189.463 -4788.98 -6188.466 -4782.988 L -6184.05 -4756.493 C -6183.946 -4755.875 -6183.743 -4755.292 -6183.49 -4754.733 C -6183.139 -4754.181 -6182.786 -4753.631 -6182.427 -4753.083 C -6181.896 -4752.453 -6181.287 -4751.887 -6180.556 -4751.468 L -6151.13 -4734.563 C -6144.895 -4730.981 -6138.138 -4728.68 -6131.224 -4727.657 C -6107.355 -4746.181 -6110.364 -4823.493 -6119.02 -4829.987 C -6120.303 -4830.948 -6121.432 -4831.547 -6122.43 -4831.871 C -6122.97 -4831.4 -6123.356 -4830.967 -6123.548 -4830.583" fill="rgb(95,174,228)"/><path d=" M -6176.719 -4854.063 C -6176.719 -4854.063 -6156.38 -4871.081 -6152.228 -4871.496 C -6147.247 -4871.912 -6141.02 -4870.252 -6139.36 -4863.195 C -6137.7 -4856.139 -6141.436 -4850.741 -6145.171 -4848.665 C -6148.908 -4846.591 -6181.7 -4830.816 -6187.512 -4830.816 C -6193.324 -4830.816 -6197.059 -4835.799 -6193.324 -4842.025 C -6189.588 -4848.252 -6176.719 -4854.063 -6176.719 -4854.063" fill="rgb(250,183,39)"/><path d=" M -6205.362 -4881.043 C -6205.362 -4881.043 -6206.399 -4883.119 -6206.607 -4884.572 C -6206.815 -4886.025 -6205.984 -4887.893 -6206.815 -4891.213 C -6207.644 -4894.535 -6209.098 -4897.44 -6209.719 -4899.723 C -6211.38 -4901.799 -6212.832 -4898.063 -6211.588 -4894.949 C -6210.342 -4891.836 -6210.758 -4889.969 -6212.003 -4889.76 C -6213.248 -4889.553 -6218.438 -4892.667 -6219.89 -4894.327 C -6221.342 -4895.987 -6229.644 -4904.083 -6230.475 -4903.044 C -6231.306 -4902.007 -6231.306 -4900.969 -6228.399 -4897.856 C -6225.494 -4894.743 -6224.455 -4893.289 -6224.248 -4892.459 C -6224.042 -4891.629 -6224.248 -4890.799 -6223.211 -4888.308 C -6222.172 -4885.817 -6223.003 -4884.156 -6221.135 -4881.873 C -6219.267 -4879.592 -6215.739 -4879.176 -6214.078 -4877.723 C -6212.418 -4876.269 -6212.418 -4876.269 -6212.418 -4876.269 L -6205.362 -4881.043" fill="rgb(248,155,117)"/><path d=" M -6187.512 -4830.816 C -6187.512 -4830.816 -6196.228 -4829.156 -6200.934 -4838.843 C -6205.638 -4848.528 -6213.664 -4874.54 -6214.771 -4877.032 C -6214.771 -4877.032 -6212.003 -4883.119 -6205.084 -4882.843 C -6205.084 -4882.843 -6197.335 -4867.623 -6192.908 -4860.704 C -6188.48 -4853.785 -6172.707 -4833.585 -6187.512 -4830.816" fill="rgb(250,183,39)"/><path d=" M -6315.792 -4995.813 C -6315.792 -4995.813 -6313.086 -4997.535 -6311.488 -4997.043 C -6309.888 -4996.551 -6304.355 -4995.689 -6302.634 -4995.567 C -6300.912 -4995.444 -6297.468 -4998.519 -6296.854 -4999.011 C -6296.238 -4999.503 -6295.87 -5000.609 -6295.131 -5001.347 C -6294.394 -5002.085 -6294.024 -5001.961 -6294.024 -5003.315 C -6294.024 -5004.668 -6292.671 -5005.897 -6292.056 -5006.512 C -6291.442 -5007.127 -6288.983 -5008.603 -6289.228 -5009.709 C -6289.474 -5010.816 -6290.704 -5010.201 -6291.442 -5009.955 C -6292.18 -5009.709 -6295.008 -5007.127 -6296.238 -5006.389 C -6297.468 -5005.651 -6300.419 -5004.544 -6301.895 -5004.544 C -6303.371 -5004.544 -6304.723 -5004.913 -6304.723 -5004.913 C -6304.723 -5004.913 -6305.092 -5004.913 -6303.616 -5005.405 C -6302.14 -5005.897 -6301.28 -5005.528 -6300.051 -5005.775 C -6298.82 -5006.02 -6298.206 -5006.759 -6298.33 -5007.372 C -6298.452 -5007.988 -6300.051 -5007.988 -6300.666 -5007.988 C -6301.28 -5007.988 -6304.97 -5007.865 -6306.446 -5008.111 C -6307.922 -5008.357 -6310.38 -5005.897 -6310.872 -5005.405 C -6311.364 -5004.913 -6313.947 -5004.176 -6315.3 -5004.052 C -6316.652 -5003.929 -6315.792 -4995.813 -6315.792 -4995.813" fill="rgb(247,141,101)"/><path d=" M -6368.718 -4997.131 C -6368.718 -4997.131 -6366.144 -4988.639 -6355.382 -4988.965 C -6344.619 -4989.291 -6317.852 -4994.251 -6315.132 -4994.427 C -6315.132 -4994.427 -6311.023 -4999.703 -6314.478 -5005.703 C -6314.478 -5005.703 -6331.555 -5005.505 -6339.739 -5006.217 C -6347.922 -5006.929 -6373.136 -5011.531 -6368.718 -4997.131" fill="rgb(228,234,245)"/><path d=" M -6425.686 -4980.127 C -6425.686 -4980.127 -6430.184 -5006.264 -6433.08 -5009.265 C -6436.61 -5012.805 -6442.432 -5015.568 -6448.264 -5011.261 C -6454.095 -5006.955 -6454.738 -5000.423 -6453.232 -4996.424 C -6451.726 -4992.424 -6436.927 -4959.18 -6432.496 -4955.42 C -6428.064 -4951.66 -6421.994 -4953.041 -6420.814 -4960.205 C -6419.634 -4967.371 -6425.686 -4980.127 -6425.686 -4980.127" fill="rgb(228,234,245)"/><path d=" M -6380.326 -4966.208 C -6380.326 -4966.208 -6376.798 -4966.001 -6375.552 -4966.001 C -6374.306 -4966.001 -6364.759 -4966.831 -6363.099 -4966.831 C -6361.439 -4966.831 -6361.439 -4964.963 -6361.439 -4964.963 C -6361.439 -4964.963 -6359.778 -4962.264 -6359.778 -4961.227 C -6359.778 -4960.189 -6359.778 -4958.736 -6359.363 -4957.699 C -6358.947 -4956.661 -6359.571 -4955.831 -6359.986 -4955 C -6360.4 -4954.171 -6361.439 -4953.756 -6362.476 -4953.132 C -6363.514 -4952.511 -6364.759 -4952.511 -6365.59 -4952.925 C -6366.419 -4953.34 -6366.419 -4953.548 -6365.382 -4954.171 C -6364.344 -4954.793 -6363.514 -4955.623 -6363.514 -4955.623 C -6363.514 -4955.623 -6364.759 -4954.377 -6366.627 -4954.171 C -6368.495 -4953.963 -6371.4 -4953.963 -6373.06 -4954.793 C -6374.722 -4955.623 -6377.627 -4957.076 -6377.627 -4957.076 L -6380.948 -4957.491 L -6380.326 -4966.208" fill="rgb(247,141,101)"/><path d=" M -6433.196 -4958.941 C -6433.196 -4958.941 -6430.623 -4950.449 -6419.86 -4950.776 C -6409.098 -4951.101 -6382.331 -4956.061 -6379.61 -4956.236 C -6379.61 -4956.236 -6375.502 -4961.512 -6378.956 -4967.513 C -6378.956 -4967.513 -6396.034 -4967.316 -6404.218 -4968.028 C -6412.4 -4968.74 -6437.614 -4973.341 -6433.196 -4958.941 Z " fill="rgb(228,234,245)"/></g></g></svg>